<svg xmlns="http://www.w3.org/2000/svg" viewBox="0 0 338.65 358.49"><defs><style>.cls-1{fill:#ffbe9d;}.cls-2{fill:#eb996e;}.cls-3{fill:#192a41;}.cls-4{fill:#fafafa;}.cls-5{fill:#00b9eb;}.cls-6{fill:#d4eeff;}.cls-7{fill:#55a5e2;}.cls-8{opacity:0.3;}.cls-9{fill:#e0e0e0;}.cls-10{opacity:0.2;}.cls-11{fill:#fff;}</style></defs><title>Corona-2</title><g id="Character_2" data-name="Character 2"><path class="cls-1" d="M520.25,113.05l-30.17,39.73L509.88,168c2.06-2,9.45-10.53,9.45-10.53s8.77,5.76,15.81-1.84c3.42-3.69,9.86-11.88,15.58-19.33a19.16,19.16,0,0,0-3.19-26.61h0A19.17,19.17,0,0,0,520.25,113.05Z" transform="translate(-393.57 -97.28)"/><path class="cls-2" d="M519.33,157.51a24.12,24.12,0,0,1-7.44-11.9s-2.63,7.66,5.65,13.9Z" transform="translate(-393.57 -97.28)"/><path class="cls-3" d="M543.39,139.88a1.47,1.47,0,0,1-2.06.15,1.41,1.41,0,0,1-.23-2,1.47,1.47,0,0,1,2-.15A1.41,1.41,0,0,1,543.39,139.88Z" transform="translate(-393.57 -97.28)"/><path class="cls-3" d="M545.46,138.82c-.27,0-.54-1.34-1.73-2.41s-2.58-1.25-2.58-1.51.37-.26,1-.19a4,4,0,0,1,2.22,1,3.89,3.89,0,0,1,1.21,2.09C545.69,138.45,545.58,138.82,545.46,138.82Z" transform="translate(-393.57 -97.28)"/><path class="cls-3" d="M531.79,130.28a1.48,1.48,0,0,1-2.06.15,1.42,1.42,0,0,1-.24-2,1.47,1.47,0,0,1,2.06-.15A1.41,1.41,0,0,1,531.79,130.28Z" transform="translate(-393.57 -97.28)"/><path class="cls-3" d="M533.66,128.55c-.27,0-.54-1.35-1.73-2.41s-2.58-1.26-2.58-1.52.37-.25,1-.19a4.08,4.08,0,0,1,2.22,1,3.88,3.88,0,0,1,1.21,2.1C533.89,128.17,533.78,128.55,533.66,128.55Z" transform="translate(-393.57 -97.28)"/><path class="cls-3" d="M530,141.18a10,10,0,0,1,2.23,1.38c.33.25.67.44.91.28s.43-.59.6-1.07c.38-1,.78-2,1.19-3.1,1.72-4.39,3.25-7.89,3.43-7.82s-1.08,3.69-2.79,8.08c-.44,1.07-.85,2.1-1.24,3.08a2.38,2.38,0,0,1-.91,1.32,1,1,0,0,1-.9,0,2.36,2.36,0,0,1-.57-.39A10.78,10.78,0,0,1,530,141.18Z" transform="translate(-393.57 -97.28)"/><path class="cls-3" d="M525.81,138.85c.2.16-.95,1.45-.68,3.35s1.76,3,1.61,3.18-.53,0-1.12-.53a4.32,4.32,0,0,1-1.41-2.59,3.78,3.78,0,0,1,.65-2.73C525.3,139,525.73,138.76,525.81,138.85Z" transform="translate(-393.57 -97.28)"/><path class="cls-3" d="M538.15,124.2c-.41.21-1.45-1-3-2.09s-3-1.72-2.92-2.17c0-.22.51-.34,1.24-.24a6,6,0,0,1,2.63,1.1,6.08,6.08,0,0,1,1.87,2.14C538.31,123.61,538.33,124.09,538.15,124.2Z" transform="translate(-393.57 -97.28)"/><path class="cls-3" d="M548.11,135c-.45.08-1-.94-2-1.84s-2-1.45-1.91-1.9c0-.21.41-.36,1-.29a3.88,3.88,0,0,1,3.13,3C548.46,134.59,548.32,135,548.11,135Z" transform="translate(-393.57 -97.28)"/><path class="cls-3" d="M536.09,112.3H536a8.15,8.15,0,0,0-5.78,1.88l-.16.13c-2.29,1.92-4.25,4.2-6.55,6.1s-5.07,3.43-8,3.48c-1.23,0-2.79-.62-2.68-1.85a2.53,2.53,0,0,1,.63-1.25c4.38-5.66,7.18-11.66,12.19-17.18a6.31,6.31,0,0,1,5.37-2c1.91.22,4.1.63,4.84,2.41s.22,5.69.3,7.61" transform="translate(-393.57 -97.28)"/><path class="cls-1" d="M519.58,119c-.08-.17-3.87-6.33-8.45-.93s1.79,8.89,1.93,8.74S519.58,119,519.58,119Z" transform="translate(-393.57 -97.28)"/><path class="cls-2" d="M513.14,123.35s-.15,0-.37-.07a1.24,1.24,0,0,1-.71-.58,3,3,0,0,1,.69-3,4.21,4.21,0,0,1,1.41-1.12,1.39,1.39,0,0,1,1.32-.12.63.63,0,0,1,.34.73c-.06.21-.19.29-.17.32s.2,0,.34-.25a.78.78,0,0,0,.08-.52.93.93,0,0,0-.41-.58,1.75,1.75,0,0,0-1.69,0,4.23,4.23,0,0,0-1.6,1.23c-.89,1.12-1.2,2.61-.61,3.5a1.33,1.33,0,0,0,1,.59C513,123.48,513.15,123.38,513.14,123.35Z" transform="translate(-393.57 -97.28)"/><path class="cls-3" d="M546.22,105.49s-.1-.13-.34-.3a5.63,5.63,0,0,0-1.09-.61A6.87,6.87,0,0,0,537.1,106a5.32,5.32,0,0,0-.79,1c-.16.25-.23.4-.21.41s.38-.53,1.14-1.23a7.12,7.12,0,0,1,7.47-1.42C545.67,105.14,546.19,105.53,546.22,105.49Z" transform="translate(-393.57 -97.28)"/><path class="cls-3" d="M556,128.55c0,1.34-1.77,1.93-3.1,1.8a7,7,0,0,1-4.21-2.88,12.27,12.27,0,0,1-1-3.9c-2.66.42-5.93-1.73-5.54-4.87-2.84,1.62-10.24-2.68-10.58-4.26,0-3.32-1.1-11.33,3.26-11.7,4.86-.42,12,.65,16.59,6.32,6.68,8.31,6,15.31,4.54,19.49" transform="translate(-393.57 -97.28)"/><path class="cls-4" d="M522.43,130.39s10.18,6.67,14.09,9,6.2,8.25,6.2,8.25l-1,1.38s-6.54,7.79-8.14,9.07c-2.6,2.06-10.4,1.41-12.2.42a18.67,18.67,0,0,1-8.91-19.15s5.85,1.06,8.29-2.47A62.4,62.4,0,0,0,522.43,130.39Z" transform="translate(-393.57 -97.28)"/><path class="cls-3" d="M522.43,130.39a1,1,0,0,1,0,.28c0,.22-.09.48-.16.81-.14.71-.36,1.74-.69,3.07a21.79,21.79,0,0,1-.62,2.21,5.32,5.32,0,0,1-2,1.89,10.76,10.76,0,0,1-6.52.89l.22-.16a18.58,18.58,0,0,0,2.7,13,17.85,17.85,0,0,0,2.38,3,15.68,15.68,0,0,0,3.1,2.49,6.36,6.36,0,0,0,.87.49,5.56,5.56,0,0,0,1,.31,17,17,0,0,0,2,.35,24.08,24.08,0,0,0,4.25.1,8.59,8.59,0,0,0,4.54-1.31c1.18-1.06,2.24-2.3,3.29-3.45l3-3.48c1-1.14,1.93-2.24,2.76-3.39l0,.22c-1.51-3.63-3.68-6.84-6.52-8.45l-7.16-4.64-4.69-3.07-1.25-.84a4.22,4.22,0,0,1-.45-.31,3.3,3.3,0,0,1,.42.24l1.24.76,4.74,2.93,7.34,4.59a12.63,12.63,0,0,1,3.92,3.55,23.24,23.24,0,0,1,2.86,5.07l0,.12-.08.11c-.83,1.17-1.79,2.3-2.76,3.43l-3,3.49a45.49,45.49,0,0,1-3.34,3.51,9,9,0,0,1-4.83,1.44,24.1,24.1,0,0,1-4.34-.11,16.31,16.31,0,0,1-2.11-.36,5.74,5.74,0,0,1-1-.34,7,7,0,0,1-.93-.53,15.7,15.7,0,0,1-3.19-2.57,18.28,18.28,0,0,1-2.43-3.11,18.86,18.86,0,0,1-2.67-13.3l0-.19.19,0a10.59,10.59,0,0,0,6.3-.77,5.05,5.05,0,0,0,1.91-1.73,22.21,22.21,0,0,0,.66-2.15c.34-1.29.6-2.31.79-3.05l.21-.79A2.16,2.16,0,0,1,522.43,130.39Z" transform="translate(-393.57 -97.28)"/><path class="cls-3" d="M519.83,128.55c.08-.12.73.2,1.45.71s1.24,1,1.15,1.13-.73-.2-1.45-.71S519.74,128.67,519.83,128.55Z" transform="translate(-393.57 -97.28)"/><path class="cls-3" d="M534.11,155.56a2.43,2.43,0,0,1-.8.17,12.5,12.5,0,0,1-2.24.06,14.55,14.55,0,0,1-12-7.71,11.8,11.8,0,0,1-.87-2.06,2.29,2.29,0,0,1-.18-.8c.09,0,.43,1.08,1.37,2.68a15.33,15.33,0,0,0,11.68,7.52C533,155.62,534.11,155.47,534.11,155.56Z" transform="translate(-393.57 -97.28)"/><path class="cls-3" d="M537.77,152.58c-.08,0-.57-.92-1.53-2.38a30,30,0,0,0-9.69-9.33c-1.49-.9-2.47-1.36-2.44-1.44a10.15,10.15,0,0,1,2.62,1.12,25.42,25.42,0,0,1,5.56,4.06,25.9,25.9,0,0,1,4.27,5.4A10.5,10.5,0,0,1,537.77,152.58Z" transform="translate(-393.57 -97.28)"/><path class="cls-5" d="M604.46,373.25q6,22.41,12,44.82A12.54,12.54,0,0,0,595,428.28a19,19,0,0,0-22.7,7.32c-3.54,5.75-2.94,14.54,2.9,17.93,3,1.74,6.68,1.74,10.15,1.7,42-.57,84.25,1,126.24.41,3.6-.05,7.3-.12,10.59-1.58,6.37-2.82,9.3-12.29,9.91-19.23A36.94,36.94,0,0,0,685.33,396c3.22-9.51-4.62-20.35-14.45-22.37s-20.11,3.22-26.44,11-9.32,17.75-11.24,27.61c-5.3-8.46-22-31.79-27.27-40.25" transform="translate(-393.57 -97.28)"/><path class="cls-6" d="M604.46,373.25q6,22.41,12,44.82A12.54,12.54,0,0,0,595,428.28a19,19,0,0,0-22.7,7.32c-3.54,5.75-2.94,14.54,2.9,17.93,3,1.74,6.68,1.74,10.15,1.7,42-.57,84.25,1,126.24.41,3.6-.05,7.3-.12,10.59-1.58,6.37-2.82,9.3-12.29,9.91-19.23A36.94,36.94,0,0,0,685.33,396c3.22-9.51-4.62-20.35-14.45-22.37s-20.11,3.22-26.44,11-9.32,17.75-11.24,27.61c-5.3-8.46-22-31.79-27.27-40.25" transform="translate(-393.57 -97.28)"/><path class="cls-7" d="M553.42,106.11c-5.35-7.8-15.62-8.66-15.62-8.66-26.47-2.22-30.72,17-32.95,21.86-1.32,2.89-5.78,12.17-7.45,15.14-.67,1.21-2.31,1.22-3.91.88l-4.13-3.45L487,130.44l-9.72-2.82c-1.43-1.36-3.79-2.34-7.55-2.55-16.24-.9-24.66,16.24-26.16,19-1.41,2.54-13.93,20.15-15.48,22.33-.1.14-.2.28-.31.41-1.3,1.59-10.18,12.62-11.57,18.75-1,4.33,5.5,13.69,10.1,19.64a7.87,7.87,0,0,0,10.13,2l6.31-3.61.16.75-9.59,20.41-9.87,83.75c.78-1.77-.94,9-2.68,22.09a34.46,34.46,0,0,0,.65,13.33s-.2,1.12-.38,2.8h0v.06c0,.42-.09.87-.13,1.35-.29,3.28-1,11.5-1.21,16.91-.13,3.54.81,20.22,1.75,35.58-1.93,2.16-1.6,6-1.7,9.1-.2,6.2-3.27,11.88-5.81,17.54s-4.61,12.06-2.75,18a15.3,15.3,0,0,0,9.46,9.62,16.06,16.06,0,0,0,17.12-4.7c3.54-4.21,4.61-9.91,5.55-15.33,1.94-11.21,3.82-23,2.58-34.1L453,367l1.4-5.95a12.67,12.67,0,0,0,1.23-.8c2.12-1.52,15.74-63,15.74-63l-3,42.7,1.51,8.78s-1.51,3-3.88,8.47-3,77.34-3,77.35-2.67,7.55-2.91,8.74-2.22,7.37-2.22,11.15h66.22c8.51-8.51-29.5-19.9-29.5-19.9H493.5a.75.75,0,0,0,.17-.33c1-4.32,8.57-74,8.57-74s3.38-2.72,4.59-9.69S504.41,336,504.41,336l.57-13.57c1.36-11.77,6.56-70.39,7.47-73.33s-4.53-10.64-4.53-10.64,6.34-4.67,8.87-7.93c.94,7.45,1.67,14,1.61,15.62-.17,4.39,9.33,7.83,9.33,7.83l16.8-12.8V225.72c0-.19-1.71-2.29-2.86-4.39s-10.21-48.65-10.21-48.65l-.2.33.06-.11-5.48-8.78-7.45-5.56-5,4.09c-1.84-4.79-3.26-18-2.26-20.69,1.11-3,10.71-18.72,18-22.65s14.22-2.38,19.4,2.77c4.68,4.63,2.16,14.23,2.16,14.23s5.31-5.18,6.53-9.83A25,25,0,0,0,553.42,106.11Z" transform="translate(-393.57 -97.28)"/><g class="cls-8"><path d="M424.87,296.64c2.94,2.08,5.5,2.59,9,3.49s7.59.32,10-2.35c2.9-3.23,2.44-8.12,2.91-12.43.52-4.86,2.41-9.44,3.79-14.13,3.92-13.36,3.67-27.53,3.39-41.45a3.48,3.48,0,0,0-.57-2.23,2.37,2.37,0,0,0-3.19,0,6.82,6.82,0,0,0-1.82,3C440.23,251.25,433,266.05,426,287.2" transform="translate(-393.57 -97.28)"/></g><path class="cls-3" d="M512.86,161.59a1.65,1.65,0,0,1,.17.34,5.62,5.62,0,0,1,.19,1.1,23.15,23.15,0,0,1-.28,4.23,135.36,135.36,0,0,1-3.32,15.24c-.43,1.6-.88,3.26-1.39,5s-1,3.53-1.72,5.34c-1.45,3.63-3.76,7.11-5.2,11.19a81.42,81.42,0,0,0-3.16,13.22,71.43,71.43,0,0,1-3.7,14.21c-1.85,4.68-4,9.11-5,13.73a100.4,100.4,0,0,0-1.54,13.52,61.91,61.91,0,0,1-2.13,12.19,84.32,84.32,0,0,1-3.54,10.19,70.63,70.63,0,0,1-7.44,13.7A32,32,0,0,1,472.1,298l-.81.75L471,299a1.7,1.7,0,0,1,.25-.28L472,298a36.86,36.86,0,0,0,2.63-3.31,79.08,79.08,0,0,0,12.8-36A99.38,99.38,0,0,1,489,245.07c1-4.69,3.15-9.16,5-13.81a71.8,71.8,0,0,0,3.68-14.11,80.2,80.2,0,0,1,3.21-13.29c1.48-4.15,3.81-7.62,5.25-11.19.72-1.77,1.21-3.58,1.74-5.3s1-3.38,1.41-5a146.16,146.16,0,0,0,3.48-15.17,24.84,24.84,0,0,0,.37-4.21A6.58,6.58,0,0,0,513,162,1.48,1.48,0,0,1,512.86,161.59Z" transform="translate(-393.57 -97.28)"/><path class="cls-3" d="M508.54,226.61a5.72,5.72,0,0,1-.39,2,20.17,20.17,0,0,1-4.95,8.22,6.12,6.12,0,0,1-1.55,1.27,50,50,0,0,0,4.08-5.34A47.88,47.88,0,0,0,508.54,226.61Z" transform="translate(-393.57 -97.28)"/><path class="cls-3" d="M468.94,231.34l.75.23c.49.16,1.2.44,2.14.74,1.87.64,4.61,1.48,8.08,2.34a126.64,126.64,0,0,0,28.14,3.55l-.17.07,5.71-4.94,1.77-1.53a5.67,5.67,0,0,0,2-3.76,8.88,8.88,0,0,0-.11-2.17q-.54-4.41-1-8.48v0a167.84,167.84,0,0,1-4.74-20.94c-.41-2.6-.67-4.67-.83-6.09-.07-.68-.12-1.22-.16-1.63a2.06,2.06,0,0,1,0-.57,3.2,3.2,0,0,1,.1.56c.07.4.15.94.25,1.62.2,1.41.51,3.47,1,6.06a179.94,179.94,0,0,0,4.91,20.85v0c.34,2.71.7,5.54,1.06,8.48a9.1,9.1,0,0,1,.12,2.29,6,6,0,0,1-.7,2.25,6.3,6.3,0,0,1-1.52,1.85l-1.77,1.53-5.72,4.93-.07.06H508A122.3,122.3,0,0,1,479.82,235c-3.46-.91-6.19-1.81-8.05-2.49-.93-.33-1.63-.64-2.11-.83A3.61,3.61,0,0,1,468.94,231.34Z" transform="translate(-393.57 -97.28)"/><path class="cls-3" d="M485.43,240.23a19.09,19.09,0,0,1-.65-11.48c.16,0-.23,2.59,0,5.76S485.58,240.19,485.43,240.23Z" transform="translate(-393.57 -97.28)"/><path class="cls-3" d="M509,265.33a5.68,5.68,0,0,1-1,.64c-.68.37-1.66.93-2.85,1.64a83.27,83.27,0,0,0-8.94,6.08,84.41,84.41,0,0,0-8.06,7.22c-1,1-1.75,1.8-2.27,2.37a5.28,5.28,0,0,1-.87.85,5.63,5.63,0,0,1,.71-1c.48-.61,1.22-1.47,2.16-2.49a67.54,67.54,0,0,1,17.09-13.37c1.22-.67,2.23-1.18,2.94-1.5A5.09,5.09,0,0,1,509,265.33Z" transform="translate(-393.57 -97.28)"/><path class="cls-3" d="M505.71,287.3a4,4,0,0,1-.84.6c-.56.36-1.38.85-2.4,1.45-2,1.2-4.9,2.79-8.11,4.45s-6.16,3.07-8.32,4.05c-1.08.48-2,.86-2.57,1.11a3.61,3.61,0,0,1-1,.34,4.18,4.18,0,0,1,.88-.52l2.5-1.27c2.12-1.06,5-2.52,8.24-4.17s6.08-3.2,8.17-4.31l2.48-1.31A4,4,0,0,1,505.71,287.3Z" transform="translate(-393.57 -97.28)"/><path class="cls-3" d="M496.33,321.25c-.1.1-3.68-3.16-8-7.28s-7.73-7.55-7.63-7.65,3.68,3.15,8,7.27S496.42,321.14,496.33,321.25Z" transform="translate(-393.57 -97.28)"/><path class="cls-3" d="M504.8,309.54c0,.16-2.27.24-5,.77s-4.89,1.25-4.94,1.1a18.69,18.69,0,0,1,9.94-1.87Z" transform="translate(-393.57 -97.28)"/><path class="cls-3" d="M500.13,362s-.24.29-.74.74l-2.12,1.88-7,6.21c-2.75,2.41-5.29,4.54-7.2,6-.95.74-1.73,1.31-2.29,1.69a3.7,3.7,0,0,1-.89.54c0-.06,1.12-1,2.95-2.52s4.34-3.7,7.09-6.1,5.26-4.58,7.12-6.1c.92-.76,1.69-1.36,2.23-1.76A3.89,3.89,0,0,1,500.13,362Z" transform="translate(-393.57 -97.28)"/><path class="cls-3" d="M428,357.7a3.9,3.9,0,0,1-.82-.61,10.76,10.76,0,0,1-1.78-2.14,29.85,29.85,0,0,1-3.54-8.42,45.12,45.12,0,0,1-1.54-9,23.62,23.62,0,0,1,0-2.77,3.24,3.24,0,0,1,.14-1c.08,0,0,1.44.25,3.75a54.67,54.67,0,0,0,1.67,8.89,34.1,34.1,0,0,0,3.35,8.37A19.56,19.56,0,0,0,428,357.7Z" transform="translate(-393.57 -97.28)"/><path class="cls-3" d="M454.28,360.71c0,.17-3.19.71-6.84,2.3s-6.26,3.53-6.35,3.4a7,7,0,0,1,1.64-1.37,25.75,25.75,0,0,1,9.43-4.07A7,7,0,0,1,454.28,360.71Z" transform="translate(-393.57 -97.28)"/><path class="cls-3" d="M445.69,379a23.2,23.2,0,0,1-6.12,2.38,22.86,22.86,0,0,1-6.48,1.07c0-.15,2.87-.61,6.34-1.57S445.63,378.9,445.69,379Z" transform="translate(-393.57 -97.28)"/><path class="cls-3" d="M461,306.1c-.14,0-2.64-8.39-5.6-18.83s-5.23-18.94-5.09-19,2.64,8.4,5.59,18.84S461.15,306.07,461,306.1Z" transform="translate(-393.57 -97.28)"/><path class="cls-3" d="M484.37,270.38a15,15,0,0,1-1.66-2.48c-.95-1.57-2.18-3.79-3.43-6.3s-2.25-4.84-2.92-6.55a13.86,13.86,0,0,1-1-2.82,21.67,21.67,0,0,1,1.3,2.68c.75,1.66,1.81,4,3.05,6.46s2.42,4.74,3.28,6.35A19.49,19.49,0,0,1,484.37,270.38Z" transform="translate(-393.57 -97.28)"/><path class="cls-3" d="M492,193a4.36,4.36,0,0,1-.84.66l-2.36,1.66c-2,1.41-4.72,3.38-7.65,5.67s-5.51,4.46-7.36,6L471.61,209a4.42,4.42,0,0,1-.85.65,4.33,4.33,0,0,1,.71-.8c.47-.49,1.18-1.18,2.08-2,1.79-1.67,4.33-3.89,7.28-6.19s5.71-4.23,7.76-5.56c1-.67,1.87-1.19,2.46-1.53A3.87,3.87,0,0,1,492,193Z" transform="translate(-393.57 -97.28)"/><path class="cls-3" d="M447,183.51c-.08,0-.56-1-1.57-2.41a21.68,21.68,0,0,0-10.82-8.16c-1.68-.56-2.77-.75-2.76-.84a2.33,2.33,0,0,1,.78.05,13.61,13.61,0,0,1,2.09.44,19.57,19.57,0,0,1,11,8.3,12.42,12.42,0,0,1,1,1.88C446.91,183.23,447,183.5,447,183.51Z" transform="translate(-393.57 -97.28)"/><path class="cls-3" d="M433,181.79c0,.09-.95-.14-2.47-.23a17.16,17.16,0,0,0-11.13,3.34c-1.22.91-1.88,1.61-1.94,1.55a7.12,7.12,0,0,1,1.71-1.84,15.37,15.37,0,0,1,11.39-3.41A6.86,6.86,0,0,1,433,181.79Z" transform="translate(-393.57 -97.28)"/><path class="cls-3" d="M445.76,197.85a19,19,0,0,0-3.23-5.75,19.28,19.28,0,0,0-5.33-3.9,5.2,5.2,0,0,1,1.89.63,12.4,12.4,0,0,1,3.83,2.92,12.71,12.71,0,0,1,2.45,4.15A4.93,4.93,0,0,1,445.76,197.85Z" transform="translate(-393.57 -97.28)"/><g class="cls-8"><path d="M464.17,216.34a16.82,16.82,0,0,1-1.77-5.91,16.73,16.73,0,0,1,1.48-6.48q4.78-12.81,9.58-25.61c3.67-9.8,7.36-19.67,9.25-30,.26-1.42.28-3.28-1-3.87a2.29,2.29,0,0,0-2.54.77,6.84,6.84,0,0,0-1.15,2.58Q468.49,181,457.1,213.63" transform="translate(-393.57 -97.28)"/></g><path class="cls-3" d="M463,434.55c.05-.09,1.67.78,4.5,1.67a38.16,38.16,0,0,0,11.38,1.59,50.3,50.3,0,0,0,11.43-1.45A10.83,10.83,0,0,0,493.5,435c.68-.46,1-.81,1-.77s-.06.1-.2.27a5.42,5.42,0,0,1-.71.66,9.81,9.81,0,0,1-3.19,1.56,44.59,44.59,0,0,1-11.53,1.62,35.32,35.32,0,0,1-11.5-1.76,27.46,27.46,0,0,1-3.26-1.37A6.62,6.62,0,0,1,463,434.55Z" transform="translate(-393.57 -97.28)"/><path class="cls-3" d="M491.15,436.18a2.39,2.39,0,0,1,.81,0,17.3,17.3,0,0,1,2.18.37,25.54,25.54,0,0,1,12.56,7.15,16.57,16.57,0,0,1,1.44,1.68c.31.42.47.67.44.69s-.8-.83-2.14-2.11a29.3,29.3,0,0,0-12.39-7.05C492.27,436.45,491.13,436.27,491.15,436.18Z" transform="translate(-393.57 -97.28)"/><path class="cls-3" d="M495.83,446.52c-.15.05-1.11-2.34-2.72-5.07s-3.22-4.76-3.1-4.86a17.21,17.21,0,0,1,3.55,4.59A16.82,16.82,0,0,1,495.83,446.52Z" transform="translate(-393.57 -97.28)"/><path class="cls-3" d="M484.42,448.37a11.59,11.59,0,0,1,1.21-10.17,31.09,31.09,0,0,0-1.28,5A32.56,32.56,0,0,0,484.42,448.37Z" transform="translate(-393.57 -97.28)"/><path class="cls-3" d="M472.52,448.79a10.67,10.67,0,0,1-.08-5.7,10.46,10.46,0,0,1,2.44-5.15,30,30,0,0,0-1.94,5.26A32.09,32.09,0,0,0,472.52,448.79Z" transform="translate(-393.57 -97.28)"/><path class="cls-3" d="M527.75,180.41c.13.07-2.84,5.77-6.62,12.74s-7,12.57-7.09,12.5,2.84-5.77,6.63-12.75S527.62,180.34,527.75,180.41Z" transform="translate(-393.57 -97.28)"/><path class="cls-3" d="M443.13,186.06s.24.13.61.44a10.42,10.42,0,0,1,1.4,1.45,14.36,14.36,0,0,1,1.64,2.51,17.05,17.05,0,0,1,1.27,3.45,16.72,16.72,0,0,1,.42,3.66,14.16,14.16,0,0,1-.34,3,10.28,10.28,0,0,1-.6,1.92,2.24,2.24,0,0,1-.34.66c-.09,0,.3-1,.58-2.65a16.79,16.79,0,0,0,.22-2.92,17.59,17.59,0,0,0-.45-3.53,18.09,18.09,0,0,0-1.19-3.36,16.45,16.45,0,0,0-1.5-2.51C443.86,186.83,443.07,186.13,443.13,186.06Z" transform="translate(-393.57 -97.28)"/><path class="cls-3" d="M447,184s.41.34.79,1.06a8,8,0,0,1,.43,6.23c-.28.77-.58,1.18-.63,1.15A11.24,11.24,0,0,0,447,184Z" transform="translate(-393.57 -97.28)"/><path class="cls-3" d="M468.47,154.29a6.71,6.71,0,0,1-.67,1.37c-.46.86-1.15,2.09-2,3.6-1.75,3-4.26,7.15-7.07,11.68l-7.2,11.59-2.17,3.52a8.56,8.56,0,0,1-.85,1.26,9.19,9.19,0,0,1,.67-1.36c.46-.86,1.16-2.09,2-3.6,1.75-3,4.26-7.15,7.07-11.68l7.19-11.6,2.18-3.51A9.5,9.5,0,0,1,468.47,154.29Z" transform="translate(-393.57 -97.28)"/><g class="cls-8"><path d="M450.15,200.66a8.58,8.58,0,0,0,1.45-8.06,20.43,20.43,0,0,0,4.24-2.91,6.8,6.8,0,0,0,2.24-4.51c0-.93-.18-1.86-.1-2.78a8.51,8.51,0,0,1,1.16-3.16c2-3.63,4.11-7.16,5.8-10.92a29.39,29.39,0,0,0,2.95-11.92c-2.79,2.09-4.17,5.49-5.72,8.6-3.13,6.24-7.38,11.82-11.07,17.74a19.69,19.69,0,0,0-2.49,5.19,21.33,21.33,0,0,0-.35,6.58c.07,1.37.14,2.75.2,4.12a1.94,1.94,0,0,0,.35,1.21c.3.31.94.3,1.06-.11" transform="translate(-393.57 -97.28)"/></g><path class="cls-3" d="M444.12,405.78a1.72,1.72,0,0,1,0,.5c0,.33-.1.81-.21,1.43a24.19,24.19,0,0,1-1.46,5.1,15,15,0,0,1-4.7,6.31,11.83,11.83,0,0,1-4.26,2,10.06,10.06,0,0,1-5.05-.08,8.05,8.05,0,0,1-4.15-2.87,11.48,11.48,0,0,1-2-4.27,26.58,26.58,0,0,1-.46-7.86c.11-2.23.16-4,.09-5.27s-.17-1.93-.12-1.93a1.94,1.94,0,0,1,.12.48,13.58,13.58,0,0,1,.2,1.43,42.82,42.82,0,0,1,.08,5.3,27.6,27.6,0,0,0,.55,7.73,11.43,11.43,0,0,0,1.91,4.08,7.61,7.61,0,0,0,3.9,2.68,10.57,10.57,0,0,0,8.88-1.78,14.84,14.84,0,0,0,4.64-6.07,27,27,0,0,0,1.6-5C444,406.45,444.08,405.77,444.12,405.78Z" transform="translate(-393.57 -97.28)"/><path class="cls-3" d="M419.72,442.76a3,3,0,0,1,0-.93,23.51,23.51,0,0,1,.17-2.51,35.39,35.39,0,0,1,5.67-15.49,25,25,0,0,1,1.49-2c.38-.46.6-.7.63-.68s-.71,1.11-1.81,2.91a42.34,42.34,0,0,0-3.57,7.39,43.63,43.63,0,0,0-2.05,7.95C419.89,441.45,419.81,442.76,419.72,442.76Z" transform="translate(-393.57 -97.28)"/><path class="cls-3" d="M432.53,438.46a10.83,10.83,0,0,1-.72-2.44,40.76,40.76,0,0,1-.8-12.2,9.58,9.58,0,0,1,.4-2.51,18.39,18.39,0,0,1,0,2.53c-.05,1.56-.06,3.71.09,6.08s.45,4.49.7,6A15.29,15.29,0,0,1,432.53,438.46Z" transform="translate(-393.57 -97.28)"/><path class="cls-3" d="M441.37,428.37a34.16,34.16,0,0,0-1.7-5.05,37.93,37.93,0,0,0-2.89-4.48,10.48,10.48,0,0,1,3.36,4.25A10.25,10.25,0,0,1,441.37,428.37Z" transform="translate(-393.57 -97.28)"/><g class="cls-8"><path d="M516.63,230.77a13.76,13.76,0,0,0,5.81-14.36c-.83-3.5-3-6.58-3.65-10.12-.81-4.68,3.45-13.69,4.73-18.09,0,0-5.34,10.62-6.89,13.12s-2.78,3.49-2.41,6.4a59.55,59.55,0,0,0,1.38,6.47c1.57,6.28,2.86,14.12,1,16.58" transform="translate(-393.57 -97.28)"/></g><g class="cls-8"><path d="M469,351c3.19-4.34,6.48-8.94,7.09-14.28a31.18,31.18,0,0,0-.5-8.17c-1.44-9.49-3.18-20-4.61-29.53,0,0-2.37,40.82-2.63,40.91l1.51,8.78-.95,2Z" transform="translate(-393.57 -97.28)"/></g><path class="cls-3" d="M477.48,327.79c.09,0-.24,1.42-.39,3.74-.08,1.15-.14,2.54-.31,4.08a15.79,15.79,0,0,1-1.25,4.91,39.48,39.48,0,0,1-2.48,4.39l-2.17,3.46c-.63,1-1.14,1.78-1.51,2.32a3.63,3.63,0,0,1-.61.81,3.9,3.9,0,0,1,.44-.92c.31-.57.78-1.39,1.36-2.4s1.31-2.23,2.08-3.52a45,45,0,0,0,2.42-4.35,16.41,16.41,0,0,0,1.25-4.75c.19-1.52.28-2.91.42-4.07a22,22,0,0,1,.44-2.73A4.1,4.1,0,0,1,477.48,327.79Z" transform="translate(-393.57 -97.28)"/><path class="cls-3" d="M532.29,110.42a2.12,2.12,0,0,1-.5.35c-.33.22-.84.5-1.47.92a45,45,0,0,0-5.07,3.83A42.18,42.18,0,0,0,511,153.11a44.28,44.28,0,0,0,1.26,6.23c.18.73.38,1.28.48,1.66a2.4,2.4,0,0,1,.14.59,2.71,2.71,0,0,1-.24-.56c-.13-.37-.36-.91-.58-1.64a38.87,38.87,0,0,1-1.42-6.23A41.45,41.45,0,0,1,525,115.24a38.32,38.32,0,0,1,5.21-3.72c.64-.4,1.17-.65,1.52-.84A3.6,3.6,0,0,1,532.29,110.42Z" transform="translate(-393.57 -97.28)"/><path class="cls-3" d="M502.27,138.56a4.55,4.55,0,0,1-.11-1.19,12.6,12.6,0,0,1,0-1.41c0-.55,0-1.18.09-1.86a32.35,32.35,0,0,1,.77-4.8,33.11,33.11,0,0,1,4.78-10.85,32.71,32.71,0,0,1,3-3.81c.45-.52.92-.94,1.31-1.33s.75-.69,1-.93a5,5,0,0,1,1-.73c.07.08-1.24,1.17-3,3.24a36.31,36.31,0,0,0-2.89,3.82,35.46,35.46,0,0,0-4.71,10.71,34,34,0,0,0-.87,4.71C502.29,136.85,502.37,138.56,502.27,138.56Z" transform="translate(-393.57 -97.28)"/><path class="cls-3" d="M506.94,162.65c-.13.06-2.85-5.1-6.08-11.54s-5.73-11.7-5.6-11.77,2.84,5.1,6.07,11.54S507.07,162.59,506.94,162.65Z" transform="translate(-393.57 -97.28)"/><g class="cls-8"><path d="M471.45,299a123.06,123.06,0,0,0,15.16-17.09,38.39,38.39,0,0,1,5.27-6.36,10.76,10.76,0,0,1,7.49-3,2.69,2.69,0,0,1,2.49,1.38,3,3,0,0,1-.68,2.62c-4,6.13-10.12,10.57-16.06,14.88-4.18,3-8.56,6.13-13.65,6.94" transform="translate(-393.57 -97.28)"/></g><path class="cls-3" d="M425.26,203.73c1.08,1.42-9.12,19.33-9.12,19.33l6.57,1.14L433,206.44Z" transform="translate(-393.57 -97.28)"/><path class="cls-3" d="M449.48,229.34a21.55,21.55,0,0,0-26.76-10.43c-4.86,1.79-9.72,3.6-10.62,5.57C409.51,230.21,395,278,395,278l42.72,10.09s13.2-43.94,13.91-46.54C452.65,237.69,451.5,233.37,449.48,229.34Z" transform="translate(-393.57 -97.28)"/><path class="cls-3" d="M487,130.44,478.47,128c2.91,9.48-23.81,77.41-23.81,77.41l-12.13,24.85,5.84,3.32,11.56-24.11Z" transform="translate(-393.57 -97.28)"/><rect class="cls-3" x="393.36" y="279.16" width="46.87" height="5.9" transform="translate(-287.73 -210.91) rotate(17.75)"/><rect class="cls-9" x="420.47" y="245.87" width="21.01" height="25.69" transform="translate(-294.19 -216.35) rotate(17.75)"/><path class="cls-3" d="M437.08,274.18,417,267.76l7.85-24.51h0l20,6.42v0Zm-20-6.46,20,6.4,7.82-24.42-20-6.39Z" transform="translate(-393.57 -97.28)"/><path class="cls-6" d="M442.19,194.19s-4.66-1.83-7.51,0-6.41,7.74-5.5,10.69,8.92,13.8,8.92,13.8,10.47,11.61,14.47,7.61c0,0,7.44,5.37,9.05,3.54,1.15-1.3-.51-3.55-.29-3.16.48.85,3.43,2,4.69.74.73-.72-.32-3.42-1.13-4.32s2.59,1.32,3.91-.5c1.13-1.57-5-6.39-5-6.39s-7.81-6.28-8.76-8,.19-4,.19-4l.78-2-8.59-2.92C446.86,199.07,442.19,194.19,442.19,194.19Z" transform="translate(-393.57 -97.28)"/><path class="cls-3" d="M442.19,194.19a1.21,1.21,0,0,1,.21.19l.6.58,2.31,2.27c.51.49,1.07,1,1.72,1.59a1.63,1.63,0,0,0,.51.34l.65.22,1.38.46,6.5,2.17.17.06-.06.17-.77,2h0a5.9,5.9,0,0,0-.52,2,3,3,0,0,0,.5,2,29.13,29.13,0,0,0,3.4,3.34c1.24,1.1,2.56,2.2,3.93,3.33a49.92,49.92,0,0,1,4.15,3.59,13.3,13.3,0,0,1,1.85,2.21,2.4,2.4,0,0,1,.45,1.53,1,1,0,0,1-.19.43,1.64,1.64,0,0,1-.29.3,1.87,1.87,0,0,1-.73.4,5.69,5.69,0,0,1-3-.35s-.14,0-.06,0,0,0,.07,0A.23.23,0,0,0,465,223a.17.17,0,0,0,0-.1v0s0,0,0,0l.24.3a5.72,5.72,0,0,1,.41.67,8.3,8.3,0,0,1,.61,1.44,4.11,4.11,0,0,1,.22,1.62,1.68,1.68,0,0,1-.12.45,1.07,1.07,0,0,1-.32.37,2.1,2.1,0,0,1-.77.4,4.62,4.62,0,0,1-3.22-.5,2.82,2.82,0,0,1-.7-.48,1.29,1.29,0,0,1-.16-.17l-.08-.11,0-.05,0,0,0-.09c-.12-.06.78-.4.44-.22a2,2,0,0,1,.27.4,4.42,4.42,0,0,1,.52,1.61,2,2,0,0,1-.6,1.68,2.16,2.16,0,0,1-1.76.27,14.13,14.13,0,0,1-4-1.66,39.81,39.81,0,0,1-3.53-2.24l.34,0a3.24,3.24,0,0,1-2.29.91,6.37,6.37,0,0,1-2.31-.5,17.87,17.87,0,0,1-3.92-2.28,47.44,47.44,0,0,1-6.31-5.76h0c-1.6-2.2-3.11-4.33-4.51-6.4a71,71,0,0,1-3.77-6,10,10,0,0,1-.66-1.55,4.46,4.46,0,0,1-.08-1.66,10.94,10.94,0,0,1,.88-2.94,17.29,17.29,0,0,1,3-4.5,9.93,9.93,0,0,1,1.73-1.55,5.48,5.48,0,0,1,1.92-.78,9.28,9.28,0,0,1,3.23,0,14.11,14.11,0,0,1,1.95.48l.48.18.16.08s-.06,0-.17,0l-.5-.14a15.78,15.78,0,0,0-1.94-.42,9.42,9.42,0,0,0-3.17,0,5,5,0,0,0-1.81.77,9.49,9.49,0,0,0-1.67,1.53,17.09,17.09,0,0,0-2.84,4.45c-.74,1.72-1.42,3.92-.11,5.82,1.06,2,2.38,3.92,3.78,6s2.92,4.17,4.53,6.36v0a47.75,47.75,0,0,0,6.26,5.68,17.31,17.31,0,0,0,3.8,2.21,6.13,6.13,0,0,0,2.13.46,2.72,2.72,0,0,0,1.92-.76l.15-.15.18.12c1.11.78,2.28,1.53,3.48,2.21a14.09,14.09,0,0,0,3.81,1.6,1.67,1.67,0,0,0,1.33-.16,1.42,1.42,0,0,0,.42-1.24,3.61,3.61,0,0,0-.46-1.4l-.09-.16,0-.07,0,0h0a.35.35,0,0,0,.12-.1c.06-.05.05-.09.1-.08a.27.27,0,0,0,.14-.07c.11-.05,0,0,.06,0h0l0,0,0,.06s.07.07.11.11a2.58,2.58,0,0,0,.59.41,4.18,4.18,0,0,0,2.83.46,1.59,1.59,0,0,0,.59-.31.62.62,0,0,0,.26-.49,3.88,3.88,0,0,0-.21-1.4,7.25,7.25,0,0,0-.56-1.35,4.17,4.17,0,0,0-.38-.61l-.23-.29a.68.68,0,0,1-.09-.14l0-.05a.29.29,0,0,1,0-.16c0-.09.2-.22.21-.2a.59.59,0,0,1,.3,0,5.42,5.42,0,0,0,2.78.36,1.45,1.45,0,0,0,.55-.29.92.92,0,0,0,.32-.46,2,2,0,0,0-.39-1.17,13.42,13.42,0,0,0-1.77-2.14,52.2,52.2,0,0,0-4.11-3.57q-2-1.7-3.92-3.36a29.33,29.33,0,0,1-3.44-3.43,3.45,3.45,0,0,1-.56-2.29,6.35,6.35,0,0,1,.58-2.16v0c.27-.71.54-1.4.78-2l.11.22-6.48-2.24-1.37-.48-.65-.23a2.1,2.1,0,0,1-.58-.39c-.65-.58-1.2-1.13-1.7-1.63-1-1-1.74-1.8-2.25-2.34l-.56-.62C442.24,194.27,442.18,194.2,442.19,194.19Z" transform="translate(-393.57 -97.28)"/><path class="cls-3" d="M452.57,226.29a13.46,13.46,0,0,1-3.67-2.76,43.94,43.94,0,0,1-3.32-3.15,13.21,13.21,0,0,1,3.67,2.76A43.94,43.94,0,0,1,452.57,226.29Z" transform="translate(-393.57 -97.28)"/><path class="cls-3" d="M461.46,226.85a9.25,9.25,0,0,1-1.59-1.13l-3.73-2.86c-2.92-2.23-5.33-4-5.26-4.09a31.05,31.05,0,0,1,5.57,3.68C459.4,224.67,461.58,226.73,461.46,226.85Z" transform="translate(-393.57 -97.28)"/><path class="cls-3" d="M464.8,222.93a5.41,5.41,0,0,1-1.67-.69,24,24,0,0,1-3.69-2.34,31.21,31.21,0,0,1-3.25-2.91,5.94,5.94,0,0,1-1.16-1.38c.12-.12,2.08,1.81,4.73,3.88S464.88,222.78,464.8,222.93Z" transform="translate(-393.57 -97.28)"/><path class="cls-6" d="M571.3,277.13l-6.81-8.43h0l-1.91-2.37-19-24.39-14.23,10.84,19.95,18.84,2.29,14.23,14.68-5.28s6.26,7,7.26,7.8,3.14-.73,2.1-3.6C575.2,283.68,571.3,277.13,571.3,277.13Z" transform="translate(-393.57 -97.28)"/><path class="cls-3" d="M571.3,277.13l.25.36c.16.27.39.64.68,1.1.58,1,1.45,2.4,2.51,4.27a7.13,7.13,0,0,1,1.27,3.36,2.73,2.73,0,0,1-.73,2,1.82,1.82,0,0,1-1,.52,1.21,1.21,0,0,1-.62-.09,1.91,1.91,0,0,1-.49-.37c-1.11-1.06-2.2-2.26-3.38-3.52l-1.79-2c-.31-.34-.61-.68-.93-1l-.47-.52-.23-.27-.12-.13-.05-.05a.05.05,0,0,0,.07,0h.07l-14.67,5.32-.26.09,0-.28c-.72-4.42-1.5-9.21-2.31-14.22l.07.14-12.83-12.11L529.14,253l-.22-.21.24-.18,14.24-10.82.19-.14.15.18,19.79,25.49,5.75,7.23,1.52,1.94.38.5a1.13,1.13,0,0,1,.12.18l-.16-.16-.41-.48-1.57-1.89-5.86-7.13c-4.93-6.19-11.82-15-19.94-25.38l.33,0L529.47,253l0-.39,7.12,6.72,12.82,12.13.06.05,0,.09c.8,5,1.56,9.81,2.27,14.23l-.31-.18,14.7-5.25.05,0h0a.44.44,0,0,1,.19.12l.08.08.12.13.23.27.47.52.92,1,1.77,2c1.16,1.27,2.25,2.48,3.33,3.54a1.13,1.13,0,0,0,1.73,0,2.47,2.47,0,0,0,.66-1.76,7,7,0,0,0-1.19-3.25c-1-1.89-1.86-3.34-2.42-4.32-.27-.48-.48-.85-.63-1.13A2,2,0,0,1,571.3,277.13Z" transform="translate(-393.57 -97.28)"/><polygon class="cls-3" points="213.05 275.69 211.31 278.68 179.56 204.62 182.05 203.63 213.05 275.69"/><polygon class="cls-3" points="174.05 181.01 166.86 184.15 176.92 209.12 184 206.27 174.05 181.01"/><path class="cls-3" d="M563.56,280.06s-.23-.06-.59-.28-.89-.55-1.6-.95a10,10,0,0,0-6.74-1.06c-3,.58-6.17,2.77-9.24,5.89a90.59,90.59,0,0,0-9.27,11.84,110.45,110.45,0,0,1-11.8,14.32A61.26,61.26,0,0,1,507,322.4,45.56,45.56,0,0,1,495.82,326a36.62,36.62,0,0,1-12.28.14,33.66,33.66,0,0,1-27.89-37.94,45.57,45.57,0,0,1,3.45-11.72,103.33,103.33,0,0,1,5.28-10.29c3.75-6.46,7.44-12.44,9.84-18.5s3.55-12.07,2.83-17.47a28.83,28.83,0,0,0-5.65-13.45,31.23,31.23,0,0,0-8.25-7.53,32.7,32.7,0,0,0-6.47-3,10.22,10.22,0,0,1-2.4-.81,9,9,0,0,1,2.53.3,27.73,27.73,0,0,1,6.85,2.63,30.87,30.87,0,0,1,8.88,7.51,29.84,29.84,0,0,1,6.33,14.09c.9,5.79-.2,12.26-2.64,18.52s-6.11,12.47-9.76,18.9a105.38,105.38,0,0,0-5.09,10.07,43.83,43.83,0,0,0-3.2,11.1A31.24,31.24,0,0,0,484,323.57c7.71,1.31,15.45-.38,22-3.35a59.74,59.74,0,0,0,16.82-11.94,112.8,112.8,0,0,0,11.83-13.86,87.48,87.48,0,0,1,9.74-11.8c3.28-3.12,6.77-5.36,10.08-5.85a9.79,9.79,0,0,1,4.33.28,11,11,0,0,1,2.85,1.33,10.33,10.33,0,0,1,1.5,1.19C563.45,279.86,563.59,280,563.56,280.06Z" transform="translate(-393.57 -97.28)"/><path class="cls-6" d="M564.59,289.73a11.56,11.56,0,0,0-.47-2.92,2.36,2.36,0,0,0-.94-1.47c-.52-.3-1.35-.06-1.41.54a4.75,4.75,0,0,0-.07-2.31,2.29,2.29,0,0,0-1.59-1.56,1.54,1.54,0,0,0-1.8,1.08,6.08,6.08,0,0,0-.2-2.48,1.92,1.92,0,0,0-3.78.08,6.34,6.34,0,0,0-.08,2.71,1.16,1.16,0,0,0-1.53-.91,2.18,2.18,0,0,0-1.47,1.45,16.89,16.89,0,0,0-.14,2.25c0,.86,0,1,0,2.18a1.53,1.53,0,0,0,2.39,1.1,1.57,1.57,0,0,0,1.42,1.62,1.7,1.7,0,0,0,1.76-1.39,2.26,2.26,0,0,0,1.06,2.47,2.43,2.43,0,0,0,2.77-.43,1.59,1.59,0,0,0,1.41,1.87,2.37,2.37,0,0,0,2.17-1.29A5,5,0,0,0,564.59,289.73Z" transform="translate(-393.57 -97.28)"/><path class="cls-3" d="M564.59,289.73a2.39,2.39,0,0,1,0,.55,4.84,4.84,0,0,1-.23,1.59,2.77,2.77,0,0,1-1.77,1.81,1.8,1.8,0,0,1-1.63-.26,1.66,1.66,0,0,1-.67-1.73l.3.18a2.62,2.62,0,0,1-2.78.58,2.19,2.19,0,0,1-1.19-1.11,2.76,2.76,0,0,1-.22-1.68l.45,0a1.55,1.55,0,0,1-.62,1.14,2.15,2.15,0,0,1-1.23.48,1.79,1.79,0,0,1-1.79-1.87l.4.2a1.76,1.76,0,0,1-2.2-.1,1.59,1.59,0,0,1-.59-1.06c0-.4,0-.72,0-1.09,0-.71,0-1.44,0-2.18a8.6,8.6,0,0,1,.09-1.13,1.86,1.86,0,0,1,.53-1.14,2.88,2.88,0,0,1,.73-.54,1.79,1.79,0,0,1,.91-.24,1.38,1.38,0,0,1,1.37,1.21l-.52,0a6.44,6.44,0,0,1,.12-2.89,2.4,2.4,0,0,1,2.24-1.7,2.43,2.43,0,0,1,2,1.78,6.83,6.83,0,0,1,.17,2.48l-.45-.05a1.71,1.71,0,0,1,1.64-1.28,2.13,2.13,0,0,1,1.71.9,4,4,0,0,1,.49,3.24l-.33-.05a.89.89,0,0,1,.54-.69,1.36,1.36,0,0,1,.79-.09,1.62,1.62,0,0,1,1,.92,7.7,7.7,0,0,1,.55,2,9.48,9.48,0,0,1,.11,1.29,1.49,1.49,0,0,1,0,.44s-.05-.61-.27-1.69a8.14,8.14,0,0,0-.6-1.92,1.35,1.35,0,0,0-.85-.74c-.38-.08-.9.12-.93.52l-.34,0a3.72,3.72,0,0,0-.47-2.94,1.7,1.7,0,0,0-1.38-.71,1.27,1.27,0,0,0-1.22.93l-.44-.05a6.7,6.7,0,0,0-.17-2.32,2,2,0,0,0-1.6-1.43,1.9,1.9,0,0,0-1.73,1.38,5.92,5.92,0,0,0-.08,2.66l-.52,0c0-.37-.44-.7-.87-.71a1.92,1.92,0,0,0-1.24.62,1.29,1.29,0,0,0-.4.85c-.05.35-.07.72-.09,1.08,0,.72,0,1.45,0,2.16,0,.35,0,.74,0,1a1.09,1.09,0,0,0,.41.72,1.26,1.26,0,0,0,1.56.11l.46-.38,0,.59a1.31,1.31,0,0,0,1.28,1.36,1.45,1.45,0,0,0,1.42-1.16l.45.05a2,2,0,0,0,1.12,2.33,2.25,2.25,0,0,0,2.36-.46l.53-.52-.22.7a1.31,1.31,0,0,0,.52,1.36,1.48,1.48,0,0,0,1.35.25,2.57,2.57,0,0,0,1.66-1.6,5.2,5.2,0,0,0,.31-1.52A2.68,2.68,0,0,1,564.59,289.73Z" transform="translate(-393.57 -97.28)"/><path class="cls-3" d="M553.44,289.75a16.62,16.62,0,0,1,.41-3.43c.28-1.87.15-3.39.29-3.42a6.17,6.17,0,0,1,.23,3.49A9,9,0,0,1,553.44,289.75Z" transform="translate(-393.57 -97.28)"/><path class="cls-3" d="M558.27,282.79a9.66,9.66,0,0,1-.34,3.63,9,9,0,0,1-1.27,3.42,22.73,22.73,0,0,1,.76-3.54A19.46,19.46,0,0,1,558.27,282.79Z" transform="translate(-393.57 -97.28)"/><path class="cls-3" d="M561.92,285.12a8,8,0,0,1-1.49,6.79c-.13-.08.61-1.47,1-3.34S561.77,285.14,561.92,285.12Z" transform="translate(-393.57 -97.28)"/></g><g id="Virus"><circle class="cls-5" cx="160.44" cy="308.94" r="7.35"/><g class="cls-10"><path class="cls-11" d="M558.83,409c-.34-.18-.26-.92-.36-1.93,0-.12,0-.26,0-.39s0-.27-.07-.41a6.08,6.08,0,0,0-.21-.87,5.59,5.59,0,0,0-2.25-3.09,7.83,7.83,0,0,0-.76-.47l-.37-.19c-.12-.05-.24-.12-.36-.16-.93-.4-1.65-.56-1.72-.94a.33.33,0,0,1,.09-.28,1.32,1.32,0,0,1,.37-.29,3.63,3.63,0,0,1,1.57-.34l.54,0,.58.09a5.81,5.81,0,0,1,1.24.41,6,6,0,0,1,2.36,1.93,6.67,6.67,0,0,1,.76,1.41,7.17,7.17,0,0,1,.35,1.42,6.4,6.4,0,0,1,0,1.31c0,.2,0,.4-.09.58s-.09.36-.15.52a3.53,3.53,0,0,1-.8,1.39,1.31,1.31,0,0,1-.39.27A.39.39,0,0,1,558.83,409Z" transform="translate(-393.57 -97.28)"/></g><path class="cls-5" d="M549.88,396.5c.08.13-.18.45-.6.71a2.13,2.13,0,0,1-.4.2c-.25.1-.44.11-.5,0s.19-.45.6-.71S549.8,396.37,549.88,396.5Z" transform="translate(-393.57 -97.28)"/><path class="cls-5" d="M549.85,400.26a13.26,13.26,0,0,0-.94-2.88l.74-.45a10.93,10.93,0,0,0,2,2.38A13.24,13.24,0,0,0,549.85,400.26Z" transform="translate(-393.57 -97.28)"/><g class="cls-8"><path d="M548.92,397.4a2.8,2.8,0,0,0,.73-.47c.09.13.19.29.3.44a3,3,0,0,1-.94.2Z" transform="translate(-393.57 -97.28)"/></g><path class="cls-5" d="M546.3,400.78c.14.08.07.48-.16.92a2.75,2.75,0,0,1-.24.38c-.16.2-.33.31-.42.26s-.07-.48.16-.91S546.16,400.71,546.3,400.78Z" transform="translate(-393.57 -97.28)"/><path class="cls-5" d="M547.47,403.24a7,7,0,0,0-1.57-1.2l.42-.77a4.81,4.81,0,0,0,1.93.62A10.3,10.3,0,0,0,547.47,403.24Z" transform="translate(-393.57 -97.28)"/><g class="cls-8"><path d="M545.92,402.05a2,2,0,0,0,.4-.78,4.12,4.12,0,0,0,.47.23,2.85,2.85,0,0,1-.7.64Z" transform="translate(-393.57 -97.28)"/></g><path class="cls-5" d="M543.68,405c.16,0,.3.38.31.87a2.16,2.16,0,0,1,0,.45c-.05.26-.13.44-.24.44s-.3-.39-.31-.87S543.52,405,543.68,405Z" transform="translate(-393.57 -97.28)"/><path class="cls-5" d="M546.91,406.94a12.93,12.93,0,0,0-3-.64v-.87a10.5,10.5,0,0,0,3.06-.54A14.35,14.35,0,0,0,546.91,406.94Z" transform="translate(-393.57 -97.28)"/><g class="cls-8"><path d="M544,406.3a3,3,0,0,0,0-.87l.53,0a2.83,2.83,0,0,1-.31.92Z" transform="translate(-393.57 -97.28)"/></g><path class="cls-5" d="M545.47,410.2c.13-.08.45.19.71.6a2.6,2.6,0,0,1,.21.4c.09.25.1.44,0,.5s-.46-.19-.71-.6S545.34,410.29,545.47,410.2Z" transform="translate(-393.57 -97.28)"/><path class="cls-5" d="M548.19,410.43a7,7,0,0,0-1.84.75l-.45-.75a4.63,4.63,0,0,0,1.5-1.36A9.88,9.88,0,0,0,548.19,410.43Z" transform="translate(-393.57 -97.28)"/><g class="cls-8"><path d="M546.37,411.16a1.89,1.89,0,0,0-.47-.73,4.73,4.73,0,0,0,.44-.29,2.82,2.82,0,0,1,.2.93Z" transform="translate(-393.57 -97.28)"/></g><path class="cls-5" d="M549.49,415.64c0-.15.45-.18.92-.06a3.05,3.05,0,0,1,.43.15c.23.12.38.25.35.35s-.45.18-.92.06S549.45,415.79,549.49,415.64Z" transform="translate(-393.57 -97.28)"/><path class="cls-5" d="M552.23,413.07a12.63,12.63,0,0,0-1.43,2.67l-.85-.23a10.83,10.83,0,0,0,.34-3.1A13.27,13.27,0,0,0,552.23,413.07Z" transform="translate(-393.57 -97.28)"/><g class="cls-8"><path d="M550.8,415.72a2.74,2.74,0,0,0-.85-.21c0-.16.08-.34.12-.52a2.87,2.87,0,0,1,.79.54Z" transform="translate(-393.57 -97.28)"/></g><path class="cls-5" d="M555.21,415.54c0-.16.34-.35.82-.44a2.37,2.37,0,0,1,.45,0c.26,0,.45.06.46.16s-.34.35-.82.44S555.23,415.69,555.21,415.54Z" transform="translate(-393.57 -97.28)"/><path class="cls-5" d="M556.44,413.11a7,7,0,0,0,0,2l-.86.14a4.67,4.67,0,0,0-.69-1.91A9.82,9.82,0,0,0,556.44,413.11Z" transform="translate(-393.57 -97.28)"/><g class="cls-8"><path d="M556.44,415.07a1.9,1.9,0,0,0-.86.16,5.27,5.27,0,0,0-.1-.52,2.83,2.83,0,0,1,.93.17Z" transform="translate(-393.57 -97.28)"/></g><path class="cls-5" d="M561.41,413.58c-.12-.1,0-.49.34-.87a2.42,2.42,0,0,1,.32-.32c.2-.17.38-.24.46-.18s0,.49-.34.87S561.54,413.68,561.41,413.58Z" transform="translate(-393.57 -97.28)"/><path class="cls-5" d="M560.23,410a12.84,12.84,0,0,0,1.82,2.42l-.56.67a10.56,10.56,0,0,0-2.67-1.6A13.74,13.74,0,0,0,560.23,410Z" transform="translate(-393.57 -97.28)"/><g class="cls-8"><path d="M562,412.41a3,3,0,0,0-.55.69l-.42-.32a2.71,2.71,0,0,1,.83-.49Z" transform="translate(-393.57 -97.28)"/></g><g class="cls-8"><path d="M550.87,407.27c0,.57-.32,1-.7,1s-.69-.46-.69-1,.31-1,.69-1S550.87,406.7,550.87,407.27Z" transform="translate(-393.57 -97.28)"/></g><path class="cls-5" d="M550.6,406.69c0,.57-.31,1-.69,1s-.69-.46-.69-1,.31-1,.69-1S550.6,406.12,550.6,406.69Z" transform="translate(-393.57 -97.28)"/><g class="cls-10"><path class="cls-11" d="M550.6,406.69c0,.57-.31,1-.69,1s-.69-.46-.69-1,.31-1,.69-1S550.6,406.12,550.6,406.69Z" transform="translate(-393.57 -97.28)"/></g><g class="cls-8"><path d="M550.59,401.35c.5-.26,1-.2,1.23.13s-.08.83-.59,1.1-1.05.21-1.23-.13S550.08,401.62,550.59,401.35Z" transform="translate(-393.57 -97.28)"/></g><path class="cls-5" d="M550.28,400.81c.5-.26,1.06-.21,1.24.13s-.09.83-.59,1.1-1.06.21-1.24-.13S549.78,401.08,550.28,400.81Z" transform="translate(-393.57 -97.28)"/><g class="cls-10"><path class="cls-11" d="M550.28,400.81c.5-.26,1.06-.21,1.24.13s-.09.83-.59,1.1-1.06.21-1.24-.13S549.78,401.08,550.28,400.81Z" transform="translate(-393.57 -97.28)"/></g><g class="cls-8"><path d="M552.9,410.37a.68.68,0,1,1-.67-.68A.68.68,0,0,1,552.9,410.37Z" transform="translate(-393.57 -97.28)"/></g><path class="cls-5" d="M552.9,410a.68.68,0,1,1-.67-.68A.67.67,0,0,1,552.9,410Z" transform="translate(-393.57 -97.28)"/><g class="cls-8"><path class="cls-11" d="M552.9,410a.68.68,0,1,1-.67-.68A.67.67,0,0,1,552.9,410Z" transform="translate(-393.57 -97.28)"/></g><g class="cls-8"><path d="M557.41,404.34a.84.84,0,1,1,0-1.18A.84.84,0,0,1,557.41,404.34Z" transform="translate(-393.57 -97.28)"/></g><path class="cls-5" d="M557.71,404a.84.84,0,1,1-.05-1.18A.84.84,0,0,1,557.71,404Z" transform="translate(-393.57 -97.28)"/><g class="cls-8"><path class="cls-11" d="M557.71,404a.84.84,0,1,1-.05-1.18A.84.84,0,0,1,557.71,404Z" transform="translate(-393.57 -97.28)"/></g><g class="cls-8"><path d="M556.36,411a.5.5,0,1,1-1,0,.5.5,0,0,1,1,0Z" transform="translate(-393.57 -97.28)"/></g><path class="cls-5" d="M556.36,410.77a.5.5,0,1,1-.5-.49A.5.5,0,0,1,556.36,410.77Z" transform="translate(-393.57 -97.28)"/><g class="cls-8"><path class="cls-11" d="M556.36,410.77a.5.5,0,1,1-.5-.49A.5.5,0,0,1,556.36,410.77Z" transform="translate(-393.57 -97.28)"/></g><path class="cls-5" d="M564.52,407.28c-.16,0-.3-.39-.31-.87a1.55,1.55,0,0,1,0-.44c0-.26.12-.43.23-.43s.29.38.3.86S564.67,407.27,564.52,407.28Z" transform="translate(-393.57 -97.28)"/><path class="cls-5" d="M561.33,405.38a12.46,12.46,0,0,0,2.92.62v.87a10.59,10.59,0,0,0-3,.53A13.67,13.67,0,0,0,561.33,405.38Z" transform="translate(-393.57 -97.28)"/><g class="cls-8"><path d="M564.23,406a2.88,2.88,0,0,0,0,.86l-.52,0a2.94,2.94,0,0,1,.3-.9Z" transform="translate(-393.57 -97.28)"/></g><path class="cls-5" d="M562.64,402.09c-.13.08-.44-.18-.7-.59a1.66,1.66,0,0,1-.2-.4c-.1-.24-.11-.43,0-.49s.44.18.7.59S562.77,402,562.64,402.09Z" transform="translate(-393.57 -97.28)"/><path class="cls-5" d="M560,401.87a7.32,7.32,0,0,0,1.81-.74l.45.73a4.74,4.74,0,0,0-1.49,1.34A9.79,9.79,0,0,0,560,401.87Z" transform="translate(-393.57 -97.28)"/><g class="cls-8"><path d="M561.75,401.14a1.81,1.81,0,0,0,.47.72c-.14.09-.29.18-.44.29a2.88,2.88,0,0,1-.19-.92Z" transform="translate(-393.57 -97.28)"/></g><path class="cls-5" d="M560.33,397.75c-.07.13-.48.06-.9-.17a2.17,2.17,0,0,1-.37-.25c-.2-.16-.31-.32-.26-.41s.48-.07.9.16S560.4,397.61,560.33,397.75Z" transform="translate(-393.57 -97.28)"/><path class="cls-5" d="M557.09,399.55a13,13,0,0,0,2-2.21l.75.42a10.65,10.65,0,0,0-1.07,2.89A14.3,14.3,0,0,0,557.09,399.55Z" transform="translate(-393.57 -97.28)"/><g class="cls-8"><path d="M559.09,397.36a2.81,2.81,0,0,0,.76.4l-.23.47a2.77,2.77,0,0,1-.63-.71Z" transform="translate(-393.57 -97.28)"/></g><path class="cls-5" d="M555,396.69c0,.16-.38.3-.86.32a2.94,2.94,0,0,1-.44,0c-.26,0-.43-.12-.44-.23s.38-.29.86-.31S555,396.54,555,396.69Z" transform="translate(-393.57 -97.28)"/><path class="cls-5" d="M553.47,398.9a7,7,0,0,0,.27-1.93l.87,0a4.7,4.7,0,0,0,.41,2A10.17,10.17,0,0,0,553.47,398.9Z" transform="translate(-393.57 -97.28)"/><g class="cls-8"><path d="M553.74,397a2,2,0,0,0,.87,0c0,.16,0,.33,0,.52a2.64,2.64,0,0,1-.89-.3Z" transform="translate(-393.57 -97.28)"/></g><g class="cls-8"><path d="M558.17,409.28c-.26.51-.75.77-1.09.59s-.4-.73-.13-1.24.75-.76,1.09-.58S558.44,408.78,558.17,409.28Z" transform="translate(-393.57 -97.28)"/></g><path class="cls-5" d="M558.47,409c-.27.51-.76.77-1.09.59s-.4-.73-.14-1.23.76-.77,1.1-.59S558.74,408.5,558.47,409Z" transform="translate(-393.57 -97.28)"/><g class="cls-8"><path class="cls-11" d="M558.47,409c-.27.51-.76.77-1.09.59s-.4-.73-.14-1.23.76-.77,1.1-.59S558.74,408.5,558.47,409Z" transform="translate(-393.57 -97.28)"/></g><g class="cls-8"><path d="M555,406a1,1,0,1,1-1-1A1,1,0,0,1,555,406Z" transform="translate(-393.57 -97.28)"/></g><path class="cls-5" d="M555,405.4a1,1,0,1,1-1-1A1,1,0,0,1,555,405.4Z" transform="translate(-393.57 -97.28)"/><g class="cls-10"><path class="cls-11" d="M555,405.4a1,1,0,1,1-1-1A1,1,0,0,1,555,405.4Z" transform="translate(-393.57 -97.28)"/></g><g class="cls-10"><path d="M557.71,411.64c0,.07-.05.24-.29.45a4.32,4.32,0,0,1-1.16.67,5.81,5.81,0,0,1-.89.29,6.87,6.87,0,0,1-1.07.16,6.94,6.94,0,0,1-2.47-.27,6.79,6.79,0,0,1-2.21-1.14,7.25,7.25,0,0,1-.8-.73,5.77,5.77,0,0,1-.58-.73,4.59,4.59,0,0,1-.6-1.21c-.08-.31-.07-.49,0-.53s.57.45,1.3,1.13c.18.18.39.35.62.54s.48.36.75.53a7.63,7.63,0,0,0,1.89.87,7.72,7.72,0,0,0,2.06.32,9.12,9.12,0,0,0,.92,0,6.4,6.4,0,0,0,.81-.1C557,411.7,557.62,411.47,557.71,411.64Z" transform="translate(-393.57 -97.28)"/></g><g class="cls-10"><path d="M547.55,406a.65.65,0,0,1,.69.6.66.66,0,1,1-.69-.6Z" transform="translate(-393.57 -97.28)"/></g><path class="cls-5" d="M707.32,411.1a19.12,19.12,0,0,0,4.87-5.75c2.07-.36,7.89,1.41,7.89,1.41l.73-2.14c-2.29-.8-6.16-3.73-6.71-4.15a18.91,18.91,0,0,0,.47-5.92c1.53-1.35,4.92-2,4.92-2l-.45-2.22a19.26,19.26,0,0,1-5.21.2,19.36,19.36,0,0,0-1.72-4.09c.67-1.95,5.2-6.16,5.2-6.16l-1.48-1.71c-2,1.7-6.92,3.65-7,3.67a19.32,19.32,0,0,0-4.59-3.36c-.35-2,.78-5.29.78-5.29l-2.14-.73a19,19,0,0,1-2.39,4.53,19.3,19.3,0,0,0-4.95-.72c-1.35-1.69-2.74-7.57-2.74-7.57l-2.25.45c.45,2.3-.09,6.76-.22,7.75a19.45,19.45,0,0,0-5.81,2.64,13.67,13.67,0,0,1-3.85-3.09L679,378.38a18.89,18.89,0,0,1,2.61,4,19.22,19.22,0,0,0-3.11,4.12c-2.43,0-7.41-1.47-7.41-1.47l-.74,2.17a30.45,30.45,0,0,1,6.29,3.85,19.16,19.16,0,0,0-.6,6.36,13.65,13.65,0,0,1-4.57,1.73l.46,2.25a18.84,18.84,0,0,1,4.76-.25,19.42,19.42,0,0,0,3.8,7.23c-.49,2.27-3.54,7-3.54,7l1.88,1.32a29.74,29.74,0,0,1,5.33-4.89,18.2,18.2,0,0,0,7.09,3.11,13.85,13.85,0,0,1-.14,4.8l2.26.42a19.12,19.12,0,0,1,1.71-4.79,19.34,19.34,0,0,0,7.9-1.59c1.86,1.54,4.65,6,4.65,6l2-1.15C708.43,416.46,707.49,412,707.32,411.1Zm-6.21-33.52-.07,0Z" transform="translate(-393.57 -97.28)"/><g class="cls-10"><path class="cls-11" d="M704.77,407.07c-.67-.75.18-2.52.84-5.09.1-.31.15-.66.24-1s.13-.71.21-1.07a21.5,21.5,0,0,0,.25-2.34,16.23,16.23,0,0,0-.55-5.08,15.75,15.75,0,0,0-2.24-4.58,20.2,20.2,0,0,0-1.46-1.85c-.26-.27-.5-.55-.76-.8s-.48-.5-.74-.71c-1.92-1.83-3.58-2.87-3.42-3.86a1,1,0,0,1,.48-.61,3.14,3.14,0,0,1,1.19-.38,9,9,0,0,1,4.18.56,13.08,13.08,0,0,1,1.31.55c.45.21.89.47,1.36.74a15.93,15.93,0,0,1,5.08,5.16,15.5,15.5,0,0,1,2.32,8,15.76,15.76,0,0,1-1.55,7.07,14.37,14.37,0,0,1-.75,1.35,11.38,11.38,0,0,1-.82,1.16,9.06,9.06,0,0,1-3.23,2.71,3.08,3.08,0,0,1-1.21.31A.93.93,0,0,1,704.77,407.07Z" transform="translate(-393.57 -97.28)"/></g><path class="cls-5" d="M693.79,368.25c.09.41-.85,1-2.1,1.22a6.8,6.8,0,0,1-1.18.15c-.7,0-1.19-.13-1.25-.4s.86-1,2.11-1.22S693.71,367.85,693.79,368.25Z" transform="translate(-393.57 -97.28)"/><g class="cls-8"><path d="M690.61,369.61a7.16,7.16,0,0,0,2.24-.5c.1.41.21.89.34,1.36a7.67,7.67,0,0,1-2.51-.36Z" transform="translate(-393.57 -97.28)"/></g><path class="cls-5" d="M681.11,375.64c.28.31-.26,1.25-1.2,2.12a7,7,0,0,1-.95.72c-.59.36-1.09.49-1.27.29s.26-1.26,1.2-2.12S680.83,375.33,681.11,375.64Z" transform="translate(-393.57 -97.28)"/><g class="cls-8"><path d="M679.05,378.43a5,5,0,0,0,1.67-1.57c.28.32.61.66,1,1a7.41,7.41,0,0,1-2.31.95Z" transform="translate(-393.57 -97.28)"/></g><path class="cls-5" d="M670.84,383.76c.39.13.39,1.22,0,2.44a6.15,6.15,0,0,1-.47,1.09c-.33.61-.71,1-1,.88s-.39-1.22,0-2.44S670.45,383.63,670.84,383.76Z" transform="translate(-393.57 -97.28)"/><g class="cls-8"><path d="M670.41,387.2a7.4,7.4,0,0,0,.69-2.18l1.35.38a7.55,7.55,0,0,1-1.57,2Z" transform="translate(-393.57 -97.28)"/></g><path class="cls-5" d="M670.62,398.19c.41-.09,1,.85,1.23,2.1a5.88,5.88,0,0,1,.14,1.18c0,.69-.12,1.19-.39,1.25s-1-.86-1.22-2.11S670.21,398.28,670.62,398.19Z" transform="translate(-393.57 -97.28)"/><g class="cls-8"><path d="M672,401.37a5.08,5.08,0,0,0-.51-2.24,13.69,13.69,0,0,0,1.35-.32,7.45,7.45,0,0,1-.35,2.48Z" transform="translate(-393.57 -97.28)"/></g><path class="cls-5" d="M675.69,415.23c.23-.35,1.28,0,2.33.68a5.62,5.62,0,0,1,.92.75c.49.49.73.95.58,1.18s-1.29,0-2.34-.69S675.45,415.57,675.69,415.23Z" transform="translate(-393.57 -97.28)"/><g class="cls-8"><path d="M678.87,416.59a7.18,7.18,0,0,0-1.91-1.27c.23-.36.49-.77.74-1.19a7.64,7.64,0,0,1,1.48,2.07Z" transform="translate(-393.57 -97.28)"/></g><path class="cls-5" d="M689.92,420.1c.07-.41,1.15-.57,2.41-.34a6.39,6.39,0,0,1,1.15.3c.65.25,1,.57,1,.84s-1.16.56-2.42.34S689.85,420.51,689.92,420.1Z" transform="translate(-393.57 -97.28)"/><g class="cls-8"><path d="M693.39,420a5,5,0,0,0-2.27-.37c.09-.42.16-.88.22-1.37a7.39,7.39,0,0,1,2.15,1.25Z" transform="translate(-393.57 -97.28)"/></g><path class="cls-5" d="M707,420.8c-.21-.35.51-1.18,1.61-1.83a6.14,6.14,0,0,1,1.07-.52c.65-.24,1.16-.26,1.3,0s-.5,1.18-1.6,1.84S707.24,421.16,707,420.8Z" transform="translate(-393.57 -97.28)"/><g class="cls-8"><path d="M709.6,418.48a7.5,7.5,0,0,0-2,1.2c-.22-.35-.49-.76-.76-1.17a7.53,7.53,0,0,1,2.49-.47Z" transform="translate(-393.57 -97.28)"/></g><g class="cls-8"><path d="M686.58,395.77c-.5,1.41-1.68,2.27-2.63,1.93s-1.3-1.76-.79-3.17,1.69-2.27,2.63-1.92S687.09,394.37,686.58,395.77Z" transform="translate(-393.57 -97.28)"/></g><path class="cls-5" d="M686.46,394.1c-.51,1.41-1.69,2.27-2.63,1.93s-1.3-1.76-.79-3.17,1.69-2.27,2.63-1.93S687,392.69,686.46,394.1Z" transform="translate(-393.57 -97.28)"/><g class="cls-10"><path class="cls-11" d="M686.46,394.1c-.51,1.41-1.69,2.27-2.63,1.93s-1.3-1.76-.79-3.17,1.69-2.27,2.63-1.93S687,392.69,686.46,394.1Z" transform="translate(-393.57 -97.28)"/></g><g class="cls-8"><path d="M691.19,380.89c1.48-.21,2.8.43,2.94,1.42s-1,2-2.43,2.19-2.8-.43-2.94-1.43S689.71,381.1,691.19,380.89Z" transform="translate(-393.57 -97.28)"/></g><path class="cls-5" d="M690.92,379.28c1.48-.21,2.8.43,2.94,1.42s-1,2-2.43,2.19-2.8-.43-2.94-1.43S689.44,379.49,690.92,379.28Z" transform="translate(-393.57 -97.28)"/><g class="cls-10"><path class="cls-11" d="M690.92,379.28c1.48-.21,2.8.43,2.94,1.42s-1,2-2.43,2.19-2.8-.43-2.94-1.43S689.44,379.49,690.92,379.28Z" transform="translate(-393.57 -97.28)"/></g><g class="cls-8"><path d="M688.85,405.25a1.78,1.78,0,1,1-1.07-2.28A1.77,1.77,0,0,1,688.85,405.25Z" transform="translate(-393.57 -97.28)"/></g><path class="cls-5" d="M689.18,404.36a1.78,1.78,0,1,1-1.07-2.29A1.79,1.79,0,0,1,689.18,404.36Z" transform="translate(-393.57 -97.28)"/><g class="cls-8"><path class="cls-11" d="M689.18,404.36a1.78,1.78,0,1,1-1.07-2.29A1.79,1.79,0,0,1,689.18,404.36Z" transform="translate(-393.57 -97.28)"/></g><g class="cls-8"><path d="M705.38,394.38a2.19,2.19,0,1,1,.94-3A2.18,2.18,0,0,1,705.38,394.38Z" transform="translate(-393.57 -97.28)"/></g><path class="cls-5" d="M706.43,393.84a2.19,2.19,0,1,1,.93-3A2.19,2.19,0,0,1,706.43,393.84Z" transform="translate(-393.57 -97.28)"/><g class="cls-8"><path class="cls-11" d="M706.43,393.84a2.19,2.19,0,1,1,.93-3A2.19,2.19,0,0,1,706.43,393.84Z" transform="translate(-393.57 -97.28)"/></g><g class="cls-8"><path d="M696.79,410a1.29,1.29,0,0,1-1.67.78,1.31,1.31,0,0,1-.79-1.67,1.32,1.32,0,0,1,1.68-.79A1.31,1.31,0,0,1,696.79,410Z" transform="translate(-393.57 -97.28)"/></g><path class="cls-5" d="M697,409.34a1.31,1.31,0,0,1-1.67.79,1.32,1.32,0,0,1-.79-1.68,1.31,1.31,0,0,1,1.68-.78A1.29,1.29,0,0,1,697,409.34Z" transform="translate(-393.57 -97.28)"/><g class="cls-8"><path class="cls-11" d="M697,409.34a1.31,1.31,0,0,1-1.67.79,1.32,1.32,0,0,1-.79-1.68,1.31,1.31,0,0,1,1.68-.78A1.29,1.29,0,0,1,697,409.34Z" transform="translate(-393.57 -97.28)"/></g><path class="cls-5" d="M720.34,408c-.39-.13-.39-1.21,0-2.41a6.38,6.38,0,0,1,.46-1.08c.33-.59.7-.94,1-.86s.38,1.21,0,2.41S720.73,408.13,720.34,408Z" transform="translate(-393.57 -97.28)"/><g class="cls-8"><path d="M720.76,404.6a7.42,7.42,0,0,0-.68,2.16l-1.33-.38a7.41,7.41,0,0,1,1.55-2Z" transform="translate(-393.57 -97.28)"/></g><path class="cls-5" d="M720.34,393.5c-.4.08-.94-.85-1.21-2.08a5.71,5.71,0,0,1-.14-1.17c0-.68.12-1.17.38-1.23s1,.85,1.22,2.08S720.74,393.41,720.34,393.5Z" transform="translate(-393.57 -97.28)"/><g class="cls-8"><path d="M719,390.35a5,5,0,0,0,.5,2.21c-.41.08-.86.19-1.33.32a7.38,7.38,0,0,1,.34-2.44Z" transform="translate(-393.57 -97.28)"/></g><path class="cls-5" d="M718.51,380.69c-.3.27-1.23-.27-2.07-1.22a6,6,0,0,1-.7-.94c-.35-.59-.47-1.08-.26-1.26s1.23.27,2.07,1.22S718.82,380.42,718.51,380.69Z" transform="translate(-393.57 -97.28)"/><g class="cls-8"><path d="M715.79,378.62a7.39,7.39,0,0,0,1.52,1.67c-.3.29-.65.62-1,1a7.49,7.49,0,0,1-.92-2.33Z" transform="translate(-393.57 -97.28)"/></g><path class="cls-5" d="M706.31,373.33c-.13.39-1.2.39-2.41,0a6.38,6.38,0,0,1-1.08-.46c-.59-.33-1-.69-.86-.95s1.2-.39,2.4,0S706.44,372.94,706.31,373.33Z" transform="translate(-393.57 -97.28)"/><g class="cls-8"><path d="M702.91,372.92a5.1,5.1,0,0,0,2.16.68c-.14.4-.27.84-.39,1.3a7.27,7.27,0,0,1-1.94-1.52Z" transform="translate(-393.57 -97.28)"/></g><g class="cls-8"><path d="M702.86,407.28c-1.11,1-2.56,1.22-3.24.47s-.32-2.16.79-3.17,2.55-1.21,3.23-.47S704,406.28,702.86,407.28Z" transform="translate(-393.57 -97.28)"/></g><path class="cls-5" d="M703.84,406.86c-1.11,1-2.56,1.21-3.23.47s-.33-2.17.78-3.17,2.56-1.22,3.23-.47S705,405.85,703.84,406.86Z" transform="translate(-393.57 -97.28)"/><g class="cls-8"><path class="cls-11" d="M703.84,406.86c-1.11,1-2.56,1.21-3.23.47s-.33-2.17.78-3.17,2.56-1.22,3.23-.47S705,405.85,703.84,406.86Z" transform="translate(-393.57 -97.28)"/></g><g class="cls-8"><path d="M698.06,396.36a2.71,2.71,0,1,1-1.63-3.46A2.71,2.71,0,0,1,698.06,396.36Z" transform="translate(-393.57 -97.28)"/></g><path class="cls-5" d="M698.6,394.88a2.71,2.71,0,1,1-1.63-3.47A2.71,2.71,0,0,1,698.6,394.88Z" transform="translate(-393.57 -97.28)"/><g class="cls-10"><path class="cls-11" d="M698.6,394.88a2.71,2.71,0,1,1-1.63-3.47A2.71,2.71,0,0,1,698.6,394.88Z" transform="translate(-393.57 -97.28)"/></g><g class="cls-10"><path d="M699.61,412.69c0,.23-.34.54-1.13.85a11.52,11.52,0,0,1-3.47.63,16.18,16.18,0,0,1-2.46-.09,18,18,0,0,1-8.65-3.44,18.17,18.17,0,0,1-4.45-4.8,19.06,19.06,0,0,1-1.32-2.51,17,17,0,0,1-.79-2.34,11.3,11.3,0,0,1-.38-3.5c.06-.84.25-1.3.48-1.33.51-.05,1,1.63,2.21,4,.3.59.65,1.22,1.05,1.87s.86,1.33,1.38,2a19.91,19.91,0,0,0,8.69,6.47,23,23,0,0,0,2.31.76c.74.2,1.44.36,2.09.47C697.77,412.19,699.52,412.19,699.61,412.69Z" transform="translate(-393.57 -97.28)"/></g><g class="cls-10"><path d="M679.53,389.66a1.65,1.65,0,1,1-2.15,1.06A1.7,1.7,0,0,1,679.53,389.66Z" transform="translate(-393.57 -97.28)"/></g></g></svg>