<svg xmlns="http://www.w3.org/2000/svg" viewBox="0 0 667.85 370.45"><defs><style>.cls-1{fill:#d4eeff;}.cls-2{fill:#acd4f5;}.cls-3{fill:#cbe4f4;}.cls-4{fill:#a3cce8;}.cls-5{opacity:0.2;}.cls-6{fill:none;}</style></defs><title>Corona-bg</title><g id="Background_Complete" data-name="Background Complete"><path class="cls-1" d="M659.72,260.48c5.63-5,3.11-15.43-3.56-19s-15.26-1.2-20.95,3.76a18.55,18.55,0,1,0-35.65-2.42l2,2.12c-8.85.4-16.36,9.31-15.24,18.1s10.6,15.54,19.27,13.72a16.9,16.9,0,0,0,32.06,6,16.31,16.31,0,0,0,21.48-.88C664.68,276.35,665,266.38,659.72,260.48Z" transform="translate(-57.07 -0.22)"/><path class="cls-1" d="M670,351.7a8.53,8.53,0,0,0-6.92-1.35A10.4,10.4,0,0,0,652.66,360c-.17,5.51,4.83,10.59,10.34,10.64a11.27,11.27,0,0,0,10.9-10.28A10.05,10.05,0,0,0,670,351.7Z" transform="translate(-57.07 -0.22)"/><path class="cls-1" d="M180.57,162.71c-2-8.33-9.52-15.31-18.08-15.78s-17.17,6.36-17.79,14.91a13.6,13.6,0,0,0-26.81,1.95l-1.64-4.59a25,25,0,0,0-20.62,38.62c-10,.68-17.57,11.58-15.77,21.43s11.62,17.19,21.63,17.28,19.48-6.3,24.29-15.08c6.63,6,18,5.7,24.3-.65s6.52-17.72.47-24.31c8.55-.62,17.06-4,23-10.14S182.59,171,180.57,162.71Z" transform="translate(-57.07 -0.22)"/><path class="cls-1" d="M221.25,207.71a11.6,11.6,0,0,0-7.93,12.78,11.15,11.15,0,0,0,12.12,8.7c5.43-.82,8.53-6.48,8.68-12,.14-5.29-4.88-10.89-12.87-9.51" transform="translate(-57.07 -0.22)"/><path class="cls-2" d="M679.26,69.21a6.55,6.55,0,0,0-.22-2.63A10.24,10.24,0,0,1,681.33,65l-.35-.71a12,12,0,0,1-2.67.61l.14.26A6.73,6.73,0,0,0,674.36,62a9.94,9.94,0,0,1-.23-2.79l-.79-.06a11.27,11.27,0,0,1-.81,2.61,6.37,6.37,0,0,0-2,.31,4.77,4.77,0,0,1-1.11-1.5l-.71.35a6.63,6.63,0,0,1,.53,1.7,6.66,6.66,0,0,0-1.4,1,10.52,10.52,0,0,1-2.54-1.19l-.44.66a11,11,0,0,1,1.85,2,6.76,6.76,0,0,0-.78,2.09,4.73,4.73,0,0,1-1.7.18l0,.79a6.67,6.67,0,0,1,1.62.34,6.45,6.45,0,0,0,.25,1.79,12.3,12.3,0,0,1-2.18,1.45l.35.72a10.63,10.63,0,0,1,2.49-.6,6.66,6.66,0,0,0,1.43,1.72,4.71,4.71,0,0,1-.7,1.55l.66.44a6.57,6.57,0,0,1,1.11-1.23,6.91,6.91,0,0,0,2.73.85,11.84,11.84,0,0,1,.84,2.58l.78-.14a10.71,10.71,0,0,1,.11-2.51,6.55,6.55,0,0,0,2.52-1,4.77,4.77,0,0,1,1.14,1.21l.66-.45a6,6,0,0,1-.75-1.59,6.69,6.69,0,0,0,1.55-2.35,12.53,12.53,0,0,1,2.62.33l.2-.77A11.16,11.16,0,0,1,679.26,69.21Zm-9.26-7-.23.1Z" transform="translate(-57.07 -0.22)"/><path class="cls-2" d="M677.69,61.64,677,61.2a7,7,0,0,1-1.28,1.37,14,14,0,0,1,1.22.76A4.36,4.36,0,0,1,677.69,61.64Z" transform="translate(-57.07 -0.22)"/><path class="cls-3" d="M677.63,68.84c-.35,0-.57-.66-1-1.46l-.19-.3-.21-.32a7.3,7.3,0,0,0-.52-.64A5.61,5.61,0,0,0,674.29,65a5.85,5.85,0,0,0-1.69-.58,8,8,0,0,0-.81-.09l-.38,0h-.36c-.93,0-1.59.18-1.79-.11a.34.34,0,0,1,0-.27,1.17,1.17,0,0,1,.2-.38,3.07,3.07,0,0,1,1.17-.89,3.17,3.17,0,0,1,.46-.19,3.8,3.8,0,0,1,.51-.15,5.62,5.62,0,0,1,1.19-.14,5.27,5.27,0,0,1,1.34.16,5.91,5.91,0,0,1,1.37.52,5.78,5.78,0,0,1,1.17.88,5.39,5.39,0,0,1,.85,1,5.59,5.59,0,0,1,.52,1.08c0,.18.11.35.14.52a3,3,0,0,1,.09.49,3.17,3.17,0,0,1-.13,1.46,1.19,1.19,0,0,1-.22.38A.3.3,0,0,1,677.63,68.84Z" transform="translate(-57.07 -0.22)"/><path class="cls-2" d="M665.37,62c.12.08,0,.45-.22.82a2.37,2.37,0,0,1-.26.33c-.17.17-.32.26-.4.21s0-.45.22-.82S665.24,61.91,665.37,62Z" transform="translate(-57.07 -0.22)"/><path class="cls-4" d="M664.92,63.11a2.69,2.69,0,0,0,.42-.68l.42.25a2.65,2.65,0,0,1-.7.53Z" transform="translate(-57.07 -0.22)"/><path class="cls-2" d="M664.06,66.93c.14,0,.25.37.23.82a2.37,2.37,0,0,1-.06.41c-.06.23-.15.39-.24.38s-.25-.37-.23-.82S663.92,66.92,664.06,66.93Z" transform="translate(-57.07 -0.22)"/><path class="cls-4" d="M664.24,68.12a1.82,1.82,0,0,0,0-.79h.48a2.5,2.5,0,0,1-.34.8Z" transform="translate(-57.07 -0.22)"/><path class="cls-2" d="M663.53,71.46c.13-.06.4.21.6.6a1.93,1.93,0,0,1,.15.39c.07.23.07.41,0,.45s-.4-.2-.6-.6S663.4,71.53,663.53,71.46Z" transform="translate(-57.07 -0.22)"/><path class="cls-4" d="M664.27,72.41a2.57,2.57,0,0,0-.36-.71l.42-.23a2.67,2.67,0,0,1,.11.87Z" transform="translate(-57.07 -0.22)"/><path class="cls-2" d="M667,75.07c.08-.12.45,0,.82.21a2.37,2.37,0,0,1,.33.26c.17.17.26.32.21.4s-.45,0-.82-.21S667,75.19,667,75.07Z" transform="translate(-57.07 -0.22)"/><path class="cls-4" d="M668.16,75.51a1.8,1.8,0,0,0-.68-.42c.08-.12.17-.26.25-.41a2.38,2.38,0,0,1,.52.69Z" transform="translate(-57.07 -0.22)"/><path class="cls-2" d="M672.48,78c0-.14.31-.33.74-.41a2.12,2.12,0,0,1,.42,0c.24,0,.41.05.43.15s-.31.32-.75.4S672.51,78.16,672.48,78Z" transform="translate(-57.07 -0.22)"/><path class="cls-4" d="M673.6,77.57a2.62,2.62,0,0,0-.78.16c0-.15-.07-.31-.11-.48a2.56,2.56,0,0,1,.87.15Z" transform="translate(-57.07 -0.22)"/><path class="cls-2" d="M677.19,75.71c-.09-.12.14-.42.51-.68a1.9,1.9,0,0,1,.35-.21c.22-.09.4-.12.46,0s-.15.42-.51.68S677.27,75.83,677.19,75.71Z" transform="translate(-57.07 -0.22)"/><path class="cls-4" d="M678,74.84a1.75,1.75,0,0,0-.65.46c-.08-.12-.18-.25-.28-.38a2.67,2.67,0,0,1,.84-.23Z" transform="translate(-57.07 -0.22)"/><path class="cls-2" d="M681.57,71.67c-.14,0-.16-.41-.06-.85a2.93,2.93,0,0,1,.14-.39c.1-.22.22-.35.32-.33s.16.42,0,.85S681.71,71.71,681.57,71.67Z" transform="translate(-57.07 -0.22)"/><path class="cls-4" d="M681.64,70.46a2.65,2.65,0,0,0-.19.78l-.48-.1a2.75,2.75,0,0,1,.5-.73Z" transform="translate(-57.07 -0.22)"/><path class="cls-4" d="M670.37,70.54c.22.47.14,1-.17,1.12s-.76-.11-1-.58-.14-1,.18-1.12S670.15,70.07,670.37,70.54Z" transform="translate(-57.07 -0.22)"/><path class="cls-1" d="M669.93,70.16c.22.47.14,1-.18,1.12s-.75-.11-1-.58-.14-1,.17-1.13S669.71,69.69,669.93,70.16Z" transform="translate(-57.07 -0.22)"/><path class="cls-4" d="M667.84,65.74c.31-.42.79-.59,1.07-.37s.26.72-.06,1.13-.79.58-1.07.37S667.52,66.15,667.84,65.74Z" transform="translate(-57.07 -0.22)"/><path class="cls-1" d="M667.37,65.41c.32-.42.8-.59,1.08-.37s.25.72-.06,1.13-.8.58-1.08.37S667.06,65.82,667.37,65.41Z" transform="translate(-57.07 -0.22)"/><path class="cls-4" d="M673.27,72.32a.62.62,0,0,1-1.13.52.61.61,0,0,1,.3-.82A.62.62,0,0,1,673.27,72.32Z" transform="translate(-57.07 -0.22)"/><path class="cls-1" d="M673.12,72a.61.61,0,0,1-.29.82.62.62,0,0,1-.83-.3.61.61,0,0,1,.3-.82A.6.6,0,0,1,673.12,72Z" transform="translate(-57.07 -0.22)"/><path class="cls-4" d="M674.66,65.57a.77.77,0,1,1-.5-1A.76.76,0,0,1,674.66,65.57Z" transform="translate(-57.07 -0.22)"/><path class="cls-1" d="M674.78,65.18a.77.77,0,1,1-.5-1A.75.75,0,0,1,674.78,65.18Z" transform="translate(-57.07 -0.22)"/><path class="cls-4" d="M676.39,71.53a.45.45,0,1,1-.82.39.46.46,0,0,1,.21-.61A.46.46,0,0,1,676.39,71.53Z" transform="translate(-57.07 -0.22)"/><path class="cls-1" d="M676.29,71.31a.45.45,0,0,1-.22.6.46.46,0,0,1-.61-.21.46.46,0,0,1,.83-.39Z" transform="translate(-57.07 -0.22)"/><path class="cls-2" d="M681.7,65.24c-.13.06-.4-.21-.59-.6a2.39,2.39,0,0,1-.16-.38c-.06-.23-.06-.4,0-.45s.39.2.59.6S681.82,65.17,681.7,65.24Z" transform="translate(-57.07 -0.22)"/><path class="cls-4" d="M681,64.29a2.74,2.74,0,0,0,.37.71l-.42.23a2.44,2.44,0,0,1-.1-.87Z" transform="translate(-57.07 -0.22)"/><path class="cls-2" d="M678.13,61.66c-.08.12-.44,0-.82-.21a3,3,0,0,1-.32-.25c-.17-.17-.26-.32-.21-.4s.45,0,.82.21S678.2,61.54,678.13,61.66Z" transform="translate(-57.07 -0.22)"/><path class="cls-4" d="M677,61.22a1.64,1.64,0,0,0,.67.42,3.18,3.18,0,0,0-.25.41,2.57,2.57,0,0,1-.52-.69Z" transform="translate(-57.07 -0.22)"/><path class="cls-2" d="M674.52,59c0,.14-.37.24-.81.21a2.37,2.37,0,0,1-.41-.06c-.23-.06-.38-.15-.37-.25s.37-.23.81-.21S674.53,58.82,674.52,59Z" transform="translate(-57.07 -0.22)"/><path class="cls-4" d="M673.34,59.12a2.81,2.81,0,0,0,.79,0c0,.14,0,.31,0,.48a2.5,2.5,0,0,1-.8-.35Z" transform="translate(-57.07 -0.22)"/><path class="cls-2" d="M669.7,60.15c.07.13-.2.39-.59.59a3.52,3.52,0,0,1-.38.16c-.23.06-.41.06-.45,0s.2-.4.59-.6S669.64,60,669.7,60.15Z" transform="translate(-57.07 -0.22)"/><path class="cls-4" d="M668.76,60.89a1.74,1.74,0,0,0,.7-.37,3.55,3.55,0,0,0,.23.42,2.38,2.38,0,0,1-.86.1Z" transform="translate(-57.07 -0.22)"/><path class="cls-4" d="M677.21,69.37c0,.52-.33.93-.68.91s-.61-.45-.58-1,.33-.92.68-.91S677.24,68.85,677.21,69.37Z" transform="translate(-57.07 -0.22)"/><path class="cls-1" d="M677.35,69c0,.52-.33.93-.68.91s-.61-.45-.59-1,.33-.93.68-.91S677.38,68.5,677.35,69Z" transform="translate(-57.07 -0.22)"/><circle class="cls-4" cx="672.49" cy="68.26" r="0.94" transform="translate(41.87 425.73) rotate(-37.74)"/><path class="cls-1" d="M673.11,67.36a.94.94,0,1,1-1.71.8.94.94,0,0,1,1.71-.8Z" transform="translate(-57.07 -0.22)"/><path class="cls-4" d="M677.75,71.5c.07,0,0,.22-.07.48a4.13,4.13,0,0,1-.7,1,7.34,7.34,0,0,1-.63.58,5.85,5.85,0,0,1-.82.55,6.21,6.21,0,0,1-4.44.65,6.09,6.09,0,0,1-.94-.3,4.25,4.25,0,0,1-.77-.38,3.79,3.79,0,0,1-1-.77c-.19-.22-.26-.38-.21-.44s.65.15,1.53.44l.72.2c.26,0,.53.11.83.15a7.64,7.64,0,0,0,1.91,0,7.36,7.36,0,0,0,1.83-.54c.27-.12.52-.25.75-.38s.44-.27.63-.4C677.17,71.83,677.6,71.4,677.75,71.5Z" transform="translate(-57.07 -0.22)"/><g class="cls-5"><path class="cls-4" d="M667.12,70.77a.6.6,0,0,1,.81.23.59.59,0,0,1-.27.79.57.57,0,0,1-.8-.23A.59.59,0,0,1,667.12,70.77Z" transform="translate(-57.07 -0.22)"/></g><path class="cls-2" d="M476.69,145.85a9.58,9.58,0,0,0-.31-3.79,14.43,14.43,0,0,1,3.29-2.29l-.49-1a17.09,17.09,0,0,1-3.85.89c.06.09.12.22.2.37a9.68,9.68,0,0,0-5.91-4.63c-.45-.94-.33-4-.33-4l-1.14-.08A16.11,16.11,0,0,1,467,135a9.81,9.81,0,0,0-2.82.44,6.66,6.66,0,0,1-1.61-2.15l-1,.5a9.48,9.48,0,0,1,.76,2.45,9.92,9.92,0,0,0-2,1.51,15.19,15.19,0,0,1-3.65-1.71l-.64,1a15.58,15.58,0,0,1,2.68,2.83,9.52,9.52,0,0,0-1.14,3,6.84,6.84,0,0,1-2.45.25l-.07,1.15a9.41,9.41,0,0,1,2.34.49,9.56,9.56,0,0,0,.36,2.58,18.32,18.32,0,0,1-3.15,2.1l.5,1a15.39,15.39,0,0,1,3.6-.86,9.77,9.77,0,0,0,2.06,2.48,6.88,6.88,0,0,1-1,2.23l1,.63a10.17,10.17,0,0,1,1.6-1.78,9.52,9.52,0,0,0,3.93,1.23,16.65,16.65,0,0,1,1.21,3.72l1.13-.2a15.12,15.12,0,0,1,.16-3.62,9.51,9.51,0,0,0,2.48-.78,10.77,10.77,0,0,0,1.16-.64,7,7,0,0,1,1.64,1.75l.95-.65a10.07,10.07,0,0,1-1.09-2.3,9.81,9.81,0,0,0,2.25-3.39,18.11,18.11,0,0,1,3.77.48l.3-1.12A15.9,15.9,0,0,1,476.69,145.85Zm-13.35-10.08-.33.14Z" transform="translate(-57.07 -0.22)"/><path class="cls-2" d="M474.42,134.93l-.95-.63a9.64,9.64,0,0,1-1.85,2,20.5,20.5,0,0,1,1.77,1.1A6.25,6.25,0,0,1,474.42,134.93Z" transform="translate(-57.07 -0.22)"/><path class="cls-3" d="M474.35,145.32c-.51,0-.83-1-1.51-2.11-.08-.14-.19-.29-.27-.44s-.21-.3-.31-.46-.46-.62-.74-.92a7.54,7.54,0,0,0-4.43-2.44c-.4-.07-.8-.1-1.17-.13l-.55,0h-.52c-1.33,0-2.3.26-2.59-.15a.46.46,0,0,1,0-.39,1.46,1.46,0,0,1,.28-.56,4.6,4.6,0,0,1,1.69-1.28,5.69,5.69,0,0,1,.66-.28,7.19,7.19,0,0,1,.74-.21,8,8,0,0,1,3.64,0,8.32,8.32,0,0,1,2,.76A8.12,8.12,0,0,1,472.9,138a8,8,0,0,1,1.22,1.5,8.51,8.51,0,0,1,.75,1.56,7.72,7.72,0,0,1,.21.75,5.57,5.57,0,0,1-.06,2.81,1.67,1.67,0,0,1-.32.54A.48.48,0,0,1,474.35,145.32Z" transform="translate(-57.07 -0.22)"/><path class="cls-2" d="M456.65,135.43c.18.11,0,.64-.31,1.18a3.85,3.85,0,0,1-.37.47c-.24.25-.47.38-.58.3s0-.64.31-1.18S456.48,135.31,456.65,135.43Z" transform="translate(-57.07 -0.22)"/><path class="cls-4" d="M456,137a3.64,3.64,0,0,0,.62-1l.61.36a3.73,3.73,0,0,1-1,.76Z" transform="translate(-57.07 -0.22)"/><path class="cls-2" d="M454.77,142.56c.21,0,.35.54.33,1.18a3.24,3.24,0,0,1-.08.59c-.08.34-.22.56-.35.56s-.36-.54-.33-1.18S454.56,142.55,454.77,142.56Z" transform="translate(-57.07 -0.22)"/><path class="cls-4" d="M455,144.28a2.53,2.53,0,0,0,0-1.15c.21,0,.45,0,.69,0a3.61,3.61,0,0,1-.48,1.15Z" transform="translate(-57.07 -0.22)"/><path class="cls-2" d="M454,149.1c.19-.1.57.29.86.86a3.39,3.39,0,0,1,.22.56c.1.33.09.59,0,.65s-.57-.29-.86-.87S453.82,149.19,454,149.1Z" transform="translate(-57.07 -0.22)"/><path class="cls-4" d="M455.08,150.47a3.67,3.67,0,0,0-.53-1l.61-.35a3.91,3.91,0,0,1,.15,1.27Z" transform="translate(-57.07 -0.22)"/><path class="cls-2" d="M459.06,154.3c.11-.18.64,0,1.18.31a3.08,3.08,0,0,1,.47.37c.25.24.38.46.31.58s-.65,0-1.19-.31S458.94,154.47,459.06,154.3Z" transform="translate(-57.07 -0.22)"/><path class="cls-4" d="M460.68,154.94a2.53,2.53,0,0,0-1-.61c.12-.18.24-.38.36-.59a3.54,3.54,0,0,1,.76,1Z" transform="translate(-57.07 -0.22)"/><path class="cls-2" d="M466.91,158.55c0-.2.44-.47,1.08-.59a3.19,3.19,0,0,1,.59-.06c.35,0,.59.08.62.22s-.44.47-1.07.59S467,158.76,466.91,158.55Z" transform="translate(-57.07 -0.22)"/><path class="cls-4" d="M468.53,157.9a3.84,3.84,0,0,0-1.13.23c0-.21-.1-.45-.16-.68a3.91,3.91,0,0,1,1.26.2Z" transform="translate(-57.07 -0.22)"/><path class="cls-2" d="M473.7,155.22c-.12-.17.21-.61.74-1A3,3,0,0,1,475,154c.32-.15.58-.18.66-.06s-.21.6-.74,1S473.82,155.39,473.7,155.22Z" transform="translate(-57.07 -0.22)"/><path class="cls-4" d="M474.91,154a2.57,2.57,0,0,0-.94.67c-.12-.18-.26-.37-.41-.56a3.62,3.62,0,0,1,1.21-.32Z" transform="translate(-57.07 -0.22)"/><path class="cls-2" d="M480,149.4c-.21-.05-.24-.6-.09-1.22a4.14,4.14,0,0,1,.2-.57c.15-.31.32-.51.45-.47s.24.6.09,1.22S480.23,149.45,480,149.4Z" transform="translate(-57.07 -0.22)"/><path class="cls-4" d="M480.12,147.66a3.73,3.73,0,0,0-.27,1.12l-.69-.14a3.88,3.88,0,0,1,.72-1.06Z" transform="translate(-57.07 -0.22)"/><path class="cls-4" d="M463.87,147.77c.32.68.21,1.4-.25,1.62s-1.09-.16-1.41-.85-.2-1.4.25-1.62S463.55,147.09,463.87,147.77Z" transform="translate(-57.07 -0.22)"/><path class="cls-1" d="M463.23,147.22c.32.68.21,1.4-.25,1.62s-1.09-.17-1.41-.85-.2-1.4.26-1.62S462.91,146.53,463.23,147.22Z" transform="translate(-57.07 -0.22)"/><path class="cls-4" d="M460.22,140.84c.45-.6,1.14-.84,1.55-.54s.36,1-.09,1.64-1.14.84-1.55.54S459.77,141.44,460.22,140.84Z" transform="translate(-57.07 -0.22)"/><path class="cls-1" d="M459.55,140.36c.45-.6,1.15-.84,1.55-.53s.37,1-.09,1.64-1.14.84-1.55.53S459.1,141,459.55,140.36Z" transform="translate(-57.07 -0.22)"/><path class="cls-4" d="M468.05,150.33a.9.9,0,1,1-1.2-.43A.9.9,0,0,1,468.05,150.33Z" transform="translate(-57.07 -0.22)"/><path class="cls-1" d="M467.84,149.89a.89.89,0,1,1-1.19-.43A.9.9,0,0,1,467.84,149.89Z" transform="translate(-57.07 -0.22)"/><path class="cls-4" d="M470.06,140.59a1.12,1.12,0,0,1-1.39.72,1.1,1.1,0,0,1-.72-1.38,1.12,1.12,0,0,1,1.39-.72A1.1,1.1,0,0,1,470.06,140.59Z" transform="translate(-57.07 -0.22)"/><path class="cls-1" d="M470.23,140a1.1,1.1,0,1,1-.72-1.38A1.1,1.1,0,0,1,470.23,140Z" transform="translate(-57.07 -0.22)"/><path class="cls-4" d="M472.55,149.19a.66.66,0,0,1-.31.88.67.67,0,0,1-.88-.32.65.65,0,0,1,.32-.87A.64.64,0,0,1,472.55,149.19Z" transform="translate(-57.07 -0.22)"/><path class="cls-1" d="M472.4,148.87a.66.66,0,0,1-.31.88.67.67,0,0,1-.88-.32.66.66,0,0,1,1.19-.56Z" transform="translate(-57.07 -0.22)"/><path class="cls-2" d="M480.21,140.12c-.19.09-.57-.29-.85-.86a2.43,2.43,0,0,1-.22-.55c-.1-.33-.09-.58,0-.65s.57.29.85.86S480.39,140,480.21,140.12Z" transform="translate(-57.07 -0.22)"/><path class="cls-4" d="M479.15,138.76a3.83,3.83,0,0,0,.52,1l-.6.34a3.76,3.76,0,0,1-.15-1.25Z" transform="translate(-57.07 -0.22)"/><path class="cls-2" d="M475.06,135c-.12.18-.64,0-1.17-.31a3,3,0,0,1-.47-.36c-.25-.24-.37-.46-.3-.57s.64,0,1.17.31S475.17,134.79,475.06,135Z" transform="translate(-57.07 -0.22)"/><path class="cls-4" d="M473.46,134.33a2.5,2.5,0,0,0,1,.6c-.12.18-.24.38-.36.59a3.66,3.66,0,0,1-.74-1Z" transform="translate(-57.07 -0.22)"/><path class="cls-2" d="M469.86,131.06c0,.21-.54.35-1.17.31a4.34,4.34,0,0,1-.59-.09c-.33-.08-.55-.22-.54-.35s.54-.35,1.17-.31S469.87,130.86,469.86,131.06Z" transform="translate(-57.07 -0.22)"/><path class="cls-4" d="M468.15,131.29a3.72,3.72,0,0,0,1.14.06c0,.21,0,.45,0,.69a3.73,3.73,0,0,1-1.16-.5Z" transform="translate(-57.07 -0.22)"/><path class="cls-2" d="M462.91,132.78c.09.19-.29.57-.86.86a3,3,0,0,1-.55.22c-.33.09-.58.09-.64,0s.28-.57.85-.86S462.81,132.6,462.91,132.78Z" transform="translate(-57.07 -0.22)"/><path class="cls-4" d="M461.55,133.85a2.52,2.52,0,0,0,1-.53c.09.19.2.39.32.6a3.62,3.62,0,0,1-1.23.15Z" transform="translate(-57.07 -0.22)"/><path class="cls-4" d="M473.74,146.07c0,.76-.47,1.34-1,1.32s-.88-.65-.85-1.4.48-1.34,1-1.32S473.78,145.32,473.74,146.07Z" transform="translate(-57.07 -0.22)"/><path class="cls-1" d="M473.94,145.57c0,.76-.48,1.34-1,1.32s-.89-.65-.85-1.4.48-1.34,1-1.32S474,144.82,473.94,145.57Z" transform="translate(-57.07 -0.22)"/><path class="cls-4" d="M468.16,143.9a1.36,1.36,0,1,1-1.81-.66A1.36,1.36,0,0,1,468.16,143.9Z" transform="translate(-57.07 -0.22)"/><path class="cls-1" d="M467.82,143.18a1.36,1.36,0,1,1-1.81-.65A1.36,1.36,0,0,1,467.82,143.18Z" transform="translate(-57.07 -0.22)"/><path class="cls-4" d="M474.51,149.15c.1.07.07.31-.1.7a5.67,5.67,0,0,1-1,1.46,8.23,8.23,0,0,1-.9.84,9.3,9.3,0,0,1-4.3,1.86,9.4,9.4,0,0,1-3.29-.13,9.87,9.87,0,0,1-1.36-.42,10.44,10.44,0,0,1-1.11-.55,5.61,5.61,0,0,1-1.38-1.11c-.27-.32-.37-.55-.3-.65s.94.22,2.2.63c.31.11.66.2,1,.3s.77.16,1.2.21a9.73,9.73,0,0,0,5.39-.79c.39-.16.75-.36,1.09-.54s.63-.39.91-.58C473.68,149.63,474.3,149,474.51,149.15Z" transform="translate(-57.07 -0.22)"/><g class="cls-5"><path class="cls-4" d="M459.19,148.1a.83.83,0,1,1-.39,1.14A.85.85,0,0,1,459.19,148.1Z" transform="translate(-57.07 -0.22)"/></g><path class="cls-2" d="M720.84,185.19a9.61,9.61,0,0,0-.32-3.79,15,15,0,0,1,3.3-2.29l-.5-1a17,17,0,0,1-3.85.89c.06.1.13.23.2.37a9.72,9.72,0,0,0-5.9-4.63c-.45-.93-.34-4-.34-4l-1.13-.08a16.5,16.5,0,0,1-1.17,3.76,9.49,9.49,0,0,0-2.82.45,6.77,6.77,0,0,1-1.61-2.16l-1,.51a9.26,9.26,0,0,1,.76,2.45,9.51,9.51,0,0,0-2,1.51,15.24,15.24,0,0,1-3.66-1.72l-.64,1a16.26,16.26,0,0,1,2.68,2.83,10,10,0,0,0-1.14,3,6.84,6.84,0,0,1-2.45.25l-.07,1.15a9.78,9.78,0,0,1,2.34.49,9.51,9.51,0,0,0,.36,2.58,17.71,17.71,0,0,1-3.15,2.1l.51,1a14.74,14.74,0,0,1,3.6-.87,9.53,9.53,0,0,0,2.05,2.48,6.88,6.88,0,0,1-1,2.23l1,.64a9.81,9.81,0,0,1,1.6-1.78,9.75,9.75,0,0,0,3.93,1.22,16.65,16.65,0,0,1,1.21,3.72l1.14-.19a14.73,14.73,0,0,1,.15-3.63,9.88,9.88,0,0,0,2.48-.77,9.34,9.34,0,0,0,1.16-.65,7.17,7.17,0,0,1,1.64,1.75l1-.65A9.63,9.63,0,0,1,718,191a9.68,9.68,0,0,0,2.25-3.38,17.62,17.62,0,0,1,3.77.47l.3-1.11A16,16,0,0,1,720.84,185.19Zm-13.36-10.08-.33.15C707.26,175.2,707.37,175.16,707.48,175.11Z" transform="translate(-57.07 -0.22)"/><path class="cls-2" d="M718.56,174.28l-.94-.63a9.75,9.75,0,0,1-1.85,2c.63.32,1.77,1.1,1.77,1.1A6.22,6.22,0,0,1,718.56,174.28Z" transform="translate(-57.07 -0.22)"/><path class="cls-3" d="M718.49,184.66c-.5,0-.83-1-1.51-2.1-.08-.15-.18-.29-.27-.44s-.21-.31-.31-.46a9.94,9.94,0,0,0-.74-.92,8.17,8.17,0,0,0-2-1.61,8.09,8.09,0,0,0-2.42-.83,10.21,10.21,0,0,0-1.18-.14h-.55c-.18,0-.35,0-.52,0-1.33,0-2.29.26-2.58-.15a.46.46,0,0,1,0-.39,1.68,1.68,0,0,1,.28-.55,4.59,4.59,0,0,1,1.69-1.29,6.5,6.5,0,0,1,.66-.27c.24-.09.49-.15.75-.22a8,8,0,0,1,5.61.79,8.43,8.43,0,0,1,1.7,1.26,8,8,0,0,1,1.21,1.51,7.84,7.84,0,0,1,.75,1.55c.08.26.16.51.22.75s.1.47.12.7a4.6,4.6,0,0,1-.19,2.12,1.38,1.38,0,0,1-.32.53A.44.44,0,0,1,718.49,184.66Z" transform="translate(-57.07 -0.22)"/><path class="cls-2" d="M700.8,174.77c.17.12,0,.64-.32,1.18a2.33,2.33,0,0,1-.37.47c-.24.25-.46.38-.58.3s0-.64.32-1.18S700.62,174.66,700.8,174.77Z" transform="translate(-57.07 -0.22)"/><path class="cls-4" d="M700.15,176.39a3.66,3.66,0,0,0,.61-1l.61.36a3.92,3.92,0,0,1-1,.77Z" transform="translate(-57.07 -0.22)"/><path class="cls-2" d="M698.91,181.9c.21,0,.36.54.33,1.18a3.49,3.49,0,0,1-.08.6c-.08.33-.21.56-.35.55s-.35-.54-.33-1.18S698.7,181.89,698.91,181.9Z" transform="translate(-57.07 -0.22)"/><path class="cls-4" d="M699.17,183.63a2.57,2.57,0,0,0,0-1.16c.22,0,.45,0,.69,0a3.63,3.63,0,0,1-.48,1.16Z" transform="translate(-57.07 -0.22)"/><path class="cls-2" d="M698.15,188.44c.19-.1.58.29.87.87a3.94,3.94,0,0,1,.22.55c.09.34.09.59,0,.66s-.57-.3-.86-.87S698,188.53,698.15,188.44Z" transform="translate(-57.07 -0.22)"/><path class="cls-4" d="M699.22,189.81a3.81,3.81,0,0,0-.53-1l.62-.34a3.64,3.64,0,0,1,.14,1.26Z" transform="translate(-57.07 -0.22)"/><path class="cls-2" d="M703.2,193.64c.11-.17.64,0,1.18.31a3.34,3.34,0,0,1,.48.37c.25.24.37.47.3.58s-.64,0-1.18-.31S703.09,193.82,703.2,193.64Z" transform="translate(-57.07 -0.22)"/><path class="cls-4" d="M704.82,194.29a2.53,2.53,0,0,0-1-.62c.12-.18.25-.38.37-.59a3.57,3.57,0,0,1,.75,1Z" transform="translate(-57.07 -0.22)"/><path class="cls-2" d="M711.06,197.89c0-.2.44-.46,1.07-.58a3.28,3.28,0,0,1,.59-.06c.35,0,.6.08.62.21s-.44.47-1.07.59S711.09,198.1,711.06,197.89Z" transform="translate(-57.07 -0.22)"/><path class="cls-4" d="M712.67,197.25a3.69,3.69,0,0,0-1.13.22c0-.2-.1-.44-.16-.68a3.7,3.7,0,0,1,1.26.21Z" transform="translate(-57.07 -0.22)"/><path class="cls-2" d="M717.84,194.57c-.12-.17.21-.61.74-1a2.86,2.86,0,0,1,.52-.3c.31-.14.57-.17.65-.06s-.21.61-.74,1S718,194.74,717.84,194.57Z" transform="translate(-57.07 -0.22)"/><path class="cls-4" d="M719.05,193.31a2.57,2.57,0,0,0-.94.67c-.12-.18-.25-.36-.41-.56a3.62,3.62,0,0,1,1.21-.32Z" transform="translate(-57.07 -0.22)"/><path class="cls-2" d="M724.17,188.74c-.2-.05-.24-.6-.08-1.22a3.81,3.81,0,0,1,.19-.57c.15-.31.32-.5.46-.47s.24.6.08,1.22S724.37,188.79,724.17,188.74Z" transform="translate(-57.07 -0.22)"/><path class="cls-4" d="M724.26,187a3.73,3.73,0,0,0-.27,1.12l-.69-.14a3.88,3.88,0,0,1,.72-1.06Z" transform="translate(-57.07 -0.22)"/><path class="cls-4" d="M708,187.11c.32.68.21,1.41-.25,1.62s-1.08-.16-1.4-.84-.21-1.41.25-1.62S707.7,186.43,708,187.11Z" transform="translate(-57.07 -0.22)"/><path class="cls-1" d="M707.38,186.56c.32.68.2,1.41-.26,1.62s-1.08-.16-1.4-.84-.21-1.41.25-1.62S707.06,185.88,707.38,186.56Z" transform="translate(-57.07 -0.22)"/><path class="cls-4" d="M704.36,180.18c.45-.6,1.15-.84,1.55-.53s.37,1-.09,1.64-1.14.84-1.55.53S703.91,180.79,704.36,180.18Z" transform="translate(-57.07 -0.22)"/><path class="cls-1" d="M703.69,179.71c.46-.6,1.15-.84,1.55-.54s.37,1-.08,1.64-1.15.84-1.55.54S703.24,180.31,703.69,179.71Z" transform="translate(-57.07 -0.22)"/><path class="cls-4" d="M712.19,189.67a.89.89,0,1,1-1.19-.43A.89.89,0,0,1,712.19,189.67Z" transform="translate(-57.07 -0.22)"/><path class="cls-1" d="M712,189.24a.9.9,0,1,1-1.2-.43A.9.9,0,0,1,712,189.24Z" transform="translate(-57.07 -0.22)"/><path class="cls-4" d="M714.2,179.94a1.1,1.1,0,1,1-.72-1.39A1.12,1.12,0,0,1,714.2,179.94Z" transform="translate(-57.07 -0.22)"/><path class="cls-1" d="M714.38,179.37a1.11,1.11,0,1,1-.72-1.38A1.11,1.11,0,0,1,714.38,179.37Z" transform="translate(-57.07 -0.22)"/><path class="cls-4" d="M716.7,188.54a.66.66,0,1,1-.88-.32A.67.67,0,0,1,716.7,188.54Z" transform="translate(-57.07 -0.22)"/><path class="cls-1" d="M716.55,188.22a.66.66,0,1,1-.88-.32A.67.67,0,0,1,716.55,188.22Z" transform="translate(-57.07 -0.22)"/><path class="cls-2" d="M724.35,179.46c-.18.09-.57-.29-.85-.86a3,3,0,0,1-.22-.55c-.09-.33-.09-.58,0-.64s.57.29.85.86S724.53,179.37,724.35,179.46Z" transform="translate(-57.07 -0.22)"/><path class="cls-4" d="M723.29,178.1a3.67,3.67,0,0,0,.53,1l-.61.34a3.76,3.76,0,0,1-.15-1.25Z" transform="translate(-57.07 -0.22)"/><path class="cls-2" d="M719.2,174.31c-.11.17-.64,0-1.17-.31a3.08,3.08,0,0,1-.47-.37c-.24-.23-.37-.45-.29-.57s.63,0,1.16.31S719.31,174.13,719.2,174.31Z" transform="translate(-57.07 -0.22)"/><path class="cls-4" d="M717.6,173.67a2.6,2.6,0,0,0,1,.61,5.23,5.23,0,0,0-.35.58,3.48,3.48,0,0,1-.75-1Z" transform="translate(-57.07 -0.22)"/><path class="cls-2" d="M714,170.41c0,.2-.54.34-1.17.3a2.43,2.43,0,0,1-.58-.09c-.34-.08-.55-.21-.55-.35s.54-.34,1.17-.3S714,170.2,714,170.41Z" transform="translate(-57.07 -0.22)"/><path class="cls-4" d="M712.29,170.64a3.87,3.87,0,0,0,1.14.05c0,.21,0,.45,0,.7a3.93,3.93,0,0,1-1.16-.51Z" transform="translate(-57.07 -0.22)"/><path class="cls-2" d="M707.05,172.13c.09.18-.29.56-.86.85a2.56,2.56,0,0,1-.54.22c-.33.1-.59.09-.65,0s.29-.56.85-.85S707,171.94,707.05,172.13Z" transform="translate(-57.07 -0.22)"/><path class="cls-4" d="M705.69,173.19a2.52,2.52,0,0,0,1-.53,6.24,6.24,0,0,0,.33.61,3.69,3.69,0,0,1-1.23.14Z" transform="translate(-57.07 -0.22)"/><path class="cls-4" d="M717.89,185.42c0,.75-.48,1.34-1,1.31s-.88-.65-.84-1.4.47-1.34,1-1.32S717.92,184.67,717.89,185.42Z" transform="translate(-57.07 -0.22)"/><path class="cls-1" d="M718.08,184.92c0,.75-.47,1.34-1,1.31s-.88-.65-.85-1.4.48-1.34,1-1.32S718.12,184.17,718.08,184.92Z" transform="translate(-57.07 -0.22)"/><path class="cls-4" d="M712.3,183.24a1.36,1.36,0,1,1-1.81-.65A1.36,1.36,0,0,1,712.3,183.24Z" transform="translate(-57.07 -0.22)"/><path class="cls-1" d="M712,182.53a1.36,1.36,0,1,1-2.47,1.15,1.36,1.36,0,1,1,2.47-1.15Z" transform="translate(-57.07 -0.22)"/><path class="cls-4" d="M718.66,188.49c.09.07.07.32-.11.7a5.2,5.2,0,0,1-1,1.46,8.37,8.37,0,0,1-.91.84,8.5,8.5,0,0,1-1.19.8,9.28,9.28,0,0,1-3.11,1.06,9.1,9.1,0,0,1-3.28-.13,9.61,9.61,0,0,1-1.37-.42,7.52,7.52,0,0,1-1.1-.55,5.9,5.9,0,0,1-1.39-1.11c-.27-.32-.37-.55-.29-.64s.93.22,2.19.63c.32.1.67.2,1,.29a10.69,10.69,0,0,0,1.2.21,10.56,10.56,0,0,0,2.75,0,10.43,10.43,0,0,0,2.64-.77c.39-.17.75-.37,1.09-.55s.64-.39.91-.58C717.82,189,718.44,188.35,718.66,188.49Z" transform="translate(-57.07 -0.22)"/><g class="cls-5"><path class="cls-4" d="M703.33,187.45a.83.83,0,1,1-.38,1.14A.85.85,0,0,1,703.33,187.45Z" transform="translate(-57.07 -0.22)"/></g><path class="cls-2" d="M209.37,101.64a11.07,11.07,0,0,0-.36-4.38c.72-1,3.81-2.65,3.81-2.65l-.58-1.18a19.65,19.65,0,0,1-4.45,1,4,4,0,0,1,.23.43,11.22,11.22,0,0,0-6.82-5.35c-.52-1.08-.39-4.66-.39-4.66l-1.31-.09a19.43,19.43,0,0,1-1.34,4.35,10.88,10.88,0,0,0-3.27.51A7.76,7.76,0,0,1,193,87.16l-1.18.58a10.71,10.71,0,0,1,.87,2.83,11.34,11.34,0,0,0-2.34,1.75c-1.26-.15-4.22-2-4.22-2l-.74,1.11a18.28,18.28,0,0,1,3.1,3.27,11.18,11.18,0,0,0-1.32,3.49,8.1,8.1,0,0,1-2.83.29l-.08,1.33a10.9,10.9,0,0,1,2.7.56,11.33,11.33,0,0,0,.41,3,20.27,20.27,0,0,1-3.63,2.43l.58,1.19a17.61,17.61,0,0,1,4.16-1,11.2,11.2,0,0,0,2.38,2.86,8,8,0,0,1-1.17,2.58l1.11.74a10.32,10.32,0,0,1,1.85-2.06,11.16,11.16,0,0,0,4.54,1.41,19.11,19.11,0,0,1,1.4,4.3l1.31-.23a17.64,17.64,0,0,1,.18-4.18,11.17,11.17,0,0,0,2.86-.9,10.37,10.37,0,0,0,1.35-.75,8.14,8.14,0,0,1,1.89,2l1.1-.75a11.5,11.5,0,0,1-1.26-2.66,11.3,11.3,0,0,0,2.6-3.91A20.06,20.06,0,0,1,213,105l.34-1.29A18.81,18.81,0,0,1,209.37,101.64ZM193.94,90l-.39.17Z" transform="translate(-57.07 -0.22)"/><path class="cls-2" d="M206.74,89l-1.09-.72a11.54,11.54,0,0,1-2.14,2.27,24.11,24.11,0,0,1,2.05,1.27A7.14,7.14,0,0,1,206.74,89Z" transform="translate(-57.07 -0.22)"/><path class="cls-3" d="M206.66,101c-.58,0-1-1.11-1.75-2.44-.09-.16-.21-.33-.31-.51s-.24-.34-.35-.52c-.27-.35-.54-.72-.86-1.07a9.67,9.67,0,0,0-2.31-1.86,9.37,9.37,0,0,0-2.81-1,13.36,13.36,0,0,0-1.35-.16h-.64a6,6,0,0,0-.6,0c-1.54,0-2.65.29-3-.18a.56.56,0,0,1-.05-.45,1.86,1.86,0,0,1,.33-.64,5.25,5.25,0,0,1,1.95-1.49,6.68,6.68,0,0,1,.76-.31c.27-.1.56-.18.86-.26a8.83,8.83,0,0,1,2-.22,9.24,9.24,0,0,1,2.23.25,10,10,0,0,1,2.28.88,9.32,9.32,0,0,1,3.37,3.21,8.85,8.85,0,0,1,.86,1.79,8.3,8.3,0,0,1,.25.87,8.09,8.09,0,0,1,.14.81,5.2,5.2,0,0,1-.22,2.44,1.56,1.56,0,0,1-.37.62A.53.53,0,0,1,206.66,101Z" transform="translate(-57.07 -0.22)"/><path class="cls-2" d="M186.21,89.6c.2.13,0,.74-.36,1.36a4.39,4.39,0,0,1-.43.55c-.28.29-.54.43-.67.34s0-.74.36-1.36S186,89.46,186.21,89.6Z" transform="translate(-57.07 -0.22)"/><path class="cls-4" d="M185.46,91.46a4.13,4.13,0,0,0,.71-1.12l.7.41a4.34,4.34,0,0,1-1.18.89Z" transform="translate(-57.07 -0.22)"/><path class="cls-2" d="M184,97.84c.24,0,.41.62.38,1.36a3.5,3.5,0,0,1-.09.69c-.1.39-.25.64-.41.64s-.41-.62-.37-1.37S183.79,97.83,184,97.84Z" transform="translate(-57.07 -0.22)"/><path class="cls-4" d="M184.33,99.83a2.93,2.93,0,0,0,0-1.33c.25,0,.52,0,.8,0a4.22,4.22,0,0,1-.56,1.33Z" transform="translate(-57.07 -0.22)"/><path class="cls-2" d="M183.15,105.39c.22-.11.67.34,1,1a3.31,3.31,0,0,1,.26.64c.11.38.1.68,0,.75s-.66-.34-1-1S182.94,105.5,183.15,105.39Z" transform="translate(-57.07 -0.22)"/><path class="cls-4" d="M184.39,107a4.21,4.21,0,0,0-.61-1.18l.71-.4a4.32,4.32,0,0,1,.17,1.46Z" transform="translate(-57.07 -0.22)"/><path class="cls-2" d="M189,111.4c.13-.2.74,0,1.37.37a3.49,3.49,0,0,1,.54.42c.29.28.44.54.35.67s-.74,0-1.37-.36S188.86,111.61,189,111.4Z" transform="translate(-57.07 -0.22)"/><path class="cls-4" d="M190.86,112.15a3,3,0,0,0-1.13-.71c.14-.21.28-.44.42-.68a4.28,4.28,0,0,1,.88,1.15Z" transform="translate(-57.07 -0.22)"/><path class="cls-2" d="M198.07,116.32c0-.24.51-.54,1.24-.68a3.41,3.41,0,0,1,.68-.07c.41,0,.69.09.72.25s-.51.54-1.24.68S198.11,116.56,198.07,116.32Z" transform="translate(-57.07 -0.22)"/><path class="cls-4" d="M199.94,115.57a4.4,4.4,0,0,0-1.31.26c0-.24-.12-.51-.19-.79a4.6,4.6,0,0,1,1.46.24Z" transform="translate(-57.07 -0.22)"/><path class="cls-2" d="M205.91,112.47c-.14-.19.24-.7.85-1.13a3.74,3.74,0,0,1,.6-.34c.37-.17.66-.2.75-.07s-.24.7-.85,1.13S206.05,112.67,205.91,112.47Z" transform="translate(-57.07 -0.22)"/><path class="cls-4" d="M207.31,111a3,3,0,0,0-1.09.78,6.19,6.19,0,0,0-.47-.65,4.28,4.28,0,0,1,1.4-.37Z" transform="translate(-57.07 -0.22)"/><path class="cls-2" d="M213.22,105.74c-.23-.06-.27-.69-.09-1.41a3.78,3.78,0,0,1,.22-.65c.17-.37.37-.59.53-.55s.28.69.09,1.41S213.46,105.8,213.22,105.74Z" transform="translate(-57.07 -0.22)"/><path class="cls-4" d="M213.33,103.73A4.22,4.22,0,0,0,213,105l-.8-.17a4.52,4.52,0,0,1,.83-1.22Z" transform="translate(-57.07 -0.22)"/><path class="cls-4" d="M194.55,103.86c.37.78.24,1.62-.29,1.87s-1.26-.19-1.62-1-.24-1.63.29-1.88S194.18,103.07,194.55,103.86Z" transform="translate(-57.07 -0.22)"/><path class="cls-1" d="M193.81,103.22c.37.79.24,1.63-.29,1.87s-1.25-.19-1.62-1-.24-1.63.29-1.88S193.45,102.43,193.81,103.22Z" transform="translate(-57.07 -0.22)"/><path class="cls-4" d="M190.33,95.85c.52-.69,1.32-1,1.79-.62s.42,1.2-.1,1.9-1.32,1-1.79.62S189.81,96.55,190.33,95.85Z" transform="translate(-57.07 -0.22)"/><path class="cls-1" d="M189.56,95.3c.52-.69,1.32-1,1.79-.62s.42,1.2-.1,1.89-1.33,1-1.79.63S189,96,189.56,95.3Z" transform="translate(-57.07 -0.22)"/><path class="cls-4" d="M199.38,106.82a1,1,0,0,1-1.88.88,1,1,0,0,1,1.88-.88Z" transform="translate(-57.07 -0.22)"/><path class="cls-1" d="M199.14,106.32a1,1,0,1,1-1.38-.5A1,1,0,0,1,199.14,106.32Z" transform="translate(-57.07 -0.22)"/><path class="cls-4" d="M201.7,95.56a1.27,1.27,0,1,1-.83-1.59A1.26,1.26,0,0,1,201.7,95.56Z" transform="translate(-57.07 -0.22)"/><path class="cls-1" d="M201.9,94.91a1.27,1.27,0,1,1-.83-1.59A1.26,1.26,0,0,1,201.9,94.91Z" transform="translate(-57.07 -0.22)"/><path class="cls-4" d="M204.59,105.51a.76.76,0,0,1-1.38.64.76.76,0,1,1,1.38-.64Z" transform="translate(-57.07 -0.22)"/><path class="cls-1" d="M204.41,105.14a.76.76,0,0,1-.36,1,.77.77,0,0,1-1-.37.76.76,0,1,1,1.37-.64Z" transform="translate(-57.07 -0.22)"/><path class="cls-2" d="M213.43,95c-.21.1-.65-.34-1-1a3.51,3.51,0,0,1-.26-.63c-.1-.38-.1-.68,0-.75s.66.34,1,1S213.64,94.91,213.43,95Z" transform="translate(-57.07 -0.22)"/><path class="cls-4" d="M212.21,93.45a4.21,4.21,0,0,0,.61,1.16l-.7.39a4.18,4.18,0,0,1-.17-1.44Z" transform="translate(-57.07 -0.22)"/><path class="cls-2" d="M207.48,89.06c-.13.2-.74,0-1.35-.36a3.07,3.07,0,0,1-.54-.42c-.29-.27-.43-.53-.35-.66s.74,0,1.35.36S207.61,88.86,207.48,89.06Z" transform="translate(-57.07 -0.22)"/><path class="cls-4" d="M205.63,88.32a2.85,2.85,0,0,0,1.11.7c-.13.21-.27.43-.41.68a4.2,4.2,0,0,1-.86-1.14Z" transform="translate(-57.07 -0.22)"/><path class="cls-2" d="M201.47,84.55c0,.24-.62.4-1.35.35a3.36,3.36,0,0,1-.68-.1c-.38-.1-.63-.25-.63-.41s.62-.39,1.36-.35S201.48,84.31,201.47,84.55Z" transform="translate(-57.07 -0.22)"/><path class="cls-4" d="M199.5,84.82a4.14,4.14,0,0,0,1.31.06c0,.24,0,.52,0,.8a4.19,4.19,0,0,1-1.34-.58Z" transform="translate(-57.07 -0.22)"/><path class="cls-2" d="M193.44,86.54c.1.21-.34.66-1,1a3.24,3.24,0,0,1-.64.25c-.38.11-.67.11-.74,0s.33-.66,1-1S193.33,86.33,193.44,86.54Z" transform="translate(-57.07 -0.22)"/><path class="cls-4" d="M191.87,87.77a3,3,0,0,0,1.17-.61c.1.22.23.45.37.7A4.31,4.31,0,0,1,192,88Z" transform="translate(-57.07 -0.22)"/><path class="cls-4" d="M206,101.9c0,.87-.55,1.55-1.13,1.52s-1-.75-1-1.62.55-1.55,1.13-1.52S206,101,206,101.9Z" transform="translate(-57.07 -0.22)"/><path class="cls-1" d="M206.19,101.32c0,.87-.55,1.55-1.14,1.52s-1-.75-1-1.62.55-1.55,1.14-1.52S206.23,100.45,206.19,101.32Z" transform="translate(-57.07 -0.22)"/><path class="cls-4" d="M199.51,99.39a1.57,1.57,0,1,1-2.1-.76A1.58,1.58,0,0,1,199.51,99.39Z" transform="translate(-57.07 -0.22)"/><path class="cls-1" d="M199.12,98.56A1.57,1.57,0,1,1,197,97.8,1.57,1.57,0,0,1,199.12,98.56Z" transform="translate(-57.07 -0.22)"/><path class="cls-4" d="M206.85,105.45c.11.08.08.37-.12.81a6.22,6.22,0,0,1-1.16,1.69,10,10,0,0,1-1,1,10.21,10.21,0,0,1-1.37.92,10.85,10.85,0,0,1-3.6,1.23,10.53,10.53,0,0,1-3.79-.15,10.87,10.87,0,0,1-1.58-.49,10.19,10.19,0,0,1-1.28-.63,6.45,6.45,0,0,1-1.6-1.29c-.31-.37-.43-.63-.34-.74s1.08.25,2.54.73c.36.12.76.23,1.2.34a13.16,13.16,0,0,0,1.38.24,11.36,11.36,0,0,0,6.23-.9,13.44,13.44,0,0,0,1.26-.64,12,12,0,0,0,1.05-.66C205.89,106,206.6,105.28,206.85,105.45Z" transform="translate(-57.07 -0.22)"/><g class="cls-5"><path class="cls-4" d="M189.14,104.24a1,1,0,1,1-.45,1.32A1,1,0,0,1,189.14,104.24Z" transform="translate(-57.07 -0.22)"/></g><path class="cls-2" d="M601.19,166.26a5.31,5.31,0,0,0-.18-2.09,8.1,8.1,0,0,1,1.82-1.26l-.28-.56a9.58,9.58,0,0,1-2.12.49,1.2,1.2,0,0,1,.11.2,5.28,5.28,0,0,0-3.24-2.54,7.86,7.86,0,0,1-.19-2.22l-.62-.05a9.72,9.72,0,0,1-.64,2.07,5.59,5.59,0,0,0-1.56.25,3.81,3.81,0,0,1-.88-1.19l-.56.28a5.28,5.28,0,0,1,.41,1.35,5.36,5.36,0,0,0-1.11.83,8.32,8.32,0,0,1-2-.94l-.35.52a8.74,8.74,0,0,1,1.47,1.56,5.21,5.21,0,0,0-.62,1.66,3.9,3.9,0,0,1-1.35.14l0,.63a5.38,5.38,0,0,1,1.29.27,5.33,5.33,0,0,0,.19,1.42,10,10,0,0,1-1.73,1.16l.28.57a8.33,8.33,0,0,1,2-.48,5.36,5.36,0,0,0,1.13,1.36,3.72,3.72,0,0,1-.56,1.23l.53.35a5.42,5.42,0,0,1,.88-1,5.36,5.36,0,0,0,2.16.68,9,9,0,0,1,.67,2l.63-.11a8,8,0,0,1,.08-2,5.43,5.43,0,0,0,1.37-.43,4.82,4.82,0,0,0,.63-.35,4,4,0,0,1,.91,1l.52-.35a5.68,5.68,0,0,1-.6-1.27,5.37,5.37,0,0,0,1.24-1.86,9.61,9.61,0,0,1,2.07.26l.17-.62A8.37,8.37,0,0,1,601.19,166.26Zm-7.35-5.55-.18.08Z" transform="translate(-57.07 -0.22)"/><path class="cls-2" d="M599.94,160.25l-.53-.35a5.42,5.42,0,0,1-1,1.08c.35.18,1,.61,1,.61A3.46,3.46,0,0,1,599.94,160.25Z" transform="translate(-57.07 -0.22)"/><path class="cls-3" d="M599.89,166c-.27,0-.45-.52-.83-1.15,0-.08-.1-.16-.15-.25s-.11-.16-.16-.25-.26-.34-.41-.51a4.78,4.78,0,0,0-1.1-.88,4.54,4.54,0,0,0-1.34-.46,5,5,0,0,0-.64-.07h-.59c-.74,0-1.26.14-1.42-.08a.25.25,0,0,1,0-.21.77.77,0,0,1,.16-.31,2.47,2.47,0,0,1,.93-.71,3,3,0,0,1,.36-.15,4,4,0,0,1,.41-.12,4.57,4.57,0,0,1,.94-.11,4.71,4.71,0,0,1,2.15.54,4.72,4.72,0,0,1,.93.7,4.6,4.6,0,0,1,.67.83,4.2,4.2,0,0,1,.41.86,3.17,3.17,0,0,1,.12.41,2.79,2.79,0,0,1,.07.38,2.53,2.53,0,0,1-.11,1.17.72.72,0,0,1-.17.29A.22.22,0,0,1,599.89,166Z" transform="translate(-57.07 -0.22)"/><path class="cls-2" d="M590.16,160.52c.1.06,0,.36-.18.65a1.37,1.37,0,0,1-.2.26c-.13.14-.25.21-.32.17s0-.36.18-.65S590.06,160.46,590.16,160.52Z" transform="translate(-57.07 -0.22)"/><path class="cls-4" d="M589.8,161.41a1.85,1.85,0,0,0,.34-.53l.33.19a2,2,0,0,1-.56.42Z" transform="translate(-57.07 -0.22)"/><path class="cls-2" d="M589.12,164.45c.12,0,.2.29.18.65a1.47,1.47,0,0,1,0,.32c0,.19-.12.31-.19.31s-.2-.3-.18-.65S589,164.44,589.12,164.45Z" transform="translate(-57.07 -0.22)"/><path class="cls-4" d="M589.26,165.39a1.44,1.44,0,0,0,0-.63h.38a2,2,0,0,1-.27.64Z" transform="translate(-57.07 -0.22)"/><path class="cls-2" d="M588.7,168c.11,0,.32.16.48.48a2.45,2.45,0,0,1,.12.31c.05.18.05.32,0,.36s-.31-.17-.47-.48S588.6,168.09,588.7,168Z" transform="translate(-57.07 -0.22)"/><path class="cls-4" d="M589.29,168.8a1.89,1.89,0,0,0-.29-.56l.34-.19a2.09,2.09,0,0,1,.08.69Z" transform="translate(-57.07 -0.22)"/><path class="cls-2" d="M591.48,170.91c.06-.1.36,0,.65.17a1.37,1.37,0,0,1,.26.2c.14.13.21.25.17.32s-.35,0-.65-.17S591.42,171,591.48,170.91Z" transform="translate(-57.07 -0.22)"/><path class="cls-4" d="M592.37,171.26a1.4,1.4,0,0,0-.54-.34l.21-.32a1.94,1.94,0,0,1,.41.55Z" transform="translate(-57.07 -0.22)"/><path class="cls-2" d="M595.8,173.25c0-.12.25-.26.59-.33l.33,0c.19,0,.33,0,.34.12s-.24.25-.59.32S595.82,173.36,595.8,173.25Z" transform="translate(-57.07 -0.22)"/><path class="cls-4" d="M596.69,172.89a2,2,0,0,0-.62.12,3.28,3.28,0,0,0-.09-.37,2,2,0,0,1,.7.11Z" transform="translate(-57.07 -0.22)"/><path class="cls-2" d="M599.54,171.41c-.07-.09.11-.33.4-.53a1.81,1.81,0,0,1,.29-.17c.17-.08.31-.09.36,0s-.12.33-.41.54S599.6,171.51,599.54,171.41Z" transform="translate(-57.07 -0.22)"/><path class="cls-4" d="M600.2,170.72a1.39,1.39,0,0,0-.51.37c-.07-.1-.14-.2-.23-.31a2.07,2.07,0,0,1,.67-.17Z" transform="translate(-57.07 -0.22)"/><path class="cls-2" d="M603,168.21c-.11,0-.13-.33,0-.67a1.58,1.58,0,0,1,.11-.31c.08-.18.18-.28.25-.26s.13.32,0,.67S603.13,168.24,603,168.21Z" transform="translate(-57.07 -0.22)"/><path class="cls-4" d="M603.07,167.25a2.18,2.18,0,0,0-.15.62l-.38-.08a2.13,2.13,0,0,1,.4-.58Z" transform="translate(-57.07 -0.22)"/><path class="cls-4" d="M594.13,167.31c.18.38.11.78-.14.89s-.6-.09-.77-.46-.12-.77.14-.89S594,166.94,594.13,167.31Z" transform="translate(-57.07 -0.22)"/><path class="cls-1" d="M593.78,167c.17.37.11.77-.14.89s-.6-.09-.77-.46-.12-.78.14-.9S593.6,166.63,593.78,167Z" transform="translate(-57.07 -0.22)"/><path class="cls-4" d="M592.12,163.5c.25-.33.63-.46.85-.29s.2.57,0,.9-.64.46-.86.29S591.87,163.83,592.12,163.5Z" transform="translate(-57.07 -0.22)"/><path class="cls-1" d="M591.75,163.24c.25-.33.63-.46.86-.3s.2.57-.05.9-.63.47-.86.3S591.5,163.57,591.75,163.24Z" transform="translate(-57.07 -0.22)"/><path class="cls-4" d="M596.43,168.72a.5.5,0,1,1-.9.42.51.51,0,0,1,.24-.66A.5.5,0,0,1,596.43,168.72Z" transform="translate(-57.07 -0.22)"/><path class="cls-1" d="M596.32,168.48a.51.51,0,0,1-.24.66.5.5,0,0,1-.42-.9A.51.51,0,0,1,596.32,168.48Z" transform="translate(-57.07 -0.22)"/><path class="cls-4" d="M597.53,163.36a.6.6,0,1,1-.39-.76A.61.61,0,0,1,597.53,163.36Z" transform="translate(-57.07 -0.22)"/><path class="cls-1" d="M597.63,163.05a.61.61,0,1,1-1.16-.36.62.62,0,0,1,.77-.4A.61.61,0,0,1,597.63,163.05Z" transform="translate(-57.07 -0.22)"/><path class="cls-4" d="M598.91,168.1a.36.36,0,1,1-.48-.18A.37.37,0,0,1,598.91,168.1Z" transform="translate(-57.07 -0.22)"/><path class="cls-1" d="M598.83,167.92a.37.37,0,0,1-.18.48.36.36,0,0,1-.48-.17.36.36,0,0,1,.66-.31Z" transform="translate(-57.07 -0.22)"/><path class="cls-2" d="M603.12,163.1c-.1.05-.31-.16-.47-.47a3.11,3.11,0,0,1-.12-.3c0-.18,0-.32,0-.36s.31.16.47.47S603.22,163.05,603.12,163.1Z" transform="translate(-57.07 -0.22)"/><path class="cls-4" d="M602.54,162.35a1.89,1.89,0,0,0,.29.56l-.34.19a2.09,2.09,0,0,1-.08-.69Z" transform="translate(-57.07 -0.22)"/><path class="cls-2" d="M600.28,160.27c-.06.09-.34,0-.64-.17a2,2,0,0,1-.25-.2c-.14-.13-.21-.26-.17-.32s.35,0,.64.17S600.35,160.17,600.28,160.27Z" transform="translate(-57.07 -0.22)"/><path class="cls-4" d="M599.41,159.92a1.46,1.46,0,0,0,.53.33,2.49,2.49,0,0,0-.2.32,2,2,0,0,1-.41-.54Z" transform="translate(-57.07 -0.22)"/><path class="cls-2" d="M597.42,158.12c0,.11-.29.19-.64.17l-.32,0c-.18-.05-.3-.12-.3-.2s.3-.18.64-.16S597.43,158,597.42,158.12Z" transform="translate(-57.07 -0.22)"/><path class="cls-4" d="M596.49,158.25a2.18,2.18,0,0,0,.62,0c0,.11,0,.25,0,.38a2,2,0,0,1-.63-.28Z" transform="translate(-57.07 -0.22)"/><path class="cls-2" d="M593.6,159.07c0,.1-.16.31-.47.47l-.3.12c-.18.05-.32.05-.36,0s.16-.31.47-.47S593.55,159,593.6,159.07Z" transform="translate(-57.07 -0.22)"/><path class="cls-4" d="M592.85,159.65a1.48,1.48,0,0,0,.56-.29,2.68,2.68,0,0,0,.18.33,2.23,2.23,0,0,1-.68.09Z" transform="translate(-57.07 -0.22)"/><path class="cls-4" d="M599.56,166.38c0,.41-.26.74-.54.72s-.49-.36-.46-.77.26-.74.53-.72S599.58,166,599.56,166.38Z" transform="translate(-57.07 -0.22)"/><path class="cls-1" d="M599.67,166.11c0,.41-.26.73-.54.72s-.49-.36-.47-.77.27-.74.54-.73S599.69,165.69,599.67,166.11Z" transform="translate(-57.07 -0.22)"/><path class="cls-4" d="M596.49,165.18a.76.76,0,0,1-.36,1,.75.75,0,0,1-1-.36.75.75,0,0,1,1.36-.64Z" transform="translate(-57.07 -0.22)"/><path class="cls-1" d="M596.3,164.79a.74.74,0,1,1-1.35.63.74.74,0,1,1,1.35-.63Z" transform="translate(-57.07 -0.22)"/><path class="cls-4" d="M600,168.07s0,.18-.06.39a3.1,3.1,0,0,1-.55.8,4.54,4.54,0,0,1-.5.46,4.73,4.73,0,0,1-.66.44,4.93,4.93,0,0,1-1.71.58,4.73,4.73,0,0,1-1.81-.07,4.11,4.11,0,0,1-.75-.23,4.33,4.33,0,0,1-.61-.3,3.07,3.07,0,0,1-.76-.61c-.15-.18-.2-.3-.16-.35s.51.12,1.21.34a5.71,5.71,0,0,0,.57.16,6.45,6.45,0,0,0,.66.12,5.47,5.47,0,0,0,1.51,0,5.79,5.79,0,0,0,1.46-.42c.21-.09.41-.2.6-.3l.5-.32C599.53,168.33,599.87,168,600,168.07Z" transform="translate(-57.07 -0.22)"/><g class="cls-5"><path class="cls-4" d="M591.55,167.5a.45.45,0,1,1-.21.62A.46.46,0,0,1,591.55,167.5Z" transform="translate(-57.07 -0.22)"/></g><path class="cls-2" d="M73.62,130.19a7,7,0,0,0-.23-2.75,10.62,10.62,0,0,1,2.39-1.67l-.36-.74a12.12,12.12,0,0,1-2.8.65,1.63,1.63,0,0,1,.15.27,7,7,0,0,0-4.29-3.37,10.17,10.17,0,0,1-.24-2.92l-.83-.06a12.29,12.29,0,0,1-.84,2.73,6.85,6.85,0,0,0-2,.32,4.86,4.86,0,0,1-1.17-1.56l-.74.36a7.26,7.26,0,0,1,.55,1.78,7.05,7.05,0,0,0-1.47,1.1A10.9,10.9,0,0,1,59,123.09l-.47.69a11.31,11.31,0,0,1,1.94,2.06,7.16,7.16,0,0,0-.82,2.19,5,5,0,0,1-1.78.19l0,.83a7.31,7.31,0,0,1,1.7.35,6.72,6.72,0,0,0,.26,1.88,13.12,13.12,0,0,1-2.29,1.53l.37.75a10.69,10.69,0,0,1,2.61-.63,6.92,6.92,0,0,0,1.5,1.8,5,5,0,0,1-.74,1.62l.7.46a7.27,7.27,0,0,1,1.16-1.29,7,7,0,0,0,2.85.89,12.21,12.21,0,0,1,.89,2.71l.82-.15a10.69,10.69,0,0,1,.11-2.63,7,7,0,0,0,1.8-.57,6.3,6.3,0,0,0,.85-.46,5,5,0,0,1,1.19,1.27l.69-.47a6.83,6.83,0,0,1-.79-1.68A7,7,0,0,0,73.17,132a12.83,12.83,0,0,1,2.74.34l.22-.81A11.56,11.56,0,0,1,73.62,130.19Zm-9.7-7.32-.24.1Z" transform="translate(-57.07 -0.22)"/><path class="cls-2" d="M72,122.26l-.69-.46a7,7,0,0,1-1.34,1.43,14.58,14.58,0,0,1,1.28.8A4.58,4.58,0,0,1,72,122.26Z" transform="translate(-57.07 -0.22)"/><path class="cls-3" d="M71.91,129.81c-.36,0-.6-.7-1.09-1.53-.06-.11-.14-.21-.2-.32s-.15-.22-.22-.34-.34-.45-.54-.67a5.46,5.46,0,0,0-3.22-1.77c-.29-.05-.58-.07-.85-.1H65c-1,0-1.66.18-1.88-.11a.35.35,0,0,1,0-.29,1,1,0,0,1,.21-.4,3.25,3.25,0,0,1,1.22-.93,3.45,3.45,0,0,1,.48-.2l.54-.16a5.44,5.44,0,0,1,1.25-.14,5.79,5.79,0,0,1,1.4.16,6.28,6.28,0,0,1,1.43.55,6.14,6.14,0,0,1,1.24.92,6.28,6.28,0,0,1,.88,1.09,5.78,5.78,0,0,1,.54,1.13c.06.19.12.37.16.55s.07.34.09.51a3.31,3.31,0,0,1-.14,1.53,1,1,0,0,1-.23.39A.35.35,0,0,1,71.91,129.81Z" transform="translate(-57.07 -0.22)"/><path class="cls-2" d="M59.06,122.62c.13.08,0,.47-.23.86a2.52,2.52,0,0,1-.27.34c-.17.18-.34.27-.42.22s0-.47.23-.86S58.93,122.54,59.06,122.62Z" transform="translate(-57.07 -0.22)"/><path class="cls-4" d="M58.59,123.79a2.8,2.8,0,0,0,.45-.7l.43.26a2.64,2.64,0,0,1-.74.55Z" transform="translate(-57.07 -0.22)"/><path class="cls-2" d="M57.69,127.8c.15,0,.26.39.24.86a2.62,2.62,0,0,1-.06.43c-.06.24-.16.41-.26.4s-.25-.39-.23-.86S57.54,127.79,57.69,127.8Z" transform="translate(-57.07 -0.22)"/><path class="cls-4" d="M57.88,129.05a1.83,1.83,0,0,0,0-.83h.5a2.8,2.8,0,0,1-.35.84Z" transform="translate(-57.07 -0.22)"/><path class="cls-2" d="M57.14,132.55c.13-.07.41.21.62.63a1.59,1.59,0,0,1,.16.4c.07.25.07.43,0,.48s-.42-.21-.63-.63S57,132.62,57.14,132.55Z" transform="translate(-57.07 -0.22)"/><path class="cls-4" d="M57.91,133.55a2.72,2.72,0,0,0-.38-.74l.44-.25a2.67,2.67,0,0,1,.11.92Z" transform="translate(-57.07 -0.22)"/><path class="cls-2" d="M60.81,136.33c.08-.13.46,0,.86.23a2.34,2.34,0,0,1,.34.26c.18.18.27.34.22.43s-.47,0-.86-.23S60.72,136.46,60.81,136.33Z" transform="translate(-57.07 -0.22)"/><path class="cls-4" d="M62,136.8a1.88,1.88,0,0,0-.71-.45c.09-.13.18-.27.27-.43a2.75,2.75,0,0,1,.55.73Z" transform="translate(-57.07 -0.22)"/><path class="cls-2" d="M66.51,139.42c0-.15.32-.34.78-.43a2.29,2.29,0,0,1,.43,0c.26,0,.44.06.45.16s-.32.34-.78.42S66.54,139.57,66.51,139.42Z" transform="translate(-57.07 -0.22)"/><path class="cls-4" d="M67.69,139a2.65,2.65,0,0,0-.82.17l-.12-.5a2.79,2.79,0,0,1,.91.15Z" transform="translate(-57.07 -0.22)"/><path class="cls-2" d="M71.44,137c-.08-.12.16-.44.54-.71a4,4,0,0,1,.37-.22c.23-.1.42-.12.48,0s-.15.44-.54.71S71.53,137.13,71.44,137Z" transform="translate(-57.07 -0.22)"/><path class="cls-4" d="M72.32,136.09a1.81,1.81,0,0,0-.68.49c-.09-.13-.19-.27-.3-.41a2.65,2.65,0,0,1,.88-.23Z" transform="translate(-57.07 -0.22)"/><path class="cls-2" d="M76,132.77c-.15,0-.17-.44-.06-.89a3.26,3.26,0,0,1,.14-.41c.11-.23.24-.37.33-.34s.18.43.06.89S76.19,132.81,76,132.77Z" transform="translate(-57.07 -0.22)"/><path class="cls-4" d="M76.11,131.51a2.65,2.65,0,0,0-.2.81l-.5-.1a2.89,2.89,0,0,1,.52-.77Z" transform="translate(-57.07 -0.22)"/><path class="cls-4" d="M64.3,131.59c.23.49.15,1-.18,1.17s-.79-.12-1-.61-.15-1,.18-1.18S64.07,131.09,64.3,131.59Z" transform="translate(-57.07 -0.22)"/><path class="cls-1" d="M63.84,131.18c.23.5.15,1-.18,1.18s-.79-.12-1-.61-.15-1,.19-1.18S63.61,130.69,63.84,131.18Z" transform="translate(-57.07 -0.22)"/><path class="cls-4" d="M61.65,126.55c.33-.43.83-.61,1.12-.39s.27.76-.06,1.19-.83.61-1.12.39S61.32,127,61.65,126.55Z" transform="translate(-57.07 -0.22)"/><path class="cls-1" d="M61.16,126.21c.33-.44.84-.61,1.13-.39s.26.75-.06,1.19-.84.61-1.13.39S60.83,126.64,61.16,126.21Z" transform="translate(-57.07 -0.22)"/><path class="cls-4" d="M67.34,133.45a.65.65,0,1,1-.87-.32A.66.66,0,0,1,67.34,133.45Z" transform="translate(-57.07 -0.22)"/><path class="cls-1" d="M67.19,133.13a.66.66,0,0,1-.32.87.65.65,0,1,1,.32-.87Z" transform="translate(-57.07 -0.22)"/><path class="cls-4" d="M68.8,126.37a.8.8,0,0,1-1.53-.48.8.8,0,0,1,1.53.48Z" transform="translate(-57.07 -0.22)"/><path class="cls-1" d="M68.92,126a.8.8,0,1,1-.52-1A.79.79,0,0,1,68.92,126Z" transform="translate(-57.07 -0.22)"/><path class="cls-4" d="M70.61,132.62a.49.49,0,0,1-.23.64.48.48,0,1,1,.23-.64Z" transform="translate(-57.07 -0.22)"/><path class="cls-1" d="M70.5,132.39a.49.49,0,0,1-.23.64.48.48,0,0,1-.4-.87A.47.47,0,0,1,70.5,132.39Z" transform="translate(-57.07 -0.22)"/><path class="cls-2" d="M76.17,126c-.13.06-.41-.21-.62-.63a2.56,2.56,0,0,1-.16-.4c-.06-.23-.06-.42,0-.46s.41.21.62.62S76.31,126,76.17,126Z" transform="translate(-57.07 -0.22)"/><path class="cls-4" d="M75.4,125a2.58,2.58,0,0,0,.38.73l-.44.25a2.67,2.67,0,0,1-.1-.91Z" transform="translate(-57.07 -0.22)"/><path class="cls-2" d="M72.43,122.28c-.08.13-.46,0-.85-.22a2.52,2.52,0,0,1-.34-.27c-.18-.17-.27-.33-.22-.41s.47,0,.85.22S72.51,122.16,72.43,122.28Z" transform="translate(-57.07 -0.22)"/><path class="cls-4" d="M71.27,121.82a1.83,1.83,0,0,0,.7.44,4.28,4.28,0,0,0-.26.42,2.73,2.73,0,0,1-.55-.71Z" transform="translate(-57.07 -0.22)"/><path class="cls-2" d="M68.65,119.45c0,.15-.39.25-.85.22a2.35,2.35,0,0,1-.42-.06c-.24-.07-.4-.16-.4-.26s.39-.25.85-.22S68.66,119.3,68.65,119.45Z" transform="translate(-57.07 -0.22)"/><path class="cls-4" d="M67.41,119.62a2.69,2.69,0,0,0,.83,0c0,.15,0,.32,0,.5a2.9,2.9,0,0,1-.84-.36Z" transform="translate(-57.07 -0.22)"/><path class="cls-2" d="M63.6,120.7c.07.13-.21.41-.62.62a2.08,2.08,0,0,1-.4.16c-.24.07-.42.07-.47,0s.21-.41.62-.62S63.53,120.57,63.6,120.7Z" transform="translate(-57.07 -0.22)"/><path class="cls-4" d="M62.62,121.47a1.78,1.78,0,0,0,.73-.38c.07.14.15.28.24.44a2.6,2.6,0,0,1-.9.1Z" transform="translate(-57.07 -0.22)"/><path class="cls-4" d="M71.47,130.36c0,.54-.34,1-.71.95s-.64-.47-.62-1,.35-1,.72-1S71.5,129.81,71.47,130.36Z" transform="translate(-57.07 -0.22)"/><path class="cls-1" d="M71.62,130c0,.55-.35,1-.71,1s-.65-.48-.62-1,.35-1,.71-1S71.65,129.45,71.62,130Z" transform="translate(-57.07 -0.22)"/><path class="cls-4" d="M67.42,128.78a1,1,0,1,1-1.32-.48A1,1,0,0,1,67.42,128.78Z" transform="translate(-57.07 -0.22)"/><path class="cls-1" d="M67.17,128.25a1,1,0,1,1-1.31-.47A1,1,0,0,1,67.17,128.25Z" transform="translate(-57.07 -0.22)"/><path class="cls-4" d="M72,132.59c.07,0,0,.23-.07.51a4.12,4.12,0,0,1-.73,1.06,6.61,6.61,0,0,1-.66.61,7.16,7.16,0,0,1-.86.58,6.7,6.7,0,0,1-2.26.77,6.51,6.51,0,0,1-2.39-.1,6.41,6.41,0,0,1-1-.3,7.65,7.65,0,0,1-.81-.4,3.93,3.93,0,0,1-1-.81c-.2-.23-.27-.4-.22-.46s.68.16,1.6.45c.23.08.48.15.75.22s.57.12.88.15a7.38,7.38,0,0,0,2,0,7.83,7.83,0,0,0,1.92-.56,6.47,6.47,0,0,0,.79-.4,7.59,7.59,0,0,0,.66-.42C71.43,132.94,71.88,132.48,72,132.59Z" transform="translate(-57.07 -0.22)"/><g class="cls-5"><path class="cls-4" d="M60.9,131.83a.61.61,0,0,1,.84.24.63.63,0,1,1-.84-.24Z" transform="translate(-57.07 -0.22)"/></g><path class="cls-1" d="M609.17,91.54c3-6.74,1.58-15.46-4-20.29s-15-4.72-20,.78a11.71,11.71,0,0,0-19.29-12.8l1.3-4a21.58,21.58,0,0,0-34.42,15.44c-7.16-4.8-18.07-1.37-22,6.29s-1.14,17.84,5.62,23.18,16.6,6,24.51,2.54c1.35,7.58,9.26,13.37,16.9,12.37s13.78-8.64,13.14-16.32c6.15,4.09,13.72,6.29,21,5.22S606.15,98.28,609.17,91.54Z" transform="translate(-57.07 -0.22)"/><path class="cls-6" d="M162.33.22h-3.51A25.37,25.37,0,0,1,158,3.4,31.39,31.39,0,0,1,162.33.22Z" transform="translate(-57.07 -0.22)"/><path class="cls-1" d="M158,3.4a25.37,25.37,0,0,0,.87-3.18H108.06L110.69,3c-12.44.55-23,13.07-21.43,25.42s14.91,21.85,27.1,19.28a23.74,23.74,0,0,0,45.05,8.49c8.4,7.23,22.4,6.66,30.18-1.24s8.15-21.9.8-30.2c7-6.23,5-18.37-2-24.52H162.33A31.39,31.39,0,0,0,158,3.4Z" transform="translate(-57.07 -0.22)"/></g></svg>