<svg xmlns="http://www.w3.org/2000/svg" viewBox="0 0 404.88 362.76"><defs><style>.cls-1{fill:#192a41;}.cls-2{fill:#ffbe9d;}.cls-3{fill:#eb996e;}.cls-4{fill:#fafafa;}.cls-5{fill:#d4eeff;}.cls-6{opacity:0.8;}.cls-7{fill:#55a5e2;}.cls-8{fill:#00b9eb;}.cls-9{opacity:0.3;}.cls-10{fill:#acd4f5;}.cls-11{opacity:0.2;}.cls-12{fill:#fff;}</style></defs><title>Corona-1</title><g id="Character_1" data-name="Character 1"><path class="cls-1" d="M282.11,112.74c-3.18,3.77-2.64,9.34-1.58,14.15s2.45,10,.5,14.51c-1.07,2.49-3,4.46-4.63,6.67s-2.82,5-2.1,7.58c.83,3,3.91,4.76,6.7,6.17-1.57,2.22-.93,5.53,1,7.44a9.42,9.42,0,0,0,7.59,2.25,23.2,23.2,0,0,0,7.69-2.65c4-2,8.07-4.6,9.55-8.79,1.24-3.49.37-7.35-.59-10.93a257.72,257.72,0,0,0-14.93-41.3" transform="translate(-15.16 -93.11)"/><path class="cls-2" d="M320.08,116.8l5.68,48.94-24.48,3c-.73-2.78-2.75-13.7-2.75-13.7s-10.34.49-12.51-9.51c-1-4.85-2.41-15.05-3.53-24.26a18.93,18.93,0,0,1,16.09-21h0A18.92,18.92,0,0,1,320.08,116.8Z" transform="translate(-15.16 -93.11)"/><path class="cls-3" d="M298.52,155.05a23.75,23.75,0,0,0,12.31-6.37s-1.62,7.84-11.8,9Z" transform="translate(-15.16 -93.11)"/><path class="cls-1" d="M286.93,128a1.46,1.46,0,0,0,1.67,1.16,1.39,1.39,0,0,0,1.21-1.59,1.46,1.46,0,0,0-1.67-1.17A1.4,1.4,0,0,0,286.93,128Z" transform="translate(-15.16 -93.11)"/><path class="cls-1" d="M285.71,126c.21.15,1.13-.87,2.67-1.18s2.83.22,3,0-.19-.4-.75-.66a4.1,4.1,0,0,0-2.42-.23,3.9,3.9,0,0,0-2.08,1.17C285.69,125.6,285.6,126,285.71,126Z" transform="translate(-15.16 -93.11)"/><path class="cls-1" d="M301.62,125.64a1.45,1.45,0,0,0,1.67,1.17,1.39,1.39,0,0,0,1.21-1.59,1.45,1.45,0,0,0-1.67-1.17A1.39,1.39,0,0,0,301.62,125.64Z" transform="translate(-15.16 -93.11)"/><path class="cls-1" d="M300.9,123.24c.22.15,1.14-.88,2.68-1.19s2.82.23,2.95,0-.18-.4-.75-.66a4.06,4.06,0,0,0-2.41-.24,3.87,3.87,0,0,0-2.08,1.18C300.89,122.8,300.8,123.17,300.9,123.24Z" transform="translate(-15.16 -93.11)"/><path class="cls-1" d="M297.64,135.8a10.24,10.24,0,0,0-2.59.06c-.4,0-.79,0-.91-.22a2.1,2.1,0,0,1,0-1.22c.18-1,.36-2.1.56-3.23.74-4.59,1.19-8.34,1-8.37s-.94,3.67-1.69,8.27c-.17,1.13-.34,2.21-.49,3.24a2.3,2.3,0,0,0,.11,1.58,1,1,0,0,0,.76.44,2.49,2.49,0,0,0,.69,0A9.93,9.93,0,0,0,297.64,135.8Z" transform="translate(-15.16 -93.11)"/><path class="cls-1" d="M302.39,135.94c-.25,0,.09,1.71-1.1,3.18s-3,1.66-3,1.9.46.24,1.22.11a4.27,4.27,0,0,0,2.5-1.49,3.66,3.66,0,0,0,.81-2.65C302.78,136.28,302.5,135.9,302.39,135.94Z" transform="translate(-15.16 -93.11)"/><path class="cls-1" d="M299.27,117.28c.24.39,1.73-.12,3.59-.27s3.41,0,3.57-.38c.07-.21-.26-.55-.93-.83a6.25,6.25,0,0,0-5.46.5C299.43,116.7,299.16,117.1,299.27,117.28Z" transform="translate(-15.16 -93.11)"/><path class="cls-1" d="M285.36,121.47c.34.29,1.33-.29,2.6-.57s2.41-.24,2.58-.66c.07-.2-.17-.51-.71-.75a3.77,3.77,0,0,0-2.24-.14,3.68,3.68,0,0,0-1.93,1.13C285.28,120.93,285.21,121.32,285.36,121.47Z" transform="translate(-15.16 -93.11)"/><path class="cls-2" d="M317.67,122.19c.16-.11,6.47-3.44,7.65,3.45s-6,6.66-6,6.46S317.67,122.19,317.67,122.19Z" transform="translate(-15.16 -93.11)"/><path class="cls-3" d="M321,129.13s.13.06.35.12a1.23,1.23,0,0,0,.9-.13,3,3,0,0,0,.92-2.9,4,4,0,0,0-.63-1.67,1.39,1.39,0,0,0-1.06-.76.61.61,0,0,0-.65.45c-.06.2,0,.33,0,.35s-.17-.09-.16-.38a.76.76,0,0,1,.2-.48.93.93,0,0,1,.63-.29,1.71,1.71,0,0,1,1.44.86,4.15,4.15,0,0,1,.74,1.85,3.14,3.14,0,0,1-1.24,3.27,1.3,1.3,0,0,1-1.13,0C321,129.29,320.93,129.15,321,129.13Z" transform="translate(-15.16 -93.11)"/><path class="cls-1" d="M301.83,105.6a14.35,14.35,0,0,0,7.94,12.12c1.07.52,2.3,1,2.89,2a8.43,8.43,0,0,1,.6,2.61,4.17,4.17,0,0,0,1.74,2.74,2.63,2.63,0,0,0,3.1-.16,6.36,6.36,0,0,0,1.22-2.37c.34-.83,1-1.68,1.92-1.63.38,0,.79.19,1.12,0a1.09,1.09,0,0,0,.42-.82A15,15,0,0,0,308,102.62a7.48,7.48,0,0,0-4.15,1,3.77,3.77,0,0,0-1.76,3.7" transform="translate(-15.16 -93.11)"/><path class="cls-1" d="M285.12,106.19c-.91.33-5.14,5.56-4.91,9.53.06,1,1.35,1.85,2.27,2.15a4.19,4.19,0,0,0,2.56-.21c3-.75,5.37-3,7.78-4.92s5.34-3.73,8.4-3.29c1.69.23,3.21,1.13,4.87,1.51s3.73.05,4.5-1.46a4.1,4.1,0,0,0,0-3.15,11.45,11.45,0,0,0-7.09-6.87,14.64,14.64,0,0,0-10,.35,20.62,20.62,0,0,0-8.14,6" transform="translate(-15.16 -93.11)"/><path class="cls-4" d="M290.08,133.46a6,6,0,0,0-4.77,4.76c-.5,2.55-1.07,6.22-.56,7.9a17.84,17.84,0,0,0,6.83,9.35c2.56,1.67,7.27,1,9.23.66,4.95-.86,10.26-11.12,9.91-13.25s-6.72-9.07-7.9-9.55C302,133,294.85,132.57,290.08,133.46Z" transform="translate(-15.16 -93.11)"/><path class="cls-1" d="M290.08,133.46a3.9,3.9,0,0,1,.78-.18c.52-.1,1.29-.21,2.29-.31a49.57,49.57,0,0,1,8.47,0,4.46,4.46,0,0,1,1.41.28,8.09,8.09,0,0,1,1.16.92c.72.67,1.43,1.4,2.14,2.18a33.42,33.42,0,0,1,4.14,5.33,2.8,2.8,0,0,1,.47,1.84,8.18,8.18,0,0,1-.5,1.82,24.06,24.06,0,0,1-1.65,3.44,22,22,0,0,1-5.05,6.22l-.86.59c-.3.18-.63.32-.94.48a8.44,8.44,0,0,1-1,.31c-.33.08-.66.12-1,.17a24.07,24.07,0,0,1-3.95.27,10,10,0,0,1-3.79-.73,11.67,11.67,0,0,1-3-2.19,18.77,18.77,0,0,1-3.85-5.55c-.22-.48-.42-1-.59-1.45a6.29,6.29,0,0,1-.37-1.48,14.81,14.81,0,0,1,0-2.84,40.56,40.56,0,0,1,.8-4.78,6.13,6.13,0,0,1,2-3.07,5.83,5.83,0,0,1,2-1.1,3.17,3.17,0,0,1,.8-.15s-.27.07-.76.25a6,6,0,0,0-3.78,4.15,40.47,40.47,0,0,0-.71,4.73,14.91,14.91,0,0,0,0,2.76,11,11,0,0,0,1,2.8,18.14,18.14,0,0,0,3.8,5.38,11.21,11.21,0,0,0,2.84,2.09,9.49,9.49,0,0,0,3.6.67,23.07,23.07,0,0,0,3.86-.27c.32-.05.66-.1,1-.17s.62-.16.91-.28.59-.28.87-.44l.82-.56a21.72,21.72,0,0,0,4.92-6.06,23.62,23.62,0,0,0,1.62-3.37,7.78,7.78,0,0,0,.49-1.7,2.35,2.35,0,0,0-.41-1.55,33.9,33.9,0,0,0-4-5.27c-.7-.78-1.39-1.51-2.1-2.17a7.48,7.48,0,0,0-1.06-.88,4.47,4.47,0,0,0-1.27-.26,56,56,0,0,0-8.42-.14c-1,.07-1.76.15-2.28.21A4.4,4.4,0,0,1,290.08,133.46Z" transform="translate(-15.16 -93.11)"/><path class="cls-1" d="M305.34,144.42s-.18.2-.56.5a11.81,11.81,0,0,1-1.72,1.08A17,17,0,0,1,290,147.07a11.65,11.65,0,0,1-1.88-.78c-.42-.23-.65-.37-.63-.4s1,.38,2.62.83a18.75,18.75,0,0,0,6.5.61,19.05,19.05,0,0,0,6.32-1.66C304.43,145,305.29,144.34,305.34,144.42Z" transform="translate(-15.16 -93.11)"/><path class="cls-1" d="M302.72,148.57a10.6,10.6,0,0,1-8.05,1.77c0-.15,1.87-.08,4.09-.58S302.64,148.43,302.72,148.57Z" transform="translate(-15.16 -93.11)"/><path class="cls-1" d="M300.19,136.42c0,.16-2.59-.16-5.73.26s-5.54,1.36-5.6,1.21a16.77,16.77,0,0,1,11.33-1.47Z" transform="translate(-15.16 -93.11)"/><path class="cls-1" d="M314.33,126.37a44.31,44.31,0,0,1-5.4,4,42.83,42.83,0,0,1-5.69,3.53,43.36,43.36,0,0,1,5.4-4A42.83,42.83,0,0,1,314.33,126.37Z" transform="translate(-15.16 -93.11)"/><path class="cls-1" d="M314.71,135.93a18.69,18.69,0,0,1-2,4,19.33,19.33,0,0,1-2.46,3.77,19.89,19.89,0,0,1,2-4A20.46,20.46,0,0,1,314.71,135.93Z" transform="translate(-15.16 -93.11)"/><path class="cls-5" d="M208.45,241.17C183.71,248.25,150.76,258,126,265.08a27,27,0,0,0-47.95-3.31c-12.19-8.46-28.82-10.89-42.3-4.68S13.1,278.63,15.56,293.27s17.49,26.47,32.12,24c-2,7.83-3.61,15.95-2.58,24s5.09,16,12.11,20,17.12,2.84,21.8-3.75c-3,8-1.12,17.16,3.29,24.43s11.13,12.87,18.21,17.58c6.62,4.41,13.83,8.23,21.68,9.52s16.45-.26,22.39-5.54,8.44-14.64,4.58-21.6c17.26-4.5,30.34-21.64,30.13-39.47s-13.67-34.66-31-38.77c5.39-3.23,5.71-10.77,8.46-16.43,2.64-5.43,7.7-9.22,12.57-12.8l40.54-29.75" transform="translate(-15.16 -93.11)"/><g class="cls-6"><path class="cls-5" d="M208.45,241.17C183.71,248.25,150.76,258,126,265.08a27,27,0,0,0-47.95-3.31c-12.19-8.46-28.82-10.89-42.3-4.68S13.1,278.63,15.56,293.27s17.49,26.47,32.12,24c-2,7.83-3.61,15.95-2.58,24s5.09,16,12.11,20,17.12,2.84,21.8-3.75c-3,8-1.12,17.16,3.29,24.43s11.13,12.87,18.21,17.58c6.62,4.41,13.83,8.23,21.68,9.52s16.45-.26,22.39-5.54,8.44-14.64,4.58-21.6c17.26-4.5,30.34-21.64,30.13-39.47s-13.67-34.66-31-38.77c5.39-3.23,5.71-10.77,8.46-16.43,2.64-5.43,7.7-9.22,12.57-12.8l40.54-29.75" transform="translate(-15.16 -93.11)"/></g><polygon class="cls-5" points="260.45 121.07 192.32 147.31 193.98 152.26 262.48 125.38 260.45 121.07"/><path class="cls-5" d="M198.57,282.74c-4.56-.27-9.37,1.4-11,5.64a11.21,11.21,0,0,0,3.22,12.41c-2.46-.32-4.75,1.88-5.16,4.33a9,9,0,0,0,2.22,6.87,15.23,15.23,0,0,0,26.89-6.72c5.8.44,11.17-5.53,10.1-11.25s-8.23-9.36-13.48-6.85a6.75,6.75,0,0,0-12.75-4.43" transform="translate(-15.16 -93.11)"/><g class="cls-6"><path class="cls-5" d="M198.57,282.74c-4.56-.27-9.37,1.4-11,5.64a11.21,11.21,0,0,0,3.22,12.41c-2.46-.32-4.75,1.88-5.16,4.33a9,9,0,0,0,2.22,6.87,15.23,15.23,0,0,0,26.89-6.72c5.8.44,11.17-5.53,10.1-11.25s-8.23-9.36-13.48-6.85a6.75,6.75,0,0,0-12.75-4.43" transform="translate(-15.16 -93.11)"/></g><path class="cls-5" d="M207,342.55a4.33,4.33,0,0,0-.66,8.63,4.39,4.39,0,0,0,4.72-4.12,4.32,4.32,0,0,0-4.62-4.19" transform="translate(-15.16 -93.11)"/><g class="cls-6"><path class="cls-5" d="M207,342.55a4.33,4.33,0,0,0-.66,8.63,4.39,4.39,0,0,0,4.72-4.12,4.32,4.32,0,0,0-4.62-4.19" transform="translate(-15.16 -93.11)"/></g><path class="cls-7" d="M399.84,392.75s-36.56-38.38-38.29-39.31-10.34,0-10.34,0-1.86-9.08-4.18-8.38-4.43,1.4-4.43,1.4l5.12-8.61-1.34-12.55c1.93-8.69,15.17-40.51,15.17-40.51s4.8-8.64,1.28-20.8-11.2-38.4-11.2-38.4,4.27-49.16,3-55.24c-.64-3-4.24-7.27-7.93-10.89l2,.13s-11-15.23-12.42-19.67c-1-3.1-3.8-15.37-5.4-22.49-1.49-6.6-4.94-14.52-10.28-18.67a26.57,26.57,0,0,0-15.91-5.65c-17.12,0-24.28,19.46-24.28,19.46s5.59-6.94,19.28-4.65c10.26,1.72,13.34,12,14.84,25.48.54,4.82-2,14.15-3.81,18.79s-6.66,9.09-6.66,9.09l-4.47,5.15h0a11.11,11.11,0,0,0-2.36,2.83c-.39,1.06-1.23,11.75-2,24.39-1.95,4-4.14,8.46-6.62,13.5l-48.36,26.12,7,16S278.81,243,294,238.42c-.06,4.18-.9,19.13-.27,27.35h0s4,93.08,4,99.24,12.33,71.06,12.33,71.06h32.27s1.95-23.88,3.05-44.32l38.82,23.11Z" transform="translate(-15.16 -93.11)"/><path class="cls-1" d="M323.77,128a5.25,5.25,0,0,1-.22,1.18c-.17.75-.44,1.84-.79,3.17a71.83,71.83,0,0,1-3.49,10.22,35.55,35.55,0,0,1-5.71,9.17,23.2,23.2,0,0,1-2.34,2.31,5,5,0,0,1-1,.72c-.06-.07,1.27-1.16,3-3.27a39.38,39.38,0,0,0,5.52-9.14,89.21,89.21,0,0,0,3.6-10.11l1-3.12A5.47,5.47,0,0,1,323.77,128Z" transform="translate(-15.16 -93.11)"/><path class="cls-1" d="M329.66,144.06a26.24,26.24,0,0,1-3.05,1.76c-1.9,1-4.52,2.49-7.37,4.16s-5.39,3.27-7.22,4.42a27.59,27.59,0,0,1-3,1.82,3.42,3.42,0,0,1,.72-.62c.48-.37,1.2-.88,2.09-1.5,1.78-1.24,4.3-2.88,7.16-4.57s5.51-3.08,7.46-4c1-.48,1.77-.85,2.33-1.1A3.58,3.58,0,0,1,329.66,144.06Z" transform="translate(-15.16 -93.11)"/><path class="cls-1" d="M334.94,239a13.19,13.19,0,0,1-1.71.44c-.56.11-1.24.27-2,.5s-1.66.44-2.61.79-2,.69-3.1,1.17-2.24,1-3.44,1.58a51.88,51.88,0,0,0-7.35,4.63,52.47,52.47,0,0,0-6.38,5.88c-.87,1-1.73,2-2.43,2.92s-1.36,1.85-1.92,2.69-1,1.63-1.45,2.32-.75,1.29-1,1.8a10.29,10.29,0,0,1-.87,1.54,12.12,12.12,0,0,1,.69-1.63,17.14,17.14,0,0,1,.94-1.86c.4-.7.81-1.53,1.39-2.37a32.56,32.56,0,0,1,1.89-2.75c.69-1,1.54-1.94,2.41-3a50.62,50.62,0,0,1,6.43-6,49.85,49.85,0,0,1,7.44-4.64c1.22-.57,2.37-1.14,3.5-1.55s2.17-.81,3.15-1.12,1.87-.52,2.65-.72a17.2,17.2,0,0,1,2-.42A10.57,10.57,0,0,1,334.94,239Z" transform="translate(-15.16 -93.11)"/><path class="cls-1" d="M317.8,227.48a2.06,2.06,0,0,1-.26.4l-.83,1.08c-.73.92-1.77,2.27-3,4a124.77,124.77,0,0,0-8.84,13.84A126.44,126.44,0,0,0,298,261.68c-.76,2-1.34,3.56-1.73,4.68-.18.5-.33.93-.46,1.27a2.56,2.56,0,0,1-.19.44,1.36,1.36,0,0,1,.09-.47c.1-.35.22-.79.37-1.3.32-1.14.86-2.76,1.57-4.75a108.1,108.1,0,0,1,15.8-28.84c1.29-1.68,2.37-3,3.16-3.88.35-.41.65-.74.9-1A1.73,1.73,0,0,1,317.8,227.48Z" transform="translate(-15.16 -93.11)"/><path class="cls-1" d="M340.36,256.54s-.13.12-.38.3l-1.14.76c-1,.66-2.43,1.6-4.18,2.81a154.86,154.86,0,0,0-13.14,10.14c-2.45,2.11-4.73,4.2-6.74,6.16a49.6,49.6,0,0,0-5,5.49,23.87,23.87,0,0,0-2.65,4.24c-.51,1.07-.73,1.69-.77,1.67a1.51,1.51,0,0,1,.11-.46c.09-.31.25-.74.47-1.3a22,22,0,0,1,2.54-4.37,47.46,47.46,0,0,1,5-5.61c2-2,4.28-4.1,6.74-6.22a129.79,129.79,0,0,1,13.27-10c1.78-1.18,3.25-2.08,4.28-2.68l1.19-.68A2.18,2.18,0,0,1,340.36,256.54Z" transform="translate(-15.16 -93.11)"/><path class="cls-8" d="M379.81,415.81s-13.74,17.93-7,22.35,10.26,2.12,11.89,1.65,34.67-38.25,34.67-38.25,2.88-11.15-3.4-11.15-18.54-.17-18.54-.17Z" transform="translate(-15.16 -93.11)"/><path class="cls-1" d="M338.23,176.59a4.41,4.41,0,0,1-.09.85c-.09.59-.2,1.4-.35,2.41s-.45,2.3-.73,3.78-.72,3.13-1.27,4.94a86.9,86.9,0,0,1-23.49,38.77,56.13,56.13,0,0,1-10.55,8.07,34,34,0,0,1-8.25,3.47,23.67,23.67,0,0,1-2.39.49,4.08,4.08,0,0,1-.84.1s.28-.08.82-.2,1.34-.31,2.35-.59a35.81,35.81,0,0,0,8.13-3.59A56.57,56.57,0,0,0,312,227a86.63,86.63,0,0,0,10.57-12.24,88.38,88.38,0,0,0,12.9-26.28c.58-1.8.95-3.46,1.34-4.91s.62-2.72.82-3.75l.45-2.39A4.39,4.39,0,0,1,338.23,176.59Z" transform="translate(-15.16 -93.11)"/><path class="cls-1" d="M307.7,209.52a12.53,12.53,0,0,0-1.89-2.77,10.49,10.49,0,0,0-7.22-3,15.37,15.37,0,0,0-7.68,2.18c-1.81,1-2.81,1.88-2.87,1.8a2.93,2.93,0,0,1,.65-.64,17.26,17.26,0,0,1,2-1.48,14.83,14.83,0,0,1,7.88-2.39,10.43,10.43,0,0,1,7.48,3.3,7.33,7.33,0,0,1,1.36,2.13A2.84,2.84,0,0,1,307.7,209.52Z" transform="translate(-15.16 -93.11)"/><path class="cls-1" d="M302.58,174a8.59,8.59,0,0,1-.52,1.33c-.36.85-.87,2.07-1.48,3.6-1.23,3-2.74,7.31-4.44,12a107,107,0,0,1-5,11.85c-.76,1.46-1.41,2.63-1.9,3.41a7.63,7.63,0,0,1-.8,1.18,7.92,7.92,0,0,1,.62-1.28c.44-.81,1-2,1.75-3.47,1.42-3,3.13-7.15,4.83-11.87s3.27-9,4.59-12c.66-1.5,1.22-2.71,1.64-3.53A6.69,6.69,0,0,1,302.58,174Z" transform="translate(-15.16 -93.11)"/><path class="cls-1" d="M311.57,211.23a11.27,11.27,0,0,1-2.63,0,52.94,52.94,0,0,1-6.31-.75,51.89,51.89,0,0,1-6.17-1.48,10.94,10.94,0,0,1-2.47-.92,15.63,15.63,0,0,1,2.56.57c1.57.39,3.75.89,6.17,1.32s4.64.71,6.25.89A17.4,17.4,0,0,1,311.57,211.23Z" transform="translate(-15.16 -93.11)"/><path class="cls-1" d="M336.11,171.6c-.08,0-.38-.9-1.08-2.27a18.56,18.56,0,0,0-8.47-8.27c-1.4-.67-2.33-.95-2.3-1a7.42,7.42,0,0,1,2.45.69,16.62,16.62,0,0,1,8.65,8.45A7.57,7.57,0,0,1,336.11,171.6Z" transform="translate(-15.16 -93.11)"/><path class="cls-1" d="M344.53,192.75c.19-.05.86,3.92,3.2,8.18s5.46,6.83,5.32,7a8.84,8.84,0,0,1-2-1.67,23.08,23.08,0,0,1-3.78-5,25.15,25.15,0,0,1-2.3-5.86A9.86,9.86,0,0,1,344.53,192.75Z" transform="translate(-15.16 -93.11)"/><path class="cls-1" d="M351.63,225.59s-.27-.2-.69-.63-1-1.05-1.72-1.86a47.24,47.24,0,0,1-4.91-6.75,41.18,41.18,0,0,1-3.52-7.58c-.35-1-.6-1.85-.74-2.43a2.93,2.93,0,0,1-.18-.91c.08,0,.49,1.23,1.26,3.21a52.87,52.87,0,0,0,3.62,7.44,63.32,63.32,0,0,0,4.76,6.79A29.87,29.87,0,0,1,351.63,225.59Z" transform="translate(-15.16 -93.11)"/><g class="cls-9"><path d="M327.82,225.78A42.65,42.65,0,0,0,342,248.12c5.84,4.77,13.34,8.47,16,15.54a12.3,12.3,0,0,0,1.48,3.35c.75,1,3,.76,4.11.15l-5.47-19.39Z" transform="translate(-15.16 -93.11)"/></g><path class="cls-1" d="M349.18,176.54a58.15,58.15,0,0,0-.17-6.26,55.6,55.6,0,0,0-1.38-6.11,5.4,5.4,0,0,1,.83,1.67,19.49,19.49,0,0,1,1.07,4.37,20,20,0,0,1,0,4.5A5.08,5.08,0,0,1,349.18,176.54Z" transform="translate(-15.16 -93.11)"/><g class="cls-9"><path d="M292.9,242.9c11.93-2.36,23.56-10.05,31.23-19.49s11.55-22.47,11.42-34.64c-3.62,10.73-8.8,21.8-16.09,30.47s-15.3,16.6-26.19,19.73" transform="translate(-15.16 -93.11)"/></g><path class="cls-1" d="M351.74,309.42a.73.73,0,0,1-.05.22c-.05.17-.11.38-.19.63-.19.59-.46,1.39-.79,2.4-.69,2.14-1.68,5.15-2.9,8.86l-4.32,13.19c-.82,2.48-1.7,5.08-2.65,7.78s-1.63,5.56-2.38,8.49l0-.2.85,1.38c.8,1.34,1.58,2.68,2.26,4.06s1.25,2.77,1.77,4.16a47.23,47.23,0,0,1,2.3,8.22,64.17,64.17,0,0,1,.82,14.38c-.17,4.1-.52,7.41-.77,9.69-.13,1.1-.24,2-.32,2.62l-.1.68c0,.15,0,.23-.05.22a.68.68,0,0,1,0-.23c0-.19,0-.41.05-.69,0-.64.13-1.52.22-2.62.18-2.29.47-5.59.6-9.68a65.14,65.14,0,0,0-.93-14.29,47.32,47.32,0,0,0-2.29-8.12c-.53-1.37-1.13-2.74-1.77-4.11s-1.44-2.69-2.24-4c-.29-.47-.57-.94-.84-1.37l-.06-.1,0-.1c.76-2.95,1.46-5.83,2.42-8.54s1.82-5.29,2.67-7.77c1.67-4.94,3.17-9.39,4.43-13.14s2.31-6.74,3.06-8.81c.36-1,.66-1.79.87-2.38.1-.24.18-.44.24-.61A1,1,0,0,1,351.74,309.42Z" transform="translate(-15.16 -93.11)"/><path class="cls-1" d="M337.73,351.76a5.65,5.65,0,0,1-.9-.88c-.55-.58-1.31-1.47-2.19-2.6a47,47,0,0,1-9-20.42c-.25-1.42-.39-2.58-.45-3.38a5.43,5.43,0,0,1,0-1.25c.09,0,.27,1.76.85,4.56a52.59,52.59,0,0,0,8.94,20.27C336.61,350.37,337.8,351.7,337.73,351.76Z" transform="translate(-15.16 -93.11)"/><path class="cls-1" d="M304.44,386.37a6.46,6.46,0,0,1,.58,1.23c.39.9.87,2,1.46,3.4,1.24,2.86,3,6.78,5.29,11s4.49,7.87,6.17,10.5l2,3.1a6.75,6.75,0,0,1,.7,1.16,6.43,6.43,0,0,1-.87-1.05c-.53-.69-1.27-1.72-2.15-3a113.65,113.65,0,0,1-11.5-21.54c-.58-1.45-1-2.64-1.31-3.46A7.61,7.61,0,0,1,304.44,386.37Z" transform="translate(-15.16 -93.11)"/><g class="cls-9"><path d="M311.34,153.64a42.65,42.65,0,0,0,11-20.85c.33-1.6.78-3.49,2.31-4.07a3,3,0,0,1,3.16.93,6,6,0,0,1,1.29,3.2c.68,5-1.89,10-5.54,13.51s-8.29,5.74-12.84,7.93" transform="translate(-15.16 -93.11)"/></g><path class="cls-1" d="M314.27,106a1.64,1.64,0,0,1,.18.45c.11.35.24.78.41,1.3s.37,1.26.56,2.08.45,1.74.63,2.79a65.19,65.19,0,0,1,1.07,7.36,68.1,68.1,0,0,1-.86,18.18,65.77,65.77,0,0,1-1.76,7.23c-.28,1-.62,1.92-.89,2.72s-.53,1.47-.76,2-.38.91-.53,1.25a2.07,2.07,0,0,1-.21.43,1.47,1.47,0,0,1,.11-.47c.12-.35.27-.77.44-1.28s.44-1.24.68-2,.55-1.71.81-2.73a73.82,73.82,0,0,0,1.63-7.22,80.06,80.06,0,0,0,1-9,78.75,78.75,0,0,0-.14-9.05,72.94,72.94,0,0,0-.95-7.33c-.16-1-.38-2-.55-2.79s-.33-1.53-.48-2.1-.23-1-.31-1.32A2.07,2.07,0,0,1,314.27,106Z" transform="translate(-15.16 -93.11)"/><g class="cls-9"><path d="M346.12,391.49c1,2.7,5.08,2.95,7.22,1s2.74-5,2.93-7.85A45.56,45.56,0,0,0,348.39,356c-3-4.37-7.1-9.57-7.34-14.89.25-.43-3,9.43-3,9.43.46,3.16,2.77,3.26,4.31,8.27,3,9.87,4.54,20.77,3,31" transform="translate(-15.16 -93.11)"/></g><g class="cls-9"><path d="M330.53,341.13a15.76,15.76,0,0,0,1.41,2.79c-.1-4.27-.11-10.27-1.31-14.37l-5.91-20.13c-1.19,11.43,1.27,21.84,5.81,31.71" transform="translate(-15.16 -93.11)"/></g><path class="cls-8" d="M346.05,444.75c-.24-1.21-3.67-8.68-3.67-8.68H310.11s-42.37,11.1-33.67,19.8l73.48-.23C349.92,451.77,346.29,446,346.05,444.75Z" transform="translate(-15.16 -93.11)"/><path class="cls-1" d="M342.13,435a6.4,6.4,0,0,1-1.13.67,34.1,34.1,0,0,1-3.28,1.47,37.73,37.73,0,0,1-11.59,2.42,36.51,36.51,0,0,1-11.77-1.31,9.8,9.8,0,0,1-3.24-1.59,6.73,6.73,0,0,1-.73-.67c-.14-.17-.21-.27-.2-.28s.35.32,1,.78a11,11,0,0,0,3.23,1.41,39.84,39.84,0,0,0,11.64,1.14,41.27,41.27,0,0,0,11.49-2.25c1.42-.5,2.55-1,3.32-1.3A6.39,6.39,0,0,1,342.13,435Z" transform="translate(-15.16 -93.11)"/><path class="cls-1" d="M313.65,437.74c0,.09-1.16.27-3,.78a29.73,29.73,0,0,0-12.67,7.2c-1.36,1.3-2.11,2.21-2.18,2.16s.13-.27.45-.7a19,19,0,0,1,1.47-1.72,26,26,0,0,1,12.84-7.3,18.8,18.8,0,0,1,2.22-.39A3,3,0,0,1,313.65,437.74Z" transform="translate(-15.16 -93.11)"/><path class="cls-1" d="M308.86,448.3a17.34,17.34,0,0,1,2.33-5.44,17.55,17.55,0,0,1,3.62-4.7c.12.11-1.54,2.16-3.17,5S309,448.36,308.86,448.3Z" transform="translate(-15.16 -93.11)"/><path class="cls-1" d="M320.52,450.2a32.7,32.7,0,0,0,.07-5.28,32,32,0,0,0-1.3-5.11,11.88,11.88,0,0,1,1.23,10.39Z" transform="translate(-15.16 -93.11)"/><path class="cls-1" d="M332.67,450.62a30.23,30.23,0,0,0-.42-5.71,31.61,31.61,0,0,0-2-5.37,12.83,12.83,0,0,1,2.4,11.08Z" transform="translate(-15.16 -93.11)"/><path class="cls-1" d="M397.69,391.06a4.58,4.58,0,0,1,.06,1.18,21.47,21.47,0,0,1-.33,3.22,31.29,31.29,0,0,1-3.54,10.05,16.48,16.48,0,0,1-8,7,11.17,11.17,0,0,1-3.15.79,4,4,0,0,1-1.19,0,18,18,0,0,0,4.2-1.13,16.89,16.89,0,0,0,7.66-6.88,34.34,34.34,0,0,0,3.63-9.86C397.61,392.74,397.6,391.05,397.69,391.06Z" transform="translate(-15.16 -93.11)"/><path class="cls-1" d="M389,425.51a6.15,6.15,0,0,1-1.11-1.8,16.22,16.22,0,0,1-1.41-4.91,16.39,16.39,0,0,1,.2-5.1,5.9,5.9,0,0,1,.65-2,27.21,27.21,0,0,0-.33,7.05A27.8,27.8,0,0,0,389,425.51Z" transform="translate(-15.16 -93.11)"/><path class="cls-1" d="M378,426.13A7.06,7.06,0,0,1,378,424a18.62,18.62,0,0,1,1.38-5,16.09,16.09,0,0,1,2.86-4.38,6.67,6.67,0,0,1,1.63-1.43c.14.13-2.41,2.32-4,6S378.15,426.17,378,426.13Z" transform="translate(-15.16 -93.11)"/><path class="cls-1" d="M403.18,407.67c-.07.05-.45-.39-1.19-.94a8.9,8.9,0,0,0-6.74-1.69,9.8,9.8,0,0,1-1.49.27,3.12,3.12,0,0,1,1.42-.63,7.7,7.7,0,0,1,3.74,0,7.79,7.79,0,0,1,3.31,1.75A3.1,3.1,0,0,1,403.18,407.67Z" transform="translate(-15.16 -93.11)"/><path class="cls-1" d="M407.68,397.44a14.73,14.73,0,0,1-1.78-.27,12.19,12.19,0,0,0-4.25.2,12.34,12.34,0,0,0-3.92,1.65,13.45,13.45,0,0,1-1.48,1c-.05,0,.37-.61,1.27-1.32a10.48,10.48,0,0,1,4-1.86,10.34,10.34,0,0,1,4.43-.05A4.25,4.25,0,0,1,407.68,397.44Z" transform="translate(-15.16 -93.11)"/><path class="cls-1" d="M368.12,359.83a4.92,4.92,0,0,1-.82-.77l-2.13-2.19a32,32,0,0,0-3.32-3,2.38,2.38,0,0,0-.5-.29,5.43,5.43,0,0,0-.61-.17,9.52,9.52,0,0,0-1.32-.17,27.22,27.22,0,0,0-2.85,0c-3.95.14-7.52.24-10.1.28l-3.07,0a4.34,4.34,0,0,1-1.12-.07,5.37,5.37,0,0,1,1.12-.14l3.05-.19c2.59-.14,6.15-.29,10.1-.43a28.09,28.09,0,0,1,2.9,0,9.26,9.26,0,0,1,1.4.2,5.46,5.46,0,0,1,.66.19,3,3,0,0,1,.62.35,28.33,28.33,0,0,1,3.3,3.18c.88.95,1.56,1.75,2,2.31A4.57,4.57,0,0,1,368.12,359.83Z" transform="translate(-15.16 -93.11)"/><path class="cls-1" d="M344.77,159.29a29.4,29.4,0,0,1,12.93-13.41c3-1.57,6.81-2.56,9.71-.78s3.71,5.51,4.14,8.86a125,125,0,0,1,.85,22.63h3.87s-.25-20.37-.77-24.76c-.43-3.54-3.14-12-9.82-12.52-8.52-.67-16.5,3.89-23.87,18.53" transform="translate(-15.16 -93.11)"/><path class="cls-1" d="M374.77,264.7h0c-10.87,0-19.69-8.81-19.69-22.41V180.61c0-8.15,8.82-17,19.69-17h0a19.69,19.69,0,0,1,19.69,19.69V245A19.69,19.69,0,0,1,374.77,264.7Z" transform="translate(-15.16 -93.11)"/><path class="cls-1" d="M322.74,151.67c-24.05,5.47-22.53,27.68-22.53,27.68,4.66-8.21,5.07-21.06,26.39-23,16.06-1.45,30.76,17,30.76,17l2.47-3.36C354.7,163.11,343.18,147,322.74,151.67Z" transform="translate(-15.16 -93.11)"/><path class="cls-1" d="M326.94,208.49l-5.1,7.7S338,250.44,359,250.63l.55-.34-3.1-9.19s-21.88-15-29.46-32.61" transform="translate(-15.16 -93.11)"/><path class="cls-1" d="M370.48,164.66a5.09,5.09,0,0,1-.29-1.31,25.44,25.44,0,0,1-.22-3.65c0-1.54.07-3.37,0-5.38a14.64,14.64,0,0,0-1.63-6.23,8.07,8.07,0,0,0-2.14-2.51,6.82,6.82,0,0,0-2.78-1.25,10.86,10.86,0,0,0-5.23.37,30.34,30.34,0,0,0-3.39,1.27,7.34,7.34,0,0,1-1.25.49,7,7,0,0,1,1.17-.67,22.79,22.79,0,0,1,3.36-1.44,11,11,0,0,1,5.43-.49,7.2,7.2,0,0,1,3,1.31,8.53,8.53,0,0,1,2.28,2.66,14.76,14.76,0,0,1,1.66,6.46c.08,2.05,0,3.89-.07,5.42a33.13,33.13,0,0,0,.05,3.62A10.85,10.85,0,0,1,370.48,164.66Z" transform="translate(-15.16 -93.11)"/><path class="cls-1" d="M380.27,263.62c-.14,0-.26-22.15-.26-49.47s.12-49.47.26-49.47.26,22.15.26,49.47S380.41,263.62,380.27,263.62Z" transform="translate(-15.16 -93.11)"/><path class="cls-1" d="M394.19,218.21a10,10,0,0,1-1.44.57c-.94.34-2.32.76-4.05,1.22a67.09,67.09,0,0,1-13.78,2.05,66,66,0,0,1-13.91-.9c-1.76-.31-3.17-.62-4.14-.88a9.33,9.33,0,0,1-1.48-.44,8,8,0,0,1,1.53.24c1,.2,2.39.45,4.14.72a72.87,72.87,0,0,0,27.55-1.15c1.73-.41,3.12-.78,4.08-1.06A8.1,8.1,0,0,1,394.19,218.21Z" transform="translate(-15.16 -93.11)"/><path class="cls-1" d="M393.92,190.91a7.63,7.63,0,0,1-1.33.62c-.86.38-2.14.84-3.74,1.35a55,55,0,0,1-5.72,1.45,59.26,59.26,0,0,1-7.18.91,57.85,57.85,0,0,1-7.24,0,52.5,52.5,0,0,1-5.85-.75,39.56,39.56,0,0,1-3.88-.89,6.85,6.85,0,0,1-1.39-.45,8.52,8.52,0,0,1,1.44.26c.91.2,2.24.46,3.89.72s3.62.49,5.83.63a63.44,63.44,0,0,0,7.17,0,65.21,65.21,0,0,0,7.12-.86c2.17-.41,4.1-.87,5.71-1.33s2.89-.87,3.77-1.19A8,8,0,0,1,393.92,190.91Z" transform="translate(-15.16 -93.11)"/><path class="cls-10" d="M240.26,233.32s-7.43-6.69-8.43-6.39-4.65-.46-6.41.54-5.53,5-5.53,5,1,1.64,4.15.82a17.33,17.33,0,0,0,4.52-1.7s-7.72,7.86-8.67,9.55c-.35.62-.16,3,1.47,3.48a6,6,0,0,0,4.31-.72s-.12,3.27,2.51,3.9a7.8,7.8,0,0,0,4.28,0s-.38,4.37,3,4.32h2.14a3.64,3.64,0,0,0,2.65,1.84c2.13.5,7.4-4.74,7.4-4.74Z" transform="translate(-15.16 -93.11)"/><path class="cls-1" d="M240.26,233.32s.06.08.16.27l.4.81,1.53,3.16,5.49,11.61,0,.12-.09.1a31.92,31.92,0,0,1-4.53,3.75,9.34,9.34,0,0,1-1.39.77,2.92,2.92,0,0,1-1.7.29,4.08,4.08,0,0,1-2.79-2l.22.15h-2a3.22,3.22,0,0,1-2-.58,3.32,3.32,0,0,1-1.16-1.84,6.55,6.55,0,0,1-.22-2.17l.34.26a8.35,8.35,0,0,1-4.7-.07,3.24,3.24,0,0,1-1.89-1.63,5.52,5.52,0,0,1-.55-2.44l.4.24a6.38,6.38,0,0,1-4.11.85,2.58,2.58,0,0,1-1.15-.51,2.67,2.67,0,0,1-.74-1,3.75,3.75,0,0,1-.31-1.18,2.47,2.47,0,0,1,.16-1.26,30.9,30.9,0,0,1,2.88-3.46c2-2.16,3.94-4.2,5.85-6.14l.3.37a19.3,19.3,0,0,1-4.55,1.71,5.94,5.94,0,0,1-2.37.2,3,3,0,0,1-2.07-1.12l-.1-.13.13-.13c1.28-1.35,2.55-2.6,3.83-3.72a10.12,10.12,0,0,1,2-1.46,6.79,6.79,0,0,1,2.35-.42c.76,0,1.49,0,2.19.06.35,0,.69,0,1,0a3.64,3.64,0,0,0,.48,0,2.08,2.08,0,0,1,.26,0,1.22,1.22,0,0,1,.3.06,8.61,8.61,0,0,1,1.63,1c.48.35.93.7,1.35,1,1.68,1.35,2.95,2.48,3.8,3.25l1,.89a2.22,2.22,0,0,1,.31.33,2.32,2.32,0,0,1-.36-.28l-1-.84c-.88-.74-2.17-1.83-3.87-3.15a15.66,15.66,0,0,0-2.93-1.93.55.55,0,0,0-.4,0,4.73,4.73,0,0,1-.52,0c-.35,0-.69,0-1,0-.7,0-1.42,0-2.16,0a6.35,6.35,0,0,0-2.2.41,9,9,0,0,0-1.93,1.42c-1.26,1.11-2.51,2.37-3.78,3.71l0-.27a2.56,2.56,0,0,0,1.75.9,5.67,5.67,0,0,0,2.19-.2,19,19,0,0,0,4.41-1.67l1.49-.83-1.18,1.21c-1.9,2-3.86,4-5.83,6.15a32.8,32.8,0,0,0-2.8,3.36c-.36,1.15.25,3,1.7,3.2a5.89,5.89,0,0,0,3.73-.79l.39-.22v.45c0,1.49.65,3.15,2.08,3.56a7.9,7.9,0,0,0,4.36.09l.35-.11v.37a4.24,4.24,0,0,0,1.18,3.57,2.69,2.69,0,0,0,1.75.49h2.12l.07.15a3.67,3.67,0,0,0,2.46,1.7,4.57,4.57,0,0,0,2.75-1,32,32,0,0,0,4.48-3.66l0,.22c-2.22-4.87-4-8.85-5.31-11.65q-.91-2.06-1.44-3.21l-.36-.85A1.36,1.36,0,0,1,240.26,233.32Z" transform="translate(-15.16 -93.11)"/><path class="cls-1" d="M247,246a7.86,7.86,0,0,1-1.32-1.71,39.24,39.24,0,0,1-2.55-4.53,38.09,38.09,0,0,1-1.93-4.82,8.12,8.12,0,0,1-.51-2.1c.15-.05,1.16,3.07,2.91,6.7S247.14,245.93,247,246Z" transform="translate(-15.16 -93.11)"/><path class="cls-1" d="M229.32,240.47c.08.12-.86.91-2,1.89a9.84,9.84,0,0,1-2.15,1.7A5.94,5.94,0,0,1,227,242,5.85,5.85,0,0,1,229.32,240.47Z" transform="translate(-15.16 -93.11)"/><path class="cls-1" d="M236.26,245.51a10.28,10.28,0,0,1-2.24,1.33,10.09,10.09,0,0,1-2.31,1.2c-.09-.11.77-.94,2.06-1.65A5.07,5.07,0,0,1,236.26,245.51Z" transform="translate(-15.16 -93.11)"/><path class="cls-1" d="M240.69,249.82c.07.13-.65.61-1.48,1.25s-1.46,1.23-1.57,1.13.38-.86,1.25-1.54S240.63,249.69,240.69,249.82Z" transform="translate(-15.16 -93.11)"/></g><g id="Virus"><circle class="cls-8" cx="83.55" cy="428.99" r="7.35" transform="translate(-68.2 -79.28) rotate(-7.19)"/><g class="cls-11"><path class="cls-12" d="M88.37,431.73c-.34-.18-.26-.92-.36-1.93,0-.12,0-.25,0-.39s0-.27-.07-.41-.12-.57-.21-.87a6.37,6.37,0,0,0-.85-1.74,6.16,6.16,0,0,0-1.4-1.35,7.83,7.83,0,0,0-.76-.47l-.37-.19c-.13-.05-.24-.12-.36-.16-.93-.4-1.66-.56-1.72-.93a.32.32,0,0,1,.09-.28,1,1,0,0,1,.37-.29,3.36,3.36,0,0,1,1.57-.34,5,5,0,0,1,.54,0l.58.09a5.86,5.86,0,0,1,1.24.42,6,6,0,0,1,1.25.77A6.39,6.39,0,0,1,89,424.83a6.2,6.2,0,0,1,.75,1.41,6,6,0,0,1,.35,1.43,6.34,6.34,0,0,1,0,1.3,4.65,4.65,0,0,1-.1.58,3.57,3.57,0,0,1-.14.52,3.34,3.34,0,0,1-.81,1.39,1.1,1.1,0,0,1-.39.27A.36.36,0,0,1,88.37,431.73Z" transform="translate(-15.16 -93.11)"/></g><path class="cls-8" d="M79.42,419.27c.08.14-.18.45-.6.71a1.86,1.86,0,0,1-.4.2c-.25.1-.44.11-.5,0s.19-.45.6-.7S79.34,419.14,79.42,419.27Z" transform="translate(-15.16 -93.11)"/><path class="cls-8" d="M79.39,423a13.07,13.07,0,0,0-1-2.88l.75-.45a10.93,10.93,0,0,0,2,2.38A13.24,13.24,0,0,0,79.39,423Z" transform="translate(-15.16 -93.11)"/><g class="cls-9"><path d="M78.45,420.17a2.79,2.79,0,0,0,.74-.47c.09.14.19.29.3.44a3,3,0,0,1-.94.2Z" transform="translate(-15.16 -93.11)"/></g><path class="cls-8" d="M75.84,423.56c.14.07.07.48-.16.91a2.75,2.75,0,0,1-.24.38c-.17.2-.33.31-.42.27s-.07-.49.16-.92S75.7,423.48,75.84,423.56Z" transform="translate(-15.16 -93.11)"/><path class="cls-8" d="M77,426a7,7,0,0,0-1.57-1.2l.42-.77a4.75,4.75,0,0,0,1.93.62A9.85,9.85,0,0,0,77,426Z" transform="translate(-15.16 -93.11)"/><g class="cls-9"><path d="M75.46,424.82a1.92,1.92,0,0,0,.4-.78l.47.24a2.87,2.87,0,0,1-.7.63Z" transform="translate(-15.16 -93.11)"/></g><path class="cls-8" d="M73.22,427.79c.16,0,.3.39.31.87a1.59,1.59,0,0,1,0,.45c0,.26-.12.44-.23.44s-.3-.38-.31-.87S73.06,427.79,73.22,427.79Z" transform="translate(-15.16 -93.11)"/><path class="cls-8" d="M76.45,429.71a12.54,12.54,0,0,0-3-.63l0-.88a10.87,10.87,0,0,0,3.07-.53A14.27,14.27,0,0,0,76.45,429.71Z" transform="translate(-15.16 -93.11)"/><g class="cls-9"><path d="M73.51,429.08a2.82,2.82,0,0,0,0-.88l.54,0a2.8,2.8,0,0,1-.31.91Z" transform="translate(-15.16 -93.11)"/></g><path class="cls-8" d="M75,433c.13-.09.45.18.71.59a1.86,1.86,0,0,1,.2.4c.1.25.11.44,0,.5s-.45-.18-.71-.6S74.87,433.06,75,433Z" transform="translate(-15.16 -93.11)"/><path class="cls-8" d="M77.72,433.2a7.26,7.26,0,0,0-1.83.75l-.45-.75a4.68,4.68,0,0,0,1.5-1.35A10.72,10.72,0,0,0,77.72,433.2Z" transform="translate(-15.16 -93.11)"/><g class="cls-9"><path d="M75.91,433.94a2,2,0,0,0-.47-.74,4.73,4.73,0,0,0,.44-.29,2.7,2.7,0,0,1,.19.93Z" transform="translate(-15.16 -93.11)"/></g><path class="cls-8" d="M79,438.41c0-.15.46-.18.93-.05a2.41,2.41,0,0,1,.43.15c.23.11.38.24.35.34s-.45.18-.92.06S79,438.57,79,438.41Z" transform="translate(-15.16 -93.11)"/><path class="cls-8" d="M81.76,435.84a12.75,12.75,0,0,0-1.42,2.67l-.85-.23a10.8,10.8,0,0,0,.34-3.09A13.78,13.78,0,0,0,81.76,435.84Z" transform="translate(-15.16 -93.11)"/><g class="cls-9"><path d="M80.34,438.49a2.84,2.84,0,0,0-.85-.21c0-.16.08-.34.11-.52a2.75,2.75,0,0,1,.8.55Z" transform="translate(-15.16 -93.11)"/></g><path class="cls-8" d="M84.75,438.31c0-.15.33-.35.81-.43a2.57,2.57,0,0,1,.45,0c.27,0,.45.06.47.17s-.34.35-.82.43S84.77,438.47,84.75,438.31Z" transform="translate(-15.16 -93.11)"/><path class="cls-8" d="M86,435.88a7,7,0,0,0,0,2l-.86.14a4.84,4.84,0,0,0-.69-1.91A9.82,9.82,0,0,0,86,435.88Z" transform="translate(-15.16 -93.11)"/><g class="cls-9"><path d="M86,437.84a1.89,1.89,0,0,0-.86.16c0-.16-.06-.34-.1-.52a2.83,2.83,0,0,1,.93.17Z" transform="translate(-15.16 -93.11)"/></g><path class="cls-8" d="M91,436.35c-.12-.1,0-.49.34-.86a2.49,2.49,0,0,1,.31-.33c.21-.17.39-.24.47-.18s0,.49-.34.87S91.07,436.45,91,436.35Z" transform="translate(-15.16 -93.11)"/><path class="cls-8" d="M89.77,432.78a12.84,12.84,0,0,0,1.82,2.42l-.56.67a10.75,10.75,0,0,0-2.67-1.6A13.74,13.74,0,0,0,89.77,432.78Z" transform="translate(-15.16 -93.11)"/><g class="cls-9"><path d="M91.57,435.19a2.9,2.9,0,0,0-.54.68l-.43-.32a2.85,2.85,0,0,1,.83-.49Z" transform="translate(-15.16 -93.11)"/></g><g class="cls-9"><path d="M80.4,430.05c0,.57-.31,1-.69,1s-.69-.46-.69-1,.31-1,.69-1S80.4,429.48,80.4,430.05Z" transform="translate(-15.16 -93.11)"/></g><path class="cls-8" d="M80.14,429.46c0,.57-.31,1-.69,1s-.69-.46-.69-1,.31-1,.69-1S80.14,428.89,80.14,429.46Z" transform="translate(-15.16 -93.11)"/><g class="cls-11"><path class="cls-12" d="M80.14,429.46c0,.57-.31,1-.69,1s-.69-.46-.69-1,.31-1,.69-1S80.14,428.89,80.14,429.46Z" transform="translate(-15.16 -93.11)"/></g><g class="cls-9"><path d="M80.12,424.13c.51-.27,1.06-.21,1.24.13s-.08.82-.59,1.09-1,.21-1.23-.13S79.62,424.39,80.12,424.13Z" transform="translate(-15.16 -93.11)"/></g><path class="cls-8" d="M79.82,423.59c.5-.27,1.05-.21,1.23.13s-.08.82-.58,1.09-1.06.21-1.24-.13S79.32,423.85,79.82,423.59Z" transform="translate(-15.16 -93.11)"/><g class="cls-11"><path class="cls-12" d="M79.82,423.59c.5-.27,1.05-.21,1.23.13s-.08.82-.58,1.09-1.06.21-1.24-.13S79.32,423.85,79.82,423.59Z" transform="translate(-15.16 -93.11)"/></g><g class="cls-9"><path d="M82.44,433.14a.68.68,0,1,1-.68-.68A.67.67,0,0,1,82.44,433.14Z" transform="translate(-15.16 -93.11)"/></g><path class="cls-8" d="M82.44,432.78a.68.68,0,1,1-1.35,0,.68.68,0,1,1,1.35,0Z" transform="translate(-15.16 -93.11)"/><g class="cls-9"><path class="cls-12" d="M82.44,432.78a.68.68,0,1,1-1.35,0,.68.68,0,1,1,1.35,0Z" transform="translate(-15.16 -93.11)"/></g><g class="cls-9"><path d="M87,427.11a.84.84,0,1,1,0-1.17A.82.82,0,0,1,87,427.11Z" transform="translate(-15.16 -93.11)"/></g><path class="cls-8" d="M87.25,426.79a.84.84,0,0,1-1.18,0,.82.82,0,0,1,0-1.17.84.84,0,0,1,1.23,1.13Z" transform="translate(-15.16 -93.11)"/><g class="cls-9"><path class="cls-12" d="M87.25,426.79a.84.84,0,0,1-1.18,0,.82.82,0,0,1,0-1.17.84.84,0,0,1,1.23,1.13Z" transform="translate(-15.16 -93.11)"/></g><g class="cls-9"><path d="M85.9,433.81a.5.5,0,0,1-.5.5.5.5,0,0,1-.5-.5.5.5,0,0,1,.5-.5A.51.51,0,0,1,85.9,433.81Z" transform="translate(-15.16 -93.11)"/></g><path class="cls-8" d="M85.9,433.55a.5.5,0,0,1-.5.49.5.5,0,1,1,0-1A.5.5,0,0,1,85.9,433.55Z" transform="translate(-15.16 -93.11)"/><g class="cls-9"><path class="cls-12" d="M85.9,433.55a.5.5,0,0,1-.5.49.5.5,0,1,1,0-1A.5.5,0,0,1,85.9,433.55Z" transform="translate(-15.16 -93.11)"/></g><path class="cls-8" d="M94.06,430.05c-.16,0-.3-.38-.31-.86a2.13,2.13,0,0,1,0-.45c0-.26.13-.43.23-.43s.3.38.31.86S94.21,430,94.06,430.05Z" transform="translate(-15.16 -93.11)"/><path class="cls-8" d="M90.86,428.15a12.84,12.84,0,0,0,2.93.63v.86a10.59,10.59,0,0,0-3,.53A12.61,12.61,0,0,0,90.86,428.15Z" transform="translate(-15.16 -93.11)"/><g class="cls-9"><path d="M93.77,428.78a2.89,2.89,0,0,0,0,.86l-.52,0a2.71,2.71,0,0,1,.3-.91Z" transform="translate(-15.16 -93.11)"/></g><path class="cls-8" d="M92.18,424.86c-.13.08-.45-.18-.7-.59a1.61,1.61,0,0,1-.2-.39c-.1-.25-.11-.44,0-.49s.45.18.71.58S92.31,424.78,92.18,424.86Z" transform="translate(-15.16 -93.11)"/><path class="cls-8" d="M89.5,424.64a6.89,6.89,0,0,0,1.81-.74l.44.74A4.61,4.61,0,0,0,90.27,426,10.34,10.34,0,0,0,89.5,424.64Z" transform="translate(-15.16 -93.11)"/><g class="cls-9"><path d="M91.29,423.91a2,2,0,0,0,.46.73l-.43.28a2.55,2.55,0,0,1-.19-.91Z" transform="translate(-15.16 -93.11)"/></g><path class="cls-8" d="M89.87,420.52c-.08.14-.48.06-.9-.17a3,3,0,0,1-.37-.24c-.2-.17-.31-.33-.26-.42s.48-.06.9.17S89.94,420.38,89.87,420.52Z" transform="translate(-15.16 -93.11)"/><path class="cls-8" d="M86.62,422.32a12.52,12.52,0,0,0,2-2.21l.75.42a10.65,10.65,0,0,0-1.07,2.89A13.8,13.8,0,0,0,86.62,422.32Z" transform="translate(-15.16 -93.11)"/><g class="cls-9"><path d="M88.63,420.13a2.81,2.81,0,0,0,.76.4c-.07.15-.16.31-.23.47a2.6,2.6,0,0,1-.63-.71Z" transform="translate(-15.16 -93.11)"/></g><path class="cls-8" d="M84.55,419.47c0,.15-.38.29-.86.31a3.19,3.19,0,0,1-.45,0c-.25,0-.42-.12-.43-.22s.38-.3.86-.32S84.55,419.31,84.55,419.47Z" transform="translate(-15.16 -93.11)"/><path class="cls-8" d="M83,421.68a7.07,7.07,0,0,0,.27-1.94l.86,0a4.7,4.7,0,0,0,.41,2A9.22,9.22,0,0,0,83,421.68Z" transform="translate(-15.16 -93.11)"/><g class="cls-9"><path d="M83.28,419.76a1.83,1.83,0,0,0,.86,0c0,.16,0,.34,0,.52a2.8,2.8,0,0,1-.89-.29Z" transform="translate(-15.16 -93.11)"/></g><g class="cls-9"><path d="M87.71,432.06c-.26.5-.75.76-1.09.58s-.4-.73-.13-1.23.75-.77,1.09-.59S88,431.55,87.71,432.06Z" transform="translate(-15.16 -93.11)"/></g><path class="cls-8" d="M88,431.78c-.27.5-.76.76-1.1.58s-.39-.73-.13-1.23.76-.77,1.1-.59S88.27,431.27,88,431.78Z" transform="translate(-15.16 -93.11)"/><g class="cls-9"><path class="cls-12" d="M88,431.78c-.27.5-.76.76-1.1.58s-.39-.73-.13-1.23.76-.77,1.1-.59S88.27,431.27,88,431.78Z" transform="translate(-15.16 -93.11)"/></g><g class="cls-9"><path d="M84.58,428.77a1,1,0,1,1-1-1A1,1,0,0,1,84.58,428.77Z" transform="translate(-15.16 -93.11)"/></g><path class="cls-8" d="M84.58,428.17a1,1,0,1,1-1-1A1,1,0,0,1,84.58,428.17Z" transform="translate(-15.16 -93.11)"/><g class="cls-11"><path class="cls-12" d="M84.58,428.17a1,1,0,1,1-1-1A1,1,0,0,1,84.58,428.17Z" transform="translate(-15.16 -93.11)"/></g><g class="cls-11"><path d="M87.25,434.41c0,.08,0,.24-.29.45a4.07,4.07,0,0,1-1.16.67,5.81,5.81,0,0,1-.89.29,6.87,6.87,0,0,1-1.07.16,6.8,6.8,0,0,1-4.68-1.41,5.7,5.7,0,0,1-.8-.73,6.1,6.1,0,0,1-.59-.73,4.47,4.47,0,0,1-.59-1.2c-.08-.31-.08-.5,0-.54s.57.45,1.31,1.14c.18.17.39.35.62.53a7.64,7.64,0,0,0,4.7,1.72c.32,0,.63,0,.92,0s.56-.06.81-.11C86.53,434.47,87.15,434.24,87.25,434.41Z" transform="translate(-15.16 -93.11)"/></g><g class="cls-11"><path d="M77.09,428.77a.63.63,0,1,1-.63.66A.64.64,0,0,1,77.09,428.77Z" transform="translate(-15.16 -93.11)"/></g><path class="cls-8" d="M156.89,224a7.35,7.35,0,1,1-7.35-7.35A7.35,7.35,0,0,1,156.89,224Z" transform="translate(-15.16 -93.11)"/><g class="cls-11"><path class="cls-12" d="M154.36,226.78c-.34-.18-.26-.93-.36-1.93,0-.13,0-.26,0-.39s-.05-.27-.07-.41-.12-.58-.21-.87a6.06,6.06,0,0,0-.86-1.75,5.88,5.88,0,0,0-1.39-1.34,8,8,0,0,0-.76-.48l-.37-.18a3.64,3.64,0,0,0-.36-.16c-.93-.41-1.66-.56-1.72-.94a.33.33,0,0,1,.09-.28,1.32,1.32,0,0,1,.37-.29,3.42,3.42,0,0,1,1.57-.34,3.38,3.38,0,0,1,.54,0c.19,0,.38.05.58.08a6.48,6.48,0,0,1,1.24.42,6.39,6.39,0,0,1,1.25.77,5.85,5.85,0,0,1,1.86,2.57,5.89,5.89,0,0,1,.35,1.42,6.42,6.42,0,0,1,0,1.31c0,.2-.06.39-.1.58a4,4,0,0,1-.14.52,3.41,3.41,0,0,1-.81,1.39,1,1,0,0,1-.39.26A.33.33,0,0,1,154.36,226.78Z" transform="translate(-15.16 -93.11)"/></g><path class="cls-8" d="M145.41,214.32c.08.13-.19.45-.6.71a3.72,3.72,0,0,1-.4.2c-.25.09-.44.11-.5,0s.19-.45.6-.71S145.32,214.18,145.41,214.32Z" transform="translate(-15.16 -93.11)"/><path class="cls-8" d="M145.38,218.07a12.88,12.88,0,0,0-.95-2.87l.75-.45a10.64,10.64,0,0,0,2,2.38A14.1,14.1,0,0,0,145.38,218.07Z" transform="translate(-15.16 -93.11)"/><g class="cls-9"><path d="M144.44,215.22a2.79,2.79,0,0,0,.74-.47l.3.44a2.78,2.78,0,0,1-.95.19Z" transform="translate(-15.16 -93.11)"/></g><path class="cls-8" d="M141.83,218.6c.14.07.07.48-.16.91a2.51,2.51,0,0,1-.24.38c-.17.21-.33.32-.42.27s-.07-.48.15-.91S141.69,218.53,141.83,218.6Z" transform="translate(-15.16 -93.11)"/><path class="cls-8" d="M143,221.06a7.26,7.26,0,0,0-1.57-1.21l.42-.76a4.63,4.63,0,0,0,1.93.61A9.54,9.54,0,0,0,143,221.06Z" transform="translate(-15.16 -93.11)"/><g class="cls-9"><path d="M141.45,219.86a1.93,1.93,0,0,0,.4-.77c.14.08.3.15.47.23a2.85,2.85,0,0,1-.7.64Z" transform="translate(-15.16 -93.11)"/></g><path class="cls-8" d="M139.21,222.83c.16,0,.3.39.31.88a3.09,3.09,0,0,1,0,.45c0,.26-.13.43-.23.44s-.3-.39-.31-.88S139.05,222.84,139.21,222.83Z" transform="translate(-15.16 -93.11)"/><path class="cls-8" d="M142.44,224.75a13.09,13.09,0,0,0-3-.63l0-.87a11,11,0,0,0,3.07-.54A14.27,14.27,0,0,0,142.44,224.75Z" transform="translate(-15.16 -93.11)"/><g class="cls-9"><path d="M139.5,224.12a2.75,2.75,0,0,0,0-.87l.53,0a2.81,2.81,0,0,1-.3.92Z" transform="translate(-15.16 -93.11)"/></g><path class="cls-8" d="M141,228c.13-.08.45.18.71.6a1.87,1.87,0,0,1,.2.4c.1.24.11.44,0,.49s-.45-.18-.71-.59S140.86,228.11,141,228Z" transform="translate(-15.16 -93.11)"/><path class="cls-8" d="M143.71,228.24a7.26,7.26,0,0,0-1.83.75l-.45-.74a4.76,4.76,0,0,0,1.5-1.36A10.72,10.72,0,0,0,143.71,228.24Z" transform="translate(-15.16 -93.11)"/><g class="cls-9"><path d="M141.9,229a2,2,0,0,0-.47-.73c.14-.08.28-.18.44-.29a2.64,2.64,0,0,1,.19.93Z" transform="translate(-15.16 -93.11)"/></g><path class="cls-8" d="M145,233.46c0-.15.46-.18.93-.06a2.05,2.05,0,0,1,.42.15c.24.11.39.24.36.35s-.45.17-.92,0S145,233.61,145,233.46Z" transform="translate(-15.16 -93.11)"/><path class="cls-8" d="M147.75,230.89a13,13,0,0,0-1.43,2.66l-.84-.22a10.83,10.83,0,0,0,.34-3.1A14.89,14.89,0,0,0,147.75,230.89Z" transform="translate(-15.16 -93.11)"/><g class="cls-9"><path d="M146.33,233.53a3,3,0,0,0-.85-.2c0-.16.08-.34.11-.52a2.88,2.88,0,0,1,.8.54Z" transform="translate(-15.16 -93.11)"/></g><path class="cls-8" d="M150.73,233.36c0-.16.34-.35.82-.44a2.57,2.57,0,0,1,.45,0c.27,0,.45.07.47.17s-.34.35-.82.44S150.76,233.51,150.73,233.36Z" transform="translate(-15.16 -93.11)"/><path class="cls-8" d="M152,230.93a7,7,0,0,0,0,2l-.86.14a4.81,4.81,0,0,0-.69-1.9A11.26,11.26,0,0,0,152,230.93Z" transform="translate(-15.16 -93.11)"/><g class="cls-9"><path d="M152,232.88a2,2,0,0,0-.86.16c0-.16-.06-.33-.1-.51a2.58,2.58,0,0,1,.93.17Z" transform="translate(-15.16 -93.11)"/></g><path class="cls-8" d="M156.94,231.39c-.12-.09,0-.48.34-.86a1.9,1.9,0,0,1,.31-.32c.2-.17.38-.25.47-.18s0,.49-.34.86S157.06,231.49,156.94,231.39Z" transform="translate(-15.16 -93.11)"/><path class="cls-8" d="M155.76,227.83a12.84,12.84,0,0,0,1.82,2.42l-.56.66a11.07,11.07,0,0,0-2.67-1.6A13.39,13.39,0,0,0,155.76,227.83Z" transform="translate(-15.16 -93.11)"/><g class="cls-9"><path d="M157.56,230.23a2.9,2.9,0,0,0-.54.68l-.43-.31a3.06,3.06,0,0,1,.83-.5Z" transform="translate(-15.16 -93.11)"/></g><g class="cls-9"><path d="M146.39,225.09c0,.57-.31,1-.69,1s-.69-.46-.69-1,.31-1,.69-1S146.39,224.52,146.39,225.09Z" transform="translate(-15.16 -93.11)"/></g><path class="cls-8" d="M146.13,224.51c0,.57-.31,1-.69,1s-.69-.46-.69-1,.31-1,.69-1S146.13,223.94,146.13,224.51Z" transform="translate(-15.16 -93.11)"/><g class="cls-11"><path class="cls-12" d="M146.13,224.51c0,.57-.31,1-.69,1s-.69-.46-.69-1,.31-1,.69-1S146.13,223.94,146.13,224.51Z" transform="translate(-15.16 -93.11)"/></g><g class="cls-9"><path d="M146.11,219.17c.51-.27,1.06-.21,1.24.13s-.09.83-.59,1.1-1,.2-1.23-.13S145.61,219.44,146.11,219.17Z" transform="translate(-15.16 -93.11)"/></g><path class="cls-8" d="M145.81,218.63c.5-.27,1.05-.21,1.23.13s-.08.83-.58,1.09-1.06.21-1.24-.13S145.31,218.9,145.81,218.63Z" transform="translate(-15.16 -93.11)"/><g class="cls-11"><path class="cls-12" d="M145.81,218.63c.5-.27,1.05-.21,1.23.13s-.08.83-.58,1.09-1.06.21-1.24-.13S145.31,218.9,145.81,218.63Z" transform="translate(-15.16 -93.11)"/></g><g class="cls-9"><path d="M148.43,228.19a.68.68,0,1,1-.68-.68A.68.68,0,0,1,148.43,228.19Z" transform="translate(-15.16 -93.11)"/></g><path class="cls-8" d="M148.43,227.82a.68.68,0,1,1-.68-.67A.67.67,0,0,1,148.43,227.82Z" transform="translate(-15.16 -93.11)"/><g class="cls-9"><path class="cls-12" d="M148.43,227.82a.68.68,0,1,1-.68-.67A.67.67,0,0,1,148.43,227.82Z" transform="translate(-15.16 -93.11)"/></g><g class="cls-9"><path d="M152.93,222.16a.82.82,0,0,1-1.17.05.84.84,0,1,1,1.17-.05Z" transform="translate(-15.16 -93.11)"/></g><path class="cls-8" d="M153.24,221.83a.84.84,0,1,1-.05-1.18A.84.84,0,0,1,153.24,221.83Z" transform="translate(-15.16 -93.11)"/><g class="cls-9"><path class="cls-12" d="M153.24,221.83a.84.84,0,1,1-.05-1.18A.84.84,0,0,1,153.24,221.83Z" transform="translate(-15.16 -93.11)"/></g><g class="cls-9"><path d="M151.88,228.86a.5.5,0,1,1-.49-.5A.49.49,0,0,1,151.88,228.86Z" transform="translate(-15.16 -93.11)"/></g><path class="cls-8" d="M151.88,228.59a.5.5,0,1,1-.49-.5A.5.5,0,0,1,151.88,228.59Z" transform="translate(-15.16 -93.11)"/><g class="cls-9"><path class="cls-12" d="M151.88,228.59a.5.5,0,1,1-.49-.5A.5.5,0,0,1,151.88,228.59Z" transform="translate(-15.16 -93.11)"/></g><path class="cls-8" d="M160,225.09c-.15,0-.29-.38-.3-.86a2.06,2.06,0,0,1,0-.44c0-.26.13-.43.23-.44s.3.38.31.86S160.2,225.09,160,225.09Z" transform="translate(-15.16 -93.11)"/><path class="cls-8" d="M156.85,223.2a12.46,12.46,0,0,0,2.93.62v.86a11,11,0,0,0-3,.53A13.88,13.88,0,0,0,156.85,223.2Z" transform="translate(-15.16 -93.11)"/><g class="cls-9"><path d="M159.76,223.82a2.89,2.89,0,0,0,0,.86l-.52,0a2.68,2.68,0,0,1,.3-.9Z" transform="translate(-15.16 -93.11)"/></g><path class="cls-8" d="M158.17,219.91c-.13.08-.45-.18-.7-.59a2.6,2.6,0,0,1-.21-.4c-.09-.24-.1-.43,0-.49s.45.18.71.59S158.3,219.82,158.17,219.91Z" transform="translate(-15.16 -93.11)"/><path class="cls-8" d="M155.49,219.69a7.48,7.48,0,0,0,1.81-.74l.44.73a4.75,4.75,0,0,0-1.48,1.34A9.79,9.79,0,0,0,155.49,219.69Z" transform="translate(-15.16 -93.11)"/><g class="cls-9"><path d="M157.28,219a1.87,1.87,0,0,0,.46.72l-.43.29a2.62,2.62,0,0,1-.19-.92Z" transform="translate(-15.16 -93.11)"/></g><path class="cls-8" d="M155.86,215.56c-.08.14-.48.07-.9-.16a3,3,0,0,1-.37-.25c-.2-.17-.31-.33-.26-.42s.48-.06.9.17S155.93,215.43,155.86,215.56Z" transform="translate(-15.16 -93.11)"/><path class="cls-8" d="M152.61,217.37a12.92,12.92,0,0,0,2-2.21l.75.42a10.69,10.69,0,0,0-1.07,2.88A14,14,0,0,0,152.61,217.37Z" transform="translate(-15.16 -93.11)"/><g class="cls-9"><path d="M154.61,215.17a2.68,2.68,0,0,0,.77.41c-.07.14-.16.3-.23.47a2.69,2.69,0,0,1-.63-.72Z" transform="translate(-15.16 -93.11)"/></g><path class="cls-8" d="M150.54,214.51c0,.16-.38.3-.86.31a2.2,2.2,0,0,1-.45,0c-.25,0-.43-.13-.43-.23s.38-.3.86-.31S150.54,214.36,150.54,214.51Z" transform="translate(-15.16 -93.11)"/><path class="cls-8" d="M149,216.72a7,7,0,0,0,.27-1.94h.86a4.7,4.7,0,0,0,.41,2A10,10,0,0,0,149,216.72Z" transform="translate(-15.16 -93.11)"/><g class="cls-9"><path d="M149.27,214.8a1.91,1.91,0,0,0,.86,0,5,5,0,0,0,0,.52,2.64,2.64,0,0,1-.89-.3Z" transform="translate(-15.16 -93.11)"/></g><g class="cls-9"><path d="M153.7,227.1c-.27.5-.76.77-1.09.59s-.4-.74-.13-1.24.75-.76,1.09-.58S154,226.6,153.7,227.1Z" transform="translate(-15.16 -93.11)"/></g><path class="cls-8" d="M154,226.82c-.27.5-.76.77-1.1.59s-.39-.73-.13-1.24.76-.76,1.1-.58S154.26,226.32,154,226.82Z" transform="translate(-15.16 -93.11)"/><g class="cls-9"><path class="cls-12" d="M154,226.82c-.27.5-.76.77-1.1.59s-.39-.73-.13-1.24.76-.76,1.1-.58S154.26,226.32,154,226.82Z" transform="translate(-15.16 -93.11)"/></g><g class="cls-9"><path d="M150.57,223.82a1,1,0,1,1-1-1A1,1,0,0,1,150.57,223.82Z" transform="translate(-15.16 -93.11)"/></g><path class="cls-8" d="M150.57,223.22a1,1,0,1,1-1-1A1,1,0,0,1,150.57,223.22Z" transform="translate(-15.16 -93.11)"/><g class="cls-11"><path class="cls-12" d="M150.57,223.22a1,1,0,1,1-1-1A1,1,0,0,1,150.57,223.22Z" transform="translate(-15.16 -93.11)"/></g><g class="cls-11"><path d="M153.24,229.45c0,.08-.05.24-.29.45a4.3,4.3,0,0,1-1.16.68,6.22,6.22,0,0,1-.89.28,6.84,6.84,0,0,1-1.07.17,6.75,6.75,0,0,1-4.68-1.42,6.34,6.34,0,0,1-.8-.72,6.16,6.16,0,0,1-.59-.74,4.06,4.06,0,0,1-.59-1.2c-.08-.31-.08-.5,0-.54s.57.45,1.31,1.14c.18.17.39.35.61.53a9.25,9.25,0,0,0,.76.54,8.43,8.43,0,0,0,1.89.87,7.65,7.65,0,0,0,2,.32,9.22,9.22,0,0,0,.93,0l.81-.1C152.52,229.51,153.14,229.29,153.24,229.45Z" transform="translate(-15.16 -93.11)"/></g><g class="cls-11"><path d="M143.08,223.82a.65.65,0,0,1,.69.59.67.67,0,0,1-1.33.06A.65.65,0,0,1,143.08,223.82Z" transform="translate(-15.16 -93.11)"/></g><path class="cls-8" d="M86.26,390.9a19.12,19.12,0,0,0,4.87-5.75c2.07-.36,7.88,1.41,7.88,1.41l.74-2.14c-2.29-.8-6.16-3.73-6.71-4.15a18.91,18.91,0,0,0,.47-5.92c1.52-1.35,4.92-2,4.92-2L98,370.14a19.09,19.09,0,0,1-5.21.19A19,19,0,0,0,91,366.25c.67-1.95,5.21-6.16,5.21-6.16l-1.48-1.71c-2,1.7-6.92,3.65-7,3.66a19.29,19.29,0,0,0-4.59-3.35c-.36-2,.78-5.29.78-5.29l-2.14-.73a18.86,18.86,0,0,1-2.4,4.53,18.74,18.74,0,0,0-4.94-.72c-1.36-1.69-2.75-7.57-2.75-7.57l-2.25.45c.45,2.3-.09,6.76-.21,7.75a19.39,19.39,0,0,0-5.82,2.64,13.56,13.56,0,0,1-3.84-3.09L58,358.18a18.89,18.89,0,0,1,2.61,4,19,19,0,0,0-3.11,4.12c-2.43,0-7.41-1.48-7.41-1.48L49.3,367a30.8,30.8,0,0,1,6.28,3.86,19.38,19.38,0,0,0-.59,6.35,13.6,13.6,0,0,1-4.57,1.74l.46,2.25a18.84,18.84,0,0,1,4.76-.25,19.54,19.54,0,0,0,3.79,7.23c-.48,2.27-3.53,7-3.53,7l1.88,1.32a29.41,29.41,0,0,1,5.33-4.89,19.05,19.05,0,0,0,4.56,2.4,18,18,0,0,0,2.53.71,13.81,13.81,0,0,1-.14,4.79l2.26.43a18.83,18.83,0,0,1,1.7-4.79,19.27,19.27,0,0,0,7.9-1.59c1.87,1.54,4.66,6,4.66,6l2-1.15C87.37,396.26,86.43,391.75,86.26,390.9Zm-6.21-33.53-.07,0Z" transform="translate(-15.16 -93.11)"/><g class="cls-11"><path class="cls-12" d="M83.71,386.87c-.67-.75.18-2.52.83-5.09.1-.31.16-.66.25-1s.13-.71.21-1.08c.1-.74.22-1.52.25-2.34a16.17,16.17,0,0,0-.55-5.07,16,16,0,0,0-2.25-4.59A19.68,19.68,0,0,0,81,365.86c-.25-.27-.5-.55-.75-.8s-.49-.5-.74-.72c-1.93-1.82-3.59-2.86-3.42-3.85a.9.9,0,0,1,.48-.61,2.92,2.92,0,0,1,1.18-.38,9.09,9.09,0,0,1,4.19.56,11.85,11.85,0,0,1,1.31.55c.45.21.89.47,1.35.74A15.75,15.75,0,0,1,92,374.52a15.29,15.29,0,0,1-.41,3.84,15.62,15.62,0,0,1-1.13,3.24c-.25.47-.48.93-.75,1.35a13.2,13.2,0,0,1-.82,1.16,9,9,0,0,1-3.24,2.71,3,3,0,0,1-1.2.31A1,1,0,0,1,83.71,386.87Z" transform="translate(-15.16 -93.11)"/></g><path class="cls-8" d="M72.73,348.05c.09.41-.86.95-2.11,1.22a5.72,5.72,0,0,1-1.18.14c-.69,0-1.18-.12-1.24-.39s.86-.95,2.11-1.22S72.65,347.65,72.73,348.05Z" transform="translate(-15.16 -93.11)"/><g class="cls-9"><path d="M69.54,349.41a7.44,7.44,0,0,0,2.24-.5c.1.41.22.88.35,1.36a7.67,7.67,0,0,1-2.51-.36Z" transform="translate(-15.16 -93.11)"/></g><path class="cls-8" d="M60,355.44c.28.3-.25,1.25-1.2,2.12a7,7,0,0,1-.94.72c-.59.36-1.09.49-1.28.28s.26-1.25,1.21-2.11S59.76,355.13,60,355.44Z" transform="translate(-15.16 -93.11)"/><g class="cls-9"><path d="M58,358.22a5.07,5.07,0,0,0,1.68-1.56c.28.32.6.66,1,1a7.3,7.3,0,0,1-2.31.95Z" transform="translate(-15.16 -93.11)"/></g><path class="cls-8" d="M49.78,363.56c.39.13.39,1.22,0,2.44a7,7,0,0,1-.47,1.09c-.34.6-.71,1-1,.87s-.39-1.22,0-2.43S49.38,363.43,49.78,363.56Z" transform="translate(-15.16 -93.11)"/><g class="cls-9"><path d="M49.35,367a7.4,7.4,0,0,0,.69-2.19l1.35.39a7.44,7.44,0,0,1-1.58,2Z" transform="translate(-15.16 -93.11)"/></g><path class="cls-8" d="M49.56,378c.4-.09.95.85,1.22,2.1a5.86,5.86,0,0,1,.15,1.18c0,.69-.12,1.19-.39,1.25s-1-.86-1.23-2.11S49.15,378.07,49.56,378Z" transform="translate(-15.16 -93.11)"/><g class="cls-9"><path d="M50.93,381.17a5.08,5.08,0,0,0-.51-2.24c.42-.08.87-.19,1.34-.32a7.29,7.29,0,0,1-.34,2.47Z" transform="translate(-15.16 -93.11)"/></g><path class="cls-8" d="M54.62,395c.24-.34,1.28,0,2.34.69a6.08,6.08,0,0,1,.92.75c.49.49.73,1,.57,1.17s-1.28,0-2.34-.68S54.39,395.37,54.62,395Z" transform="translate(-15.16 -93.11)"/><g class="cls-9"><path d="M57.81,396.39a7.37,7.37,0,0,0-1.91-1.27c.23-.36.49-.77.74-1.19A7.71,7.71,0,0,1,58.12,396Z" transform="translate(-15.16 -93.11)"/></g><path class="cls-8" d="M68.86,399.89c.07-.41,1.15-.56,2.41-.34a7.31,7.31,0,0,1,1.15.31c.65.25,1,.56,1,.84s-1.15.56-2.41.34S68.79,400.3,68.86,399.89Z" transform="translate(-15.16 -93.11)"/><g class="cls-9"><path d="M72.33,399.83a5.13,5.13,0,0,0-2.27-.38c.09-.42.15-.88.21-1.36a7.17,7.17,0,0,1,2.16,1.25Z" transform="translate(-15.16 -93.11)"/></g><path class="cls-8" d="M86,400.6c-.21-.36.5-1.18,1.6-1.83a5.79,5.79,0,0,1,1.07-.52c.65-.24,1.17-.26,1.31,0s-.51,1.18-1.61,1.84S86.17,401,86,400.6Z" transform="translate(-15.16 -93.11)"/><g class="cls-9"><path d="M88.54,398.28a7.5,7.5,0,0,0-2,1.2c-.23-.36-.49-.76-.77-1.17a7.61,7.61,0,0,1,2.5-.47Z" transform="translate(-15.16 -93.11)"/></g><g class="cls-9"><path d="M65.52,375.57c-.51,1.41-1.69,2.27-2.63,1.93s-1.31-1.76-.8-3.17,1.69-2.27,2.64-1.92S66,374.17,65.52,375.57Z" transform="translate(-15.16 -93.11)"/></g><path class="cls-8" d="M65.4,373.9c-.51,1.41-1.69,2.27-2.64,1.93s-1.3-1.77-.79-3.17,1.69-2.27,2.64-1.93S65.91,372.49,65.4,373.9Z" transform="translate(-15.16 -93.11)"/><g class="cls-11"><path class="cls-12" d="M65.4,373.9c-.51,1.41-1.69,2.27-2.64,1.93s-1.3-1.77-.79-3.17,1.69-2.27,2.64-1.93S65.91,372.49,65.4,373.9Z" transform="translate(-15.16 -93.11)"/></g><g class="cls-9"><ellipse cx="70.38" cy="362.49" rx="2.71" ry="1.82" transform="matrix(0.99, -0.14, 0.14, 0.99, -65.04, -79.75)"/></g><path class="cls-8" d="M69.86,359.07c1.48-.2,2.8.43,2.94,1.43s-1,2-2.43,2.18-2.8-.43-2.94-1.42S68.38,359.28,69.86,359.07Z" transform="translate(-15.16 -93.11)"/><g class="cls-11"><path class="cls-12" d="M69.86,359.07c1.48-.2,2.8.43,2.94,1.43s-1,2-2.43,2.18-2.8-.43-2.94-1.42S68.38,359.28,69.86,359.07Z" transform="translate(-15.16 -93.11)"/></g><g class="cls-9"><path d="M67.79,385.05a1.78,1.78,0,1,1-1.07-2.28A1.77,1.77,0,0,1,67.79,385.05Z" transform="translate(-15.16 -93.11)"/></g><path class="cls-8" d="M68.12,384.15a1.79,1.79,0,1,1-1.07-2.28A1.78,1.78,0,0,1,68.12,384.15Z" transform="translate(-15.16 -93.11)"/><g class="cls-9"><path class="cls-12" d="M68.12,384.15a1.79,1.79,0,1,1-1.07-2.28A1.78,1.78,0,0,1,68.12,384.15Z" transform="translate(-15.16 -93.11)"/></g><g class="cls-9"><path d="M84.32,374.18a2.19,2.19,0,1,1,.94-3A2.19,2.19,0,0,1,84.32,374.18Z" transform="translate(-15.16 -93.11)"/></g><path class="cls-8" d="M85.36,373.64a2.19,2.19,0,1,1,.94-3A2.18,2.18,0,0,1,85.36,373.64Z" transform="translate(-15.16 -93.11)"/><g class="cls-9"><path class="cls-12" d="M85.36,373.64a2.19,2.19,0,1,1,.94-3A2.18,2.18,0,0,1,85.36,373.64Z" transform="translate(-15.16 -93.11)"/></g><g class="cls-9"><path d="M75.73,389.8a1.31,1.31,0,0,1-2.46-.89,1.32,1.32,0,0,1,1.68-.79A1.31,1.31,0,0,1,75.73,389.8Z" transform="translate(-15.16 -93.11)"/></g><path class="cls-8" d="M76,389.14a1.31,1.31,0,1,1-.79-1.68A1.32,1.32,0,0,1,76,389.14Z" transform="translate(-15.16 -93.11)"/><g class="cls-9"><path class="cls-12" d="M76,389.14a1.31,1.31,0,1,1-.79-1.68A1.32,1.32,0,0,1,76,389.14Z" transform="translate(-15.16 -93.11)"/></g><path class="cls-8" d="M99.27,387.8c-.39-.13-.38-1.21,0-2.41a6.85,6.85,0,0,1,.47-1.08c.33-.59.7-.95,1-.86s.39,1.2,0,2.4S99.66,387.93,99.27,387.8Z" transform="translate(-15.16 -93.11)"/><g class="cls-9"><path d="M99.7,384.4a7.3,7.3,0,0,0-.69,2.16l-1.33-.38a7.3,7.3,0,0,1,1.56-2Z" transform="translate(-15.16 -93.11)"/></g><path class="cls-8" d="M99.28,373.3c-.4.08-.94-.85-1.21-2.08a6.58,6.58,0,0,1-.15-1.17c0-.68.13-1.17.39-1.23s.94.85,1.21,2.08S99.68,373.21,99.28,373.3Z" transform="translate(-15.16 -93.11)"/><g class="cls-9"><path d="M97.93,370.15a5,5,0,0,0,.5,2.21c-.42.08-.86.19-1.33.32a7.19,7.19,0,0,1,.34-2.45Z" transform="translate(-15.16 -93.11)"/></g><path class="cls-8" d="M97.45,360.49c-.31.27-1.24-.27-2.07-1.22a5.43,5.43,0,0,1-.7-.94c-.35-.59-.47-1.08-.27-1.26s1.24.27,2.08,1.22S97.76,360.22,97.45,360.49Z" transform="translate(-15.16 -93.11)"/><g class="cls-9"><path d="M94.73,358.41a7.09,7.09,0,0,0,1.52,1.68c-.3.29-.65.62-1,1a7.24,7.24,0,0,1-.92-2.33Z" transform="translate(-15.16 -93.11)"/></g><path class="cls-8" d="M85.25,353.13c-.13.39-1.21.39-2.41,0a6,6,0,0,1-1.08-.46c-.6-.33-1-.7-.87-.95s1.21-.39,2.41,0S85.37,352.74,85.25,353.13Z" transform="translate(-15.16 -93.11)"/><g class="cls-9"><path d="M81.85,352.72a5.1,5.1,0,0,0,2.16.68c-.14.39-.27.83-.39,1.3a7.27,7.27,0,0,1-1.94-1.52Z" transform="translate(-15.16 -93.11)"/></g><g class="cls-9"><path d="M81.79,387.08c-1.11,1-2.55,1.22-3.23.47s-.32-2.16.78-3.17,2.56-1.21,3.24-.47S82.9,386.08,81.79,387.08Z" transform="translate(-15.16 -93.11)"/></g><path class="cls-8" d="M82.78,386.66c-1.11,1-2.56,1.21-3.24.47s-.32-2.17.79-3.17,2.55-1.22,3.23-.47S83.88,385.65,82.78,386.66Z" transform="translate(-15.16 -93.11)"/><g class="cls-9"><path class="cls-12" d="M82.78,386.66c-1.11,1-2.56,1.21-3.24.47s-.32-2.17.79-3.17,2.55-1.22,3.23-.47S83.88,385.65,82.78,386.66Z" transform="translate(-15.16 -93.11)"/></g><g class="cls-9"><path d="M77,376.16a2.71,2.71,0,1,1-1.63-3.47A2.71,2.71,0,0,1,77,376.16Z" transform="translate(-15.16 -93.11)"/></g><path class="cls-8" d="M77.53,374.68a2.71,2.71,0,1,1-1.62-3.47A2.71,2.71,0,0,1,77.53,374.68Z" transform="translate(-15.16 -93.11)"/><g class="cls-11"><path class="cls-12" d="M77.53,374.68a2.71,2.71,0,1,1-1.62-3.47A2.71,2.71,0,0,1,77.53,374.68Z" transform="translate(-15.16 -93.11)"/></g><g class="cls-11"><path d="M78.55,392.49c0,.23-.34.54-1.13.85A11.52,11.52,0,0,1,74,394a17.58,17.58,0,0,1-2.46-.09,17.93,17.93,0,0,1-13.1-8.24,19.27,19.27,0,0,1-1.33-2.52,17.7,17.7,0,0,1-.78-2.33,11.06,11.06,0,0,1-.39-3.5c.07-.84.26-1.3.49-1.33.51,0,1,1.62,2.21,4,.29.59.65,1.21,1,1.87s.86,1.32,1.39,2a19.68,19.68,0,0,0,8.69,6.48A22.19,22.19,0,0,0,72,391c.74.19,1.44.36,2.09.47C76.71,392,78.46,392,78.55,392.49Z" transform="translate(-15.16 -93.11)"/></g><g class="cls-11"><path d="M58.46,369.45a1.66,1.66,0,1,1-2.15,1.07A1.71,1.71,0,0,1,58.46,369.45Z" transform="translate(-15.16 -93.11)"/></g></g></svg>