<svg id="Layer_1" data-name="Layer 1" xmlns="http://www.w3.org/2000/svg" viewBox="0 0 890.37 619.15"><defs><style>.cls-1{fill:#d4eeff;}.cls-2{fill:#55a5e2;}.cls-3{fill:#7fc2f0;}.cls-4{fill:#acd1ee;}.cls-5{fill:#fff;}.cls-6{fill:#192a41;}.cls-7{fill:#ffded4;}.cls-8{fill:#ee8684;}.cls-9{fill:#f9a6a2;}.cls-10{fill:#9e9c9c;}.cls-11{fill:#00648c;}.cls-12{fill:#ffcac4;}.cls-13{fill:#153c61;}.cls-14{fill:#7ab3ff;}.cls-15{fill:#62a7ed;}.cls-16{fill:#9dccff;}.cls-17{fill:none;stroke:#1f71b8;stroke-linecap:round;stroke-linejoin:round;}.cls-18{fill:#c8e9ff;}.cls-19{fill:#071621;}.cls-20{fill:#5291cc;}.cls-21{fill:#acd4f5;}</style></defs><title>cover-1</title><path class="cls-1" d="M223.06,633.29c-92.58-.92-162.39-72.76-176.9-158.72-12.82-75.93,24.58-155.85,77.62-202.69,94.08-83.08,207.63-23,269.6-127.33C463.44,26.64,633.69,17.9,735.91,92.63h0c33.51,24.47,59.63,58,72.56,99.19,10.9,34.71,12.54,75.05,1.46,120.51-4.18,17.14-3.47,31.72.61,44.62,9.7,30.84,39.51,52.83,64.4,74,28.24,24,54.12,49.58,58.39,88.26C940,578.56,896,632.62,837.74,633.5Z" transform="translate(-43.63 -44.55)"/><path class="cls-2" d="M648.73,526.72c-.24.34-.47.7-.72,1-1.93,2.8-4,5.59-6.06,8.4-3.5,4.66-7.25,9.32-11.2,14-3.29,3.91-6.74,7.81-10.3,11.68-.66.74-1.34,1.48-2,2.21-31.55,34-70.62,65.68-96.32,83.83h0c-14.08,9.94-24.14,15.83-26.77,15.83-1.43,0-8.05-3.84-17.93-10.58C453.65,637,411.11,604.2,376.44,568.21c-3.85-4-7.59-8-11.18-12q-2.88-3.21-5.62-6.44c-1.17-1.38-2.33-2.75-3.45-4.13q-2.58-3.11-5-6.19c-3.32-4.24-6.44-8.49-9.32-12.71-48.48-71-46.45-212-46.45-212C359.79,290,496.24,196.37,496.24,196.37s134.59,93.65,199,118.39C695.19,314.76,697.22,455.7,648.73,526.72Z" transform="translate(-43.63 -44.55)"/><path class="cls-3" d="M626,511.22c-.2.29-.4.59-.61.88q-2.46,3.57-5.17,7.16c-3,4-6.18,7.94-9.54,11.91-2.81,3.33-5.74,6.66-8.77,10-.57.63-1.15,1.26-1.73,1.88-26.88,29-60.17,56-82.07,71.43h0c-12,8.47-20.57,13.49-22.81,13.49-1.22,0-6.86-3.28-15.28-9-20.22-13.77-56.47-41.69-86-72.35-3.27-3.39-6.46-6.81-9.52-10.25q-2.44-2.73-4.79-5.48-1.5-1.77-2.94-3.52c-1.46-1.76-2.87-3.52-4.25-5.28-2.83-3.61-5.48-7.23-7.94-10.82C323.28,450.71,325,330.61,325,330.61c54.84-21.07,171.1-100.86,171.1-100.86s114.68,79.79,169.51,100.86C665.61,330.61,667.34,450.71,626,511.22Z" transform="translate(-43.63 -44.55)"/><path class="cls-4" d="M372.22,467l-47.5,57.69L289,504.46l-10.57,17.91s4.33,30.32,27.3,46.56S352.59,574,352.59,574Z" transform="translate(-43.63 -44.55)"/><path class="cls-5" d="M405.65,421.41l-.69,7.18-.27,2.81S380.44,469,368.41,503.68c-4.33,12.48-7.05,29.44-8.77,46.07-1.17-1.38-2.33-2.75-3.45-4.13q-2.58-3.11-5-6.19c1.7-22.85,4.94-46.21,11-60.95C377.65,441.24,405.65,421.41,405.65,421.41Z" transform="translate(-43.63 -44.55)"/><path class="cls-6" d="M418.53,427.66,376.44,568.21c-3.85-4-7.59-8-11.18-12q-2.88-3.21-5.62-6.44c-1.17-1.38-2.33-2.75-3.45-4.13,1.15-19.87,3.93-40.9,9.84-57.13,15.67-42.94,38.12-60.16,38.12-60.16.27.1.54.18.81.26A22,22,0,0,0,418.53,427.66Z" transform="translate(-43.63 -44.55)"/><path class="cls-7" d="M458.94,362.42A19.85,19.85,0,0,1,444.87,368l3.36,51.64c-31.05,20.44-43.54,11.75-43.54,11.75l-5.16-29.53c-13.69.61-27.31-4.31-34-19.74-.19-.43-.38-.87-.54-1.31a77.38,77.38,0,0,1-2.94-8.54C356.81,354,356.81,334,356.81,334s-1.89-29.94,11-40.17,44.34-12.51,62.53-4.93c14.82,6.18,18.57,27.73,17.81,50.47a12.82,12.82,0,0,1,11.74-3.09C470.49,338.74,466.71,355,458.94,362.42Z" transform="translate(-43.63 -44.55)"/><path class="cls-8" d="M379.69,348.93l1.77,17.68s-5.18-.12-6.95,3.29,9.6,4.8,11.62,2.65-3.41-24.25-5.05-25.51S379.69,348.93,379.69,348.93Z" transform="translate(-43.63 -44.55)"/><path class="cls-9" d="M395.46,376.83s-3,5.3-8.71,6.57-9.1-1.27-9.1-1.27Z" transform="translate(-43.63 -44.55)"/><path class="cls-6" d="M370.2,334.76s-6-.89-9.42,2c0,0-.35-4.63,3.52-5.86S370.2,334.76,370.2,334.76Z" transform="translate(-43.63 -44.55)"/><path class="cls-6" d="M400.25,329.71s-5.88-1.51-9.57,1c0,0,.12-4.64,4.1-5.47S400.25,329.71,400.25,329.71Z" transform="translate(-43.63 -44.55)"/><path class="cls-9" d="M399.53,401.86s17.53-2.66,26.44-18.11c0,0-.38,8.86-8.34,18.11s-16.42,9.63-16.42,9.63Z" transform="translate(-43.63 -44.55)"/><path class="cls-5" d="M477.38,653.12C453.65,637,411.11,604.2,376.44,568.21c-3.85-4-7.59-8-11.18-12,3.91-33,10.61-72.62,21.29-89.93,8.49-13.72,20.72-27.41,32-38.6A369,369,0,0,1,447.08,402s32.13,27.08,36.68,63.84S477.38,653.12,477.38,653.12Z" transform="translate(-43.63 -44.55)"/><path class="cls-6" d="M461.71,309.67c-.19,11.76-4.15,26.29-4.15,26.29-9.63-.43-15.75,16.32-15.75,16.32s-15.53-.75-22.35-13.63c-6.7-12.66-2.26-30-2.1-30.59-18,10.69-42.81,12-58.91,9.36s-23.3-18.75-23.3-18.75c2.64,0,16.29-6.07,16.29-6.07-5.69-3.22-5.11-9.66-5.11-9.66s4,.38,17.61-3.59,34.67-13.27,56.46-9.29C441.83,274,445.86,288.51,446,289v0h.23a13.4,13.4,0,0,1,1.67.19,15.78,15.78,0,0,1,11.94,9,18.68,18.68,0,0,1,.74,1.82A28.92,28.92,0,0,1,461.71,309.67Z" transform="translate(-43.63 -44.55)"/><path class="cls-10" d="M360.41,367.86a5.56,5.56,0,0,1-5.21-3.61l-3.57-9.48,1.09-.41,3.58,9.47a4.4,4.4,0,0,0,5,2.77l11.84-2.38a4.41,4.41,0,0,0,3.52-4.73l-.86-11.2,1.17-.09.87,11.2a5.59,5.59,0,0,1-4.47,6l-11.84,2.38A5.32,5.32,0,0,1,360.41,367.86Z" transform="translate(-43.63 -44.55)"/><path class="cls-10" d="M395.22,360.75a5.57,5.57,0,0,1-5.22-3.62l-3.57-9.48,1.1-.41,3.57,9.47a4.39,4.39,0,0,0,5,2.77l11.84-2.38a4.41,4.41,0,0,0,3.53-4.72l-.87-11.21,1.18-.09.86,11.2a5.57,5.57,0,0,1-4.46,6l-11.85,2.38A5.31,5.31,0,0,1,395.22,360.75Z" transform="translate(-43.63 -44.55)"/><path class="cls-6" d="M407.88,335.92c-2.82.3-14.39,2.71-20.23,3.95a4,4,0,0,0-3.13,3.67,11.48,11.48,0,0,0-8.22,1.23,3.23,3.23,0,0,0-3.13-1.75c-2.82.3-14.4,2.71-20.23,4a4,4,0,0,0-3.14,4.19l.91,3.72,3-.65s-1.14-4.41.31-5.11,17.45-4.37,18.94-3.83,2.39,4.14,2.39,4.14l2.29-.53a12.46,12.46,0,0,0-.81-3.08,10.36,10.36,0,0,1,7.85-1.05l.74,3,3-.66s-1.14-4.41.32-5.1,17.44-4.37,18.94-3.84,2.38,4.14,2.38,4.14l2.3-.52S411.69,335.51,407.88,335.92Z" transform="translate(-43.63 -44.55)"/><path class="cls-11" d="M411,337.64s4.73-.38,16,0a157.8,157.8,0,0,1,22,2.47l-1.19,1.36s-14.74-1.31-23.07-1.31a110.94,110.94,0,0,0-12.75.57A31.07,31.07,0,0,0,411,337.64Z" transform="translate(-43.63 -44.55)"/><path class="cls-12" d="M421.26,367.08c.4,2.48-2.37,5-6.19,5.61s-7.24-.88-7.65-3.36,2.37-5,6.19-5.62S420.86,364.6,421.26,367.08Z" transform="translate(-43.63 -44.55)"/><path class="cls-12" d="M365.46,380.76l-.47.06a77.38,77.38,0,0,1-2.94-8.54,11.72,11.72,0,0,1,1.94-.49c3.82-.62,7.25.88,7.65,3.36S369.28,380.14,365.46,380.76Z" transform="translate(-43.63 -44.55)"/><polygon class="cls-5" points="213.33 389.49 163.01 340.24 162.02 344.18 207.44 392.15 213.33 389.49"/><polygon class="cls-13" points="236.62 398.76 209.07 379.56 198.88 390 218.52 417.6 236.62 398.76"/><path class="cls-14" d="M429.09,568.12l-1.95,2-18.67,19.18-24.63,25.3-17.32-18.94-1.61-1.76-45.77-50-1.6-1.74-49.12-53.7-1.59-1.72-9.66-10.57a16.1,16.1,0,0,1,.08-21.83c.25-.28.5-.53.77-.78l15.09-14.19a16.11,16.11,0,0,1,22.21.12Z" transform="translate(-43.63 -44.55)"/><path class="cls-15" d="M408.47,589.29l-24.63,25.3-17.32-18.94-1.61-1.76-45.77-50-1.6-1.74-49.12-53.7-1.59-1.72-9.66-10.57a16.1,16.1,0,0,1,.08-21.83c12.24,15.49,37.08,45.84,71.95,83.07C363.15,573.63,392.58,585.44,408.47,589.29Z" transform="translate(-43.63 -44.55)"/><path class="cls-16" d="M429.09,568.12l-1.95,2c-4.06,1.27-11.05,1.79-20.15-3.91-14.87-9.32-119.18-116.37-119.18-116.37-4.15-7-4.53-12.35-1.62-14.74a16.05,16.05,0,0,1,9.13,4.37Z" transform="translate(-43.63 -44.55)"/><polygon class="cls-13" points="364.94 540.23 415 595.76 407.22 600.34 354.35 548.13 364.94 540.23"/><polygon class="cls-14" points="409.58 592.62 423.75 584.85 427.28 589.41 400.72 613.04 395.78 608.15 409.58 592.62"/><path class="cls-13" d="M377.16,581.41l-10.64,14.24-1.61-1.76L375.28,580a3.14,3.14,0,0,0-.26-4.09l-42.73-44.53-13.15,12.49-1.6-1.74,13.12-12.44-47.6-49.6a3.19,3.19,0,0,0-4.32-.25l-10.32,8.59-1.59-1.72,10.4-8.66a5.54,5.54,0,0,1,7.52.41l92,95.81A5.51,5.51,0,0,1,377.16,581.41Z" transform="translate(-43.63 -44.55)"/><line class="cls-17" x1="244.19" y1="445.6" x2="250.58" y2="439.18"/><line class="cls-17" x1="251.19" y1="452.81" x2="257.58" y2="446.38"/><line class="cls-17" x1="258.18" y1="460.01" x2="264.58" y2="453.59"/><line class="cls-17" x1="265.18" y1="467.22" x2="271.57" y2="460.8"/><line class="cls-17" x1="272.18" y1="474.42" x2="278.57" y2="468"/><line class="cls-17" x1="279.18" y1="481.63" x2="285.57" y2="475.21"/><line class="cls-17" x1="285.5" y1="488.38" x2="291.89" y2="481.96"/><line class="cls-17" x1="293.17" y1="496.04" x2="299.57" y2="489.62"/><line class="cls-17" x1="300.17" y1="503.25" x2="306.57" y2="496.83"/><line class="cls-17" x1="307.17" y1="510.46" x2="313.56" y2="504.03"/><line class="cls-17" x1="314.17" y1="517.66" x2="320.56" y2="511.24"/><line class="cls-17" x1="321.17" y1="524.87" x2="327.56" y2="518.45"/><line class="cls-17" x1="328.17" y1="532.08" x2="334.56" y2="525.65"/><polygon class="cls-6" points="228.96 393.43 209.82 405.37 213.33 410.3 230.12 394.23 228.96 393.43"/><path class="cls-7" d="M410.28,616.87l-4.17,3.73a67.25,67.25,0,0,1-4.12,10c-2.17,3.88-6.81,9.22-11.58,9.58s-5-2.22-5-2.22-3.65,1-5.87-.42a3.53,3.53,0,0,1-1.67-3.7s-3.67.08-5.38-1.58a4.11,4.11,0,0,1-.85-4s-3.34.47-4.59-2.23c-.66-1.42-.21-4.55,1-7.6,1.06-2.74,2.72-5.43,4.71-6.79,4.19-2.84,16.79-7.45,16.79-7.45l7.08-4.19Z" transform="translate(-43.63 -44.55)"/><path class="cls-18" d="M493.44,556.72c-7.05,44.8-74.91,76.61-74.91,76.61l-5.92-6.94-22.44-26.27,63.89-61-26.58-70.92a36.06,36.06,0,0,1,6.33-28.45c10-13.6,29.59-16.2,42.38-5.17l.08.08a17,17,0,0,1,3.08,3.36,12.65,12.65,0,0,1,.8,1.39C486.83,452.5,500.22,513.7,493.44,556.72Z" transform="translate(-43.63 -44.55)"/><path class="cls-7" d="M294.07,517.6c-1.16-3.54-5.26-7.18-5.26-7.18s4.29-7.6,1.42-9c-2.67-1.34-6.44,2.94-6.93,3.49.41-.79,4.73-9.17,1.67-10.11-2.74-.83-6,3.51-6.91,4.82,1.84-3,4.18-9.59,1.1-10.45-2.48-.69-5.82,3.68-7.22,5.7,1.45-2.37,4.6-8.19,1.06-8.82-4.46-.8-9.31,7.14-10.11,11.16a18.84,18.84,0,0,0,3.93,15.55c.34.41.74.83,1.17,1.26,5.07,4.91,15.46,9.92,15.46,9.92C288.54,525.08,295.24,521.14,294.07,517.6ZM283.3,504.9h0Z" transform="translate(-43.63 -44.55)"/><path class="cls-5" d="M391.26,348.56s2.32-6.8,6.79-7.49,8.54,1.5,11.17,5.29c0,0,.34,5.89-2.54,9.91a40,40,0,0,1-10.83,1.44S391.59,353.71,391.26,348.56Z" transform="translate(-43.63 -44.55)"/><path class="cls-6" d="M396.17,350.46c.53,3.73,3.61,6.37,6.88,5.91s5.5-3.86,5-7.58-3.61-6.37-6.88-5.91S395.64,346.74,396.17,350.46Z" transform="translate(-43.63 -44.55)"/><path class="cls-5" d="M403.1,347.73a1.56,1.56,0,0,0,1.67,1.44,1.58,1.58,0,0,0,1.22-1.85,1.47,1.47,0,1,0-2.89.41Z" transform="translate(-43.63 -44.55)"/><path class="cls-5" d="M360,355.58s1.67-6.23,5.64-7.12,7.74.83,10.33,4.07c0,0,.65,5.26-1.68,9a36.4,36.4,0,0,1-9.63,1.94S360.58,360.18,360,355.58Z" transform="translate(-43.63 -44.55)"/><path class="cls-6" d="M364.49,357c.7,3.31,3.62,5.49,6.53,4.88s4.7-3.79,4-7.09-3.62-5.5-6.52-4.88S363.8,353.68,364.49,357Z" transform="translate(-43.63 -44.55)"/><path class="cls-5" d="M370.54,354.12a1.32,1.32,0,1,0,1-1.73A1.41,1.41,0,0,0,370.54,354.12Z" transform="translate(-43.63 -44.55)"/><path class="cls-9" d="M458.51,341.06c-2.86,1-5.46,3.79-7.75,7.62,0,0,2.33.18,2.21,3.33s-4.85,5.23-4.85,5.23-1.89,3.78,1.7,3.71a7,7,0,0,0,6.8-7,6.26,6.26,0,0,0-2.71-5.79s1.64-3.15,3.78-4,.69,6.23,2.26,6.48S463.56,339.29,458.51,341.06Z" transform="translate(-43.63 -44.55)"/><path class="cls-13" d="M446,289l-19.57,9.64s3.95-6,9.15-8.31A19.08,19.08,0,0,1,446,289Z" transform="translate(-43.63 -44.55)"/><path class="cls-13" d="M461.71,309.67q-1,.42-2.22.9l-3.26-5.86.66,6.83a72.13,72.13,0,0,1-8.49,2.39l-1.58-4.09-.19,4.45c-1,.17-1.94.34-2.92.47s-1.9.23-2.77.33l-1.48-3.82-.16,4c-7.92.8-10.28.25-10.28.25l-.59-6.21a20.89,20.89,0,0,0,4.21.05l1.58,3.64v-3.77a59.52,59.52,0,0,0,7-1.16l1.9,4.05-.13-4.49c.82-.2,1.64-.42,2.52-.67a32.53,32.53,0,0,0,4.23-1.54l2.08,4.43-.15-5.34a27.31,27.31,0,0,0,8.2-6.33,18.68,18.68,0,0,1,.74,1.82A28.92,28.92,0,0,1,461.71,309.67Z" transform="translate(-43.63 -44.55)"/><path class="cls-13" d="M346.16,304.76s6.3,9.44,28.16,10.93a70,70,0,0,0,38.34-8.76s-23.52,7.07-39.81,4.55A132.39,132.39,0,0,1,346.16,304.76Z" transform="translate(-43.63 -44.55)"/><path class="cls-13" d="M446,289l-1.59-.17s-13.52-15.52-29.57-16.13-37.95,7.4-51,10.25-17.46,0-17.46,0,4,.38,17.61-3.59,34.67-13.27,56.46-9.29C441.83,274,445.86,288.51,446,289Z" transform="translate(-43.63 -44.55)"/><path class="cls-12" d="M447.89,289.21l-1.67-.19A13.4,13.4,0,0,1,447.89,289.21Z" transform="translate(-43.63 -44.55)"/><path class="cls-13" d="M335.15,298.67s2.28,1,9.16-.5a25.42,25.42,0,0,0,11.08-5.33l-3.95-.24Z" transform="translate(-43.63 -44.55)"/><path class="cls-4" d="M493.44,556.72c-7.05,44.8-74.91,76.61-74.91,76.61l-5.92-6.94C428,617.27,472.9,588.71,483,559.63c12.23-35.27-6.81-125.09-6.81-125.09l.08.08a55.46,55.46,0,0,1,3.88,4.75C486.83,452.5,500.22,513.7,493.44,556.72Z" transform="translate(-43.63 -44.55)"/><path class="cls-4" d="M455.16,542.5l22.29,14.66S477.2,538.47,455.16,542.5Z" transform="translate(-43.63 -44.55)"/><path class="cls-9" d="M270.94,496.58l-3,7.64S266,498.26,270.94,496.58Z" transform="translate(-43.63 -44.55)"/><path class="cls-9" d="M277.84,500l-3,7.64S272.89,501.67,277.84,500Z" transform="translate(-43.63 -44.55)"/><path class="cls-9" d="M282.8,505.05l-3,7.63S277.84,506.72,282.8,505.05Z" transform="translate(-43.63 -44.55)"/><polygon class="cls-9" points="347.33 558.76 361.71 578.31 362.49 576.05 363.37 575.26 348.62 558 347.33 558.76"/><path class="cls-9" d="M406.11,620.6a67.25,67.25,0,0,1-4.12,10c-2.17,3.88-6.81,9.22-11.58,9.58s-5-2.22-5-2.22-3.65,1-5.87-.42a3.53,3.53,0,0,1-1.67-3.7s-3.67.08-5.38-1.58a4.11,4.11,0,0,1-.85-4s-3.34.47-4.59-2.23c-.66-1.42-.21-4.55,1-7.6a6.13,6.13,0,0,0,2.3,3.92c3.28,2.4,5,1.76,5,1.76s-1.14,3.93,1.39,5.3a6.44,6.44,0,0,0,4.78.63,8.59,8.59,0,0,0,3.9,3.31,10.51,10.51,0,0,0,4.77.84,17.57,17.57,0,0,0,7.81-2.39c3.66-2.27,6.57-11.67,6.57-11.67Z" transform="translate(-43.63 -44.55)"/><path class="cls-9" d="M283.45,523.92s-10.39-5-15.46-9.92c4.13,2.37,9.92,5.09,14.8,5.09,8.67,0,7.66-4.29,7.66-4.29l-3.13-4.28s3-5.42,2.13-7.69-5.67,1.69-6.15,2.08h0l0,0h0c.49-.55,4.26-4.83,6.93-3.49,2.87,1.42-1.42,9-1.42,9s4.1,3.64,5.26,7.18S288.54,525.08,283.45,523.92Z" transform="translate(-43.63 -44.55)"/><path class="cls-5" d="M648,527.76c-1.93,2.8-4,5.59-6.06,8.4-3.5,4.66-7.25,9.32-11.2,14-3.29,3.91-6.74,7.81-10.3,11.68-.66.74-1.34,1.48-2,2.21L607,516.92l-21.32-87.85-.39-1.61-1.44-6,8.35-2s37.86,25,49.88,76.66C644.83,507.92,646.72,518.53,648,527.76Z" transform="translate(-43.63 -44.55)"/><path class="cls-6" d="M646.66,407.53c-5.56,8.06-16.92,6.3-16.92,6.3l1-11.62a27.83,27.83,0,0,1-10.11,10.61c-6,3.5-16.36,1.42-22.24-.22-2.7-.77-4.47-1.44-4.47-1.44l.68-1.13c3.75-6.3,22-37.91,26.78-64.15,1.19-6.55.31-13.69-2-20.89-7.87-25-32.47-50.65-45-54.06,0,0,10.51-8.46,30.82-2.87,27.15,7.49,38.28,17.12,49,50.54C668.34,362.75,652.22,399.47,646.66,407.53Z" transform="translate(-43.63 -44.55)"/><path class="cls-6" d="M642,536.16c-3.5,4.66-7.25,9.32-11.2,14-3.29,3.91-6.74,7.81-10.3,11.68L607,516.92l-26.74-89.26a21.67,21.67,0,0,0,5.42,1.41,13.45,13.45,0,0,0,1.34.14,18.93,18.93,0,0,0,7.63-.88s22.45,17.22,38.11,60.16C637.75,502.16,640.51,519.24,642,536.16Z" transform="translate(-43.63 -44.55)"/><path class="cls-19" d="M629.74,413.83l1-11.62a27.83,27.83,0,0,1-10.11,10.61c-6,3.5-16.36,1.42-22.24-.22a32,32,0,0,1-3.79-2.57c3.75-6.3,22-37.91,26.78-64.15,1.19-6.55.31-13.69-2-20.89l19.49-18.39s9.28,23,10.78,57.56S629.74,413.83,629.74,413.83Z" transform="translate(-43.63 -44.55)"/><path class="cls-7" d="M642,334s0,18.59-4.71,36.35c-.57,2.19-1.23,4.38-2,6.52-.63,1.8-1.3,3.55-2,5.25-6.68,15.43-20.3,20.35-34,19.74l-1.71,29.53s-11,6.34-47-11.75L553.94,368a19.85,19.85,0,0,1-14.07-5.59c-7.77-7.38-7.48-21.14-.94-26.13a9.18,9.18,0,0,1,11.67,0c-.77-22.74,3-41.21,17.88-47.39,18.2-7.58,49.65-5.3,62.53,4.93S642,334,642,334Z" transform="translate(-43.63 -44.55)"/><path class="cls-5" d="M608.34,350.3s-1.82-6.94-6.23-7.95-8.63.88-11.52,4.47c0,0-.76,5.86,1.82,10.08a40.25,40.25,0,0,0,10.71,2.2S607.65,355.42,608.34,350.3Z" transform="translate(-43.63 -44.55)"/><path class="cls-6" d="M628.3,323.58c-13.78,16.93-39.91,13.83-39.91,13.83s-4.14,9.61-10.8,14.66-12,3.8-12,3.8-2.15-11.89-9.07-17.53a8.28,8.28,0,0,0-9.28-1.1c-2.46,1.36-4.76,4.26-4.23,10.45a23,23,0,0,0,10,17,18.81,18.81,0,0,0,7.65,3.18c.33.05.67.08,1,.11l-2,34s-6.4,3-17.58,0-13.48-8-13.48-8V379.36l-4.59,13.39s-11.49-1-18.38-10.62a20.91,20.91,0,0,1-3.52-7.78c-1.84-8.13.85-17.73,6-29.12,7.39-16.29,21.49-27.7,21.49-27.7a88.51,88.51,0,0,1,6.68-21.39,61.89,61.89,0,0,1,10.6-16.34A38.59,38.59,0,0,1,566.79,268c30.79-7.08,67.17,23.56,73.18,32.14C640,300.09,642.09,306.66,628.3,323.58Z" transform="translate(-43.63 -44.55)"/><path class="cls-8" d="M620.27,347.15l-1.77,17.68s5.18-.13,7,3.28-9.6,4.8-11.62,2.66,3.41-24.26,5-25.52S620.27,347.15,620.27,347.15Z" transform="translate(-43.63 -44.55)"/><path class="cls-9" d="M603.34,376.83s3,5.3,8.72,6.57,9.09-1.27,9.09-1.27Z" transform="translate(-43.63 -44.55)"/><path class="cls-6" d="M603.31,351.85c-.79,3.68-4,6.09-7.28,5.4s-5.21-4.24-4.42-7.92,4-6.09,7.29-5.4S604.1,348.17,603.31,351.85Z" transform="translate(-43.63 -44.55)"/><path class="cls-5" d="M596.6,348.63a1.47,1.47,0,1,1-2.85-.62,1.55,1.55,0,0,1,1.77-1.31A1.57,1.57,0,0,1,596.6,348.63Z" transform="translate(-43.63 -44.55)"/><path class="cls-5" d="M637.16,355.4s-1.44-5.81-4.93-6.65-6.82.74-9.11,3.74c0,0-.6,4.89,1.44,8.42a30.45,30.45,0,0,0,8.47,1.84S636.62,359.68,637.16,355.4Z" transform="translate(-43.63 -44.55)"/><path class="cls-6" d="M633.18,356.69c-.62,3.08-3.2,5.1-5.76,4.51s-4.12-3.54-3.49-6.62,3.2-5.09,5.76-4.51S633.81,353.62,633.18,356.69Z" transform="translate(-43.63 -44.55)"/><path class="cls-6" d="M627.6,336.44s5.88-1.51,9.56,1c0,0-.12-4.64-4.1-5.47S627.6,336.44,627.6,336.44Z" transform="translate(-43.63 -44.55)"/><path class="cls-9" d="M599.28,401.86s-17.54-2.66-26.44-18.11c0,0,.38,8.86,8.34,18.11s17.53,9.89,17.53,9.89Z" transform="translate(-43.63 -44.55)"/><path class="cls-5" d="M630.75,550.14c-3.29,3.91-6.74,7.81-10.3,11.68-.66.74-1.34,1.48-2,2.21-31.55,34-70.62,65.68-96.32,83.83h0s-11.57-145.23-7-182S551.72,402,551.72,402a153.47,153.47,0,0,1,33.58,25.42l1.73,1.75c9.52,9.79,18.92,22.17,25.22,37.05C619.62,483.69,626.11,519.07,630.75,550.14Z" transform="translate(-43.63 -44.55)"/><path class="cls-14" d="M745.39,538l-.62,5.22-9.31,78-.73,6.07a18.5,18.5,0,0,1-.49,2.59,19.85,19.85,0,0,1-21.57,14.75l-84.11-10a19.84,19.84,0,0,1-17.36-22l.66-5.55,1.53-12.73L621,530.79l.89-7.51a45,45,0,0,1,34.44-38.51l1.36-11.48.38-3.11,63,7.52-.41,3.48-1.26,10.52A45,45,0,0,1,745.39,538Z" transform="translate(-43.63 -44.55)"/><path class="cls-13" d="M734.8,468a15.21,15.21,0,0,1-1.29,4.55A15,15,0,0,1,720,481.21a15.49,15.49,0,0,1-1.79-.11l-56.42-6.73a15,15,0,0,1,1.76-29.84,15.46,15.46,0,0,1,1.79.1l56.42,6.74A15,15,0,0,1,734.8,468Z" transform="translate(-43.63 -44.55)"/><path class="cls-13" d="M744.77,543.25l-9.31,78c-11.55,1.85-40.18,1.15-64.77-2.44-14-2.05-25-4-33.75-5.8-12.55-2.55-20.31-4.67-25.08-6l1.53-12.73L621,530.79c11.64,2.75,36,7.67,70,10.3C716.41,543,733.86,543.38,744.77,543.25Z" transform="translate(-43.63 -44.55)"/><path class="cls-6" d="M704.38,570.26l-19.16,12.29,1.72,8.6s-26.82,13.12-50,21.88c-12.55-2.55-20.31-4.67-25.08-6l1.53-12.73,92.22-27.37Z" transform="translate(-43.63 -44.55)"/><path class="cls-7" d="M711,561.34l-1.13.49c-3.14,1.34-6,2.48-7.37,3l.06.76a1.33,1.33,0,0,1,.19-.24,50,50,0,0,1,7-2.89,6,6,0,0,1,3.5-.35c2.14,1,.61,3.89-3.43,5.65s-7,3.2-7,3.2l-15.25,3.41-11.45,2.54-1.79.4-8.08-18.63,2.31-.67,3-.86,1.92-.55s2-8.21,4.16-12.26,10.85-9.41,14-8a1,1,0,0,1,.23.12c2.93,1.83-3.57,7.47-4.66,8.08l-1.71,2.82,15.56-3.07s1.85-.92,4.17-1.9c3.11-1.29,7.07-2.67,8.54-2,2.58,1.2.73,4.69-4.13,6.81L708,548c-2.69,1.14-5.12,2.1-6.49,2.65l.06,1c1.44-.69,4.1-1.91,6.72-2.88,2.87-1.08,5.7-1.88,6.79-1.38,2.58,1.2.74,4.69-4.13,6.81l-1.23.53c-3.52,1.5-6.65,2.75-7.73,3.17l.06,1c.11-.14.2-.27.32-.4a68.27,68.27,0,0,1,7.43-3.15c2.2-.74,4.3-1.21,5.28-.75C717.66,555.73,715.82,559.22,711,561.34Z" transform="translate(-43.63 -44.55)"/><path class="cls-18" d="M679.31,584.77s-107.54,55.85-131.62,24.52c-19.89-25.87-33.44-80.45-37.12-118.73a186.33,186.33,0,0,1-1-21.6,50.42,50.42,0,0,1,.6-6.78c3.9-24.69,36.23-31.94,50.55-11.45l.4.58c13.44,19.6,19.14,110.34,19.14,110.34l84.48-13.44,11.6,29.13Z" transform="translate(-43.63 -44.55)"/><ellipse class="cls-12" cx="542.3" cy="319.62" rx="5.48" ry="5.07"/><path class="cls-12" d="M637.28,370.36c-.57,2.19-1.23,4.38-2,6.52a5.69,5.69,0,0,1-2.93.79,5.08,5.08,0,1,1,0-10.13A5.5,5.5,0,0,1,637.28,370.36Z" transform="translate(-43.63 -44.55)"/><path class="cls-5" d="M627.75,354.26a1.18,1.18,0,1,1-.87-1.55A1.26,1.26,0,0,1,627.75,354.26Z" transform="translate(-43.63 -44.55)"/><path class="cls-13" d="M567,291.42l-3.72,7.33V290c-2.18-.87-4.09-1.72-5.76-2.53l-6.69,7.31,2.65-9.47c-3.73-2.22-5.61-4.1-6.53-5.53a61.89,61.89,0,0,0-10.6,16.34,48.66,48.66,0,0,0,5.35,3.62l4.4-7.54-.58,9.58a67.34,67.34,0,0,0,10.35,4,103.58,103.58,0,0,0,10.93,2.58l5.83-10.45-.46,11.26a82.58,82.58,0,0,0,11,.62l3.05-9.85,1.64,9.63a42.25,42.25,0,0,0,7.3-1.11L604.54,297S588.93,299.34,567,291.42Z" transform="translate(-43.63 -44.55)"/><path class="cls-15" d="M661,631.49c-22.21-2.76-35-8.15-42-12.47a187.23,187.23,0,0,0,18-6c-12.55-2.55-20.31-4.67-25.08-6l-.66,5.55a19.94,19.94,0,0,0-.13,2c0,.24,0,.47,0,.71,0,.43,0,.87,0,1.3,0,.13,0,.24,0,.36.06.54.12,1.08.22,1.61,0,0,0,.1,0,.14a17.33,17.33,0,0,0,.42,1.76h0a19.85,19.85,0,0,0,16.7,14.13l84.11,10a19.85,19.85,0,0,0,21.57-14.75A258.88,258.88,0,0,1,661,631.49Z" transform="translate(-43.63 -44.55)"/><path class="cls-13" d="M582.61,267.29s9.51,2,22.94,10.61S620.83,289,620.83,289,608.87,265.91,582.61,267.29Z" transform="translate(-43.63 -44.55)"/><path class="cls-13" d="M590.49,330.83s14.56.38,26.65-5.92,14.44-16.37,14.44-16.37S618.86,325.16,590.49,330.83Z" transform="translate(-43.63 -44.55)"/><path class="cls-13" d="M508.68,373.6s1-34.92,20.31-51.21Z" transform="translate(-43.63 -44.55)"/><path class="cls-19" d="M561.73,368l-2,34s-6.4,3-17.58,0-13.48-8-13.48-8V379.36l-4.59,13.39s-11.49-1-18.38-10.62a20.91,20.91,0,0,1-3.52-7.78c11.4,2.68,33.34,5.07,58.56-6.45C561,368,561.38,368,561.73,368Z" transform="translate(-43.63 -44.55)"/><path class="cls-9" d="M549.92,342.6c2.86,1,5.46,3.79,7.74,7.62,0,0-2.33.19-2.2,3.34s4.84,5.22,4.84,5.22,1.89,3.78-1.7,3.72a7,7,0,0,1-6.79-7,6.24,6.24,0,0,1,2.7-5.79s-1.63-3.15-3.78-4-.69,6.23-2.26,6.49S544.86,340.84,549.92,342.6Z" transform="translate(-43.63 -44.55)"/><path class="cls-6" d="M608.34,350.3a9.72,9.72,0,0,0-4-9.14c-5-3.47-12.84,1.51-13.34,1.76a6.85,6.85,0,0,1-2.51-.29,5.79,5.79,0,0,0,2.13,4.19s4.71-5.18,10.14-4.59S608.34,350.3,608.34,350.3Z" transform="translate(-43.63 -44.55)"/><path class="cls-6" d="M623.12,352.49s4.48-5.13,9.11-3.74c4.07,1.22,4.93,6.89,4.93,6.89s2.16-.29,2.93-1.45l-2-.85s-.41-4-3.59-5.86S625.24,347.92,623.12,352.49Z" transform="translate(-43.63 -44.55)"/><path class="cls-15" d="M657.27,476.69s7.38,4,28.87,7.72,34,.66,34,.66l.88-7.36-63-7.52Z" transform="translate(-43.63 -44.55)"/><path class="cls-4" d="M679.31,584.77s-107.68,55.64-131.76,24.31c-19.89-25.87-33.45-80.45-37.12-118.73,8.74,34.73,27.37,97.32,50.32,109.36,32.12,16.84,115.45-22.59,115.45-22.59h0Z" transform="translate(-43.63 -44.55)"/><path class="cls-4" d="M578.8,563.82s-2.56,18-6.57,27.33c0,0,5.56.5,9.34-9.07S578.8,563.82,578.8,563.82Z" transform="translate(-43.63 -44.55)"/><path class="cls-9" d="M709.82,567.78c-4,1.76-7,3.2-7,3.2l-15.25,3.41-11.45,2.54-.06-.22H676L668.6,558l-.09-.22,3-.86.11.22,3.78,8.18A12,12,0,0,0,688.9,572c.94-.21,2-.45,3-.71,8.84-2.13,13.81-3.42,16.92-4.61a7.51,7.51,0,0,0,4.4-4.55C715.39,563.12,713.86,566,709.82,567.78Z" transform="translate(-43.63 -44.55)"/><path class="cls-9" d="M687.24,544.61l-1.71,2.82s-3.84,2-4.26,1.2,2.43-3.36,6.22-6.89a20.87,20.87,0,0,0,4.18-5.33,1,1,0,0,1,.23.12C694.83,538.36,688.33,544,687.24,544.61Z" transform="translate(-43.63 -44.55)"/><path class="cls-9" d="M700.39,552.57a5.22,5.22,0,0,1-2.9,1.93c-1.76.34-2.83.54-3.27,0S699,552.45,700.39,552.57Z" transform="translate(-43.63 -44.55)"/><path class="cls-9" d="M701.08,558.68a5.28,5.28,0,0,1-2.89,1.93c-1.77.34-2.84.53-3.28,0S699.7,558.56,701.08,558.68Z" transform="translate(-43.63 -44.55)"/><path class="cls-9" d="M701.84,565.82a5.23,5.23,0,0,1-2.9,1.92c-1.76.34-2.83.54-3.27,0S700.45,565.69,701.84,565.82Z" transform="translate(-43.63 -44.55)"/><path class="cls-18" d="M549,404l33.13,48.24,14.59-2.68-2.22,12.7,28.7,43.12s-3.25-41-30.55-70.74-40.07-34.78-40.07-34.78Z" transform="translate(-43.63 -44.55)"/><path class="cls-6" d="M733.51,472.56A15,15,0,0,1,720,481.21a15.49,15.49,0,0,1-1.79-.11l-56.42-6.73a15,15,0,0,1-11.58-21.67c3.81,3.8,11.71,9.93,26.07,14.25C694.59,472.46,721.45,473.9,733.51,472.56Z" transform="translate(-43.63 -44.55)"/><path class="cls-20" d="M687.15,450.5s33.58,2.35,38.28,4.53,1,5.54-24.68,1.51S683,450.18,687.15,450.5Z" transform="translate(-43.63 -44.55)"/><path class="cls-16" d="M658.44,487.94s4.48,3.86,21.13,6.88,38.13.5,39.31,0,6.94,4.57,9.47,7.39c2.11,2.35-33,6.23-54.47.67-18.24-4.72-20.31-8.4-27-3.86s-12.41,13.48-14.93,10.24S645,488.27,658.44,487.94Z" transform="translate(-43.63 -44.55)"/><polygon class="cls-2" points="228.08 315.63 215.43 315.63 215.43 302.98 198.21 302.98 198.21 315.63 185.55 315.63 185.55 332.85 198.21 332.85 198.21 345.51 215.43 345.51 215.43 332.85 228.08 332.85 228.08 315.63"/><polygon class="cls-2" points="707.84 364.47 697.9 364.47 697.9 354.53 684.37 354.53 684.37 364.47 674.43 364.47 674.43 377.99 684.37 377.99 684.37 387.93 697.9 387.93 697.9 377.99 707.84 377.99 707.84 364.47"/><path class="cls-14" d="M232.84,528.23H254a0,0,0,0,1,0,0V590.6a6.32,6.32,0,0,1-6.32,6.32h-8.51a6.32,6.32,0,0,1-6.32-6.32V528.23A0,0,0,0,1,232.84,528.23Z" transform="translate(-208.14 60.5) rotate(-18.32)"/><path class="cls-2" d="M245.07,522.69l.26.79a6.18,6.18,0,0,1-3.89,7.76l-15.14,5a6.13,6.13,0,0,1-7.74-3.9l-.27-.79a6,6,0,0,1-.31-1.82h0a6.15,6.15,0,0,1,4.21-5.92l15.14-5A6.13,6.13,0,0,1,245.07,522.69Z" transform="translate(-43.63 -44.55)"/><path class="cls-16" d="M230.72,531.43l17.86,53.94a5.05,5.05,0,0,0,6.37,3.2h0a5,5,0,0,0,3.19-6.36l-17.49-52.84Z" transform="translate(-43.63 -44.55)"/><path class="cls-13" d="M245.57,524.51a6.13,6.13,0,0,1-4.13,6.73l-15.14,5a6.13,6.13,0,0,1-7.74-3.9l-.27-.79a6,6,0,0,1-.31-1.82c2.75,1,7.46,1.77,14.64.23A34.63,34.63,0,0,0,245.57,524.51Z" transform="translate(-43.63 -44.55)"/><path class="cls-3" d="M764.89,346c-2.74,5.81-12.2,7.11-21.13,2.89s-13.93-12.36-11.18-18.18c1.74-3.68,6.18-5.54,11.46-5.35.7,0,1.42.09,2.15.19a25.62,25.62,0,0,1,7.53,2.28C762.65,332,767.65,340.16,764.89,346Z" transform="translate(-43.63 -44.55)"/><path class="cls-2" d="M732.58,330.69l-1.46,3.05a7.37,7.37,0,0,0-.57,4.69c.72,3.33,3,8.89,10.25,13,7.66,4.34,14.27,3.35,18.05,1.81a10.9,10.9,0,0,0,4.48-4.27l1.24-2.37a20.57,20.57,0,0,1-21.34,1.4C731.33,342,732.58,330.69,732.58,330.69Z" transform="translate(-43.63 -44.55)"/><path class="cls-2" d="M754.88,351.06h-2.53L744,325.34c.7,0,1.42.09,2.15.19Z" transform="translate(-43.63 -44.55)"/><path class="cls-21" d="M857.58,505.46l-.05-.86a.87.87,0,0,0-.94-.77.84.84,0,0,0-.81.76l-4-.25a8.53,8.53,0,0,0-1.52-2.83l3.1-3.93a1,1,0,0,0,1.2-.1.78.78,0,0,0-.08-1.15l-.7-.57-.7-.57a1,1,0,0,0-1.25.08.75.75,0,0,0,0,1.06c-1.07.86-2.75,2.23-3.85,3.14a10.19,10.19,0,0,0-4.06-1.5l-.51-4.85a.81.81,0,1,0-.06-1.62h-1.86a.85.85,0,0,0-.89.81.84.84,0,0,0,.77.8c-.19,1.36-.49,3.56-.65,4.89a10.21,10.21,0,0,0-4.07,1.61c-1.08-.9-2.89-2.37-4-3.28a.76.76,0,0,0,0-1.06,1,1,0,0,0-1.25-.08l-.7.57-.7.57a.77.77,0,0,0-.08,1.15.94.94,0,0,0,1.19.1l3.29,4.16a8.44,8.44,0,0,0-1.33,2.58l-4.38.27a.85.85,0,0,0-.81-.76.87.87,0,0,0-.94.77l-.05.86,0,.85a.83.83,0,0,0,.83.86.86.86,0,0,0,.92-.71l4.1.58a8.43,8.43,0,0,0,1.84,5l-3.18,3.69a.94.94,0,0,0-1.2,0,.77.77,0,0,0,0,1.15l.67.6.67.59a.94.94,0,0,0,1.25,0,.76.76,0,0,0,0-1.07c1.1-.81,2.82-2.09,4-2.95a10.26,10.26,0,0,0,4,1.54l.28,5a.81.81,0,1,0,0,1.62l.93,0,.94,0a.86.86,0,0,0,.92-.78.83.83,0,0,0-.74-.82c.27-1.41.69-3.74.91-5a10.31,10.31,0,0,0,3.92-1.44c1,.91,2.9,2.59,4,3.6a.76.76,0,0,0-.06,1.06.94.94,0,0,0,1.25.12l.72-.54.73-.53a.79.79,0,0,0,.13-1.15.94.94,0,0,0-1.19-.15l-3.27-4.54a8.44,8.44,0,0,0,1.85-5.08l3.73-.53a.86.86,0,0,0,.92.71.83.83,0,0,0,.83-.86Z" transform="translate(-43.63 -44.55)"/><path class="cls-21" d="M274.45,120.76l-.1-1.55a1.56,1.56,0,0,0-1.68-1.39,1.52,1.52,0,0,0-1.48,1.36l-7.24-.44a15.74,15.74,0,0,0-2.76-5.13l5.62-7.11a1.68,1.68,0,0,0,2.15-.18,1.39,1.39,0,0,0-.14-2.08l-1.26-1-1.27-1a1.7,1.7,0,0,0-2.26.13,1.36,1.36,0,0,0,0,1.92c-1.93,1.56-5,4-7,5.68a18.48,18.48,0,0,0-7.35-2.71l-.91-8.79A1.5,1.5,0,0,0,250.3,97a1.54,1.54,0,0,0-1.6-1.47h-3.37a1.54,1.54,0,0,0-1.6,1.47,1.51,1.51,0,0,0,1.39,1.44c-.34,2.46-.88,6.44-1.18,8.86a18.31,18.31,0,0,0-7.36,2.9c-2-1.63-5.23-4.29-7.26-5.93a1.37,1.37,0,0,0,0-1.92,1.7,1.7,0,0,0-2.26-.13l-1.26,1-1.27,1a1.39,1.39,0,0,0-.14,2.08,1.69,1.69,0,0,0,2.16.18L232.5,114a15.7,15.7,0,0,0-2.41,4.67c-2.55.14-5.76.35-7.92.48a1.51,1.51,0,0,0-1.47-1.36,1.56,1.56,0,0,0-1.69,1.39l-.1,1.55-.09,1.55a1.52,1.52,0,0,0,1.5,1.55,1.57,1.57,0,0,0,1.66-1.28l7.43,1a15.28,15.28,0,0,0,3.33,9.08L227,139.38a1.68,1.68,0,0,0-2.16.1,1.4,1.4,0,0,0,0,2.08l1.22,1.07,1.22,1.08a1.71,1.71,0,0,0,2.26,0,1.38,1.38,0,0,0,.08-1.93c2-1.46,5.09-3.78,7.14-5.34a18.25,18.25,0,0,0,7.29,2.78l.51,9a1.46,1.46,0,1,0,0,2.92l1.69.07,1.68.07a1.56,1.56,0,0,0,1.67-1.41,1.49,1.49,0,0,0-1.33-1.49c.48-2.56,1.25-6.77,1.65-9.12a18.46,18.46,0,0,0,7.08-2.62c1.81,1.65,5.25,4.69,7.33,6.53a1.37,1.37,0,0,0-.1,1.92,1.7,1.7,0,0,0,2.25.22l1.31-1,1.32-1a1.41,1.41,0,0,0,.23-2.08,1.67,1.67,0,0,0-2.14-.26l-5.93-8.22a15.35,15.35,0,0,0,3.36-9.2l6.75-1a1.57,1.57,0,0,0,1.66,1.28,1.53,1.53,0,0,0,1.51-1.55Z" transform="translate(-43.63 -44.55)"/><path class="cls-21" d="M602.29,110.39l-.13-2.14a2.16,2.16,0,0,0-2.34-1.91,2.11,2.11,0,0,0-2,1.88l-10-.62a21.6,21.6,0,0,0-3.81-7.08l7.76-9.82a2.33,2.33,0,0,0,3-.26,1.92,1.92,0,0,0-.2-2.87l-1.75-1.42L591,84.74a2.34,2.34,0,0,0-3.13.18,1.89,1.89,0,0,0,0,2.66c-2.67,2.15-6.89,5.57-9.62,7.84a25.56,25.56,0,0,0-10.17-3.74l-1.25-12.14a2.1,2.1,0,0,0,2-2,2.13,2.13,0,0,0-2.21-2h-4.67a2.13,2.13,0,0,0-2.21,2,2.1,2.1,0,0,0,1.93,2c-.47,3.4-1.22,8.9-1.64,12.24a25.36,25.36,0,0,0-10.16,4c-2.7-2.25-7.23-5.92-10-8.19a1.89,1.89,0,0,0,0-2.66,2.33,2.33,0,0,0-3.12-.18l-1.75,1.41-1.74,1.42a1.92,1.92,0,0,0-.2,2.87,2.33,2.33,0,0,0,3,.26l8.21,10.4a21.47,21.47,0,0,0-3.32,6.45c-3.53.2-8,.48-10.94.67a2.12,2.12,0,0,0-2.05-1.88,2.16,2.16,0,0,0-2.33,1.91l-.13,2.14-.14,2.14a2.11,2.11,0,0,0,2.09,2.15,2.15,2.15,0,0,0,2.29-1.77l10.26,1.45a21.09,21.09,0,0,0,4.6,12.53l-7.95,9.23a2.34,2.34,0,0,0-3,.14,1.92,1.92,0,0,0,.06,2.88l1.68,1.48,1.69,1.49a2.35,2.35,0,0,0,3.12-.06,1.89,1.89,0,0,0,.1-2.66c2.74-2,7-5.23,9.87-7.39a25.25,25.25,0,0,0,10.08,3.85l.7,12.39a2,2,0,1,0,0,4l2.33.09,2.32.09a2.15,2.15,0,0,0,2.31-1.94,2.07,2.07,0,0,0-1.84-2.06c.66-3.54,1.73-9.35,2.28-12.6a25.54,25.54,0,0,0,9.78-3.62c2.5,2.29,7.25,6.48,10.13,9a1.89,1.89,0,0,0-.14,2.65,2.35,2.35,0,0,0,3.11.31l1.81-1.35,1.81-1.35a1.92,1.92,0,0,0,.33-2.86,2.32,2.32,0,0,0-3-.37l-8.19-11.36a21.13,21.13,0,0,0,4.64-12.71l9.33-1.31a2.15,2.15,0,0,0,2.29,1.77,2.1,2.1,0,0,0,2.08-2.15Z" transform="translate(-43.63 -44.55)"/><path class="cls-21" d="M161.83,435.13l-.08-1.39a1.41,1.41,0,0,0-1.52-1.24,1.37,1.37,0,0,0-1.32,1.22l-6.49-.4a14,14,0,0,0-2.47-4.59l5-6.37a1.53,1.53,0,0,0,1.94-.17,1.25,1.25,0,0,0-.13-1.86l-1.13-.92-1.14-.92a1.52,1.52,0,0,0-2,.12,1.23,1.23,0,0,0,0,1.72c-1.73,1.4-4.47,3.62-6.24,5.09a16.39,16.39,0,0,0-6.59-2.42l-.82-7.88a1.37,1.37,0,0,0,1.34-1.3,1.39,1.39,0,0,0-1.44-1.32h-3a1.38,1.38,0,0,0-1.44,1.32,1.34,1.34,0,0,0,1.25,1.28c-.3,2.22-.79,5.78-1.06,7.94a16.42,16.42,0,0,0-6.59,2.61c-1.75-1.46-4.69-3.84-6.51-5.32a1.23,1.23,0,0,0,0-1.72,1.52,1.52,0,0,0-2-.12l-1.14.92-1.13.92a1.25,1.25,0,0,0-.13,1.86,1.53,1.53,0,0,0,1.94.17l5.32,6.74a13.88,13.88,0,0,0-2.15,4.19l-7.1.43a1.38,1.38,0,0,0-1.33-1.22,1.4,1.4,0,0,0-1.51,1.24l-.09,1.39-.08,1.39a1.36,1.36,0,0,0,1.35,1.39,1.4,1.4,0,0,0,1.49-1.15l6.65.94a13.64,13.64,0,0,0,3,8.13l-5.16,6a1.51,1.51,0,0,0-1.94.09,1.24,1.24,0,0,0,0,1.86l1.09,1,1.09,1a1.52,1.52,0,0,0,2,0,1.23,1.23,0,0,0,.06-1.72c1.78-1.32,4.57-3.39,6.41-4.79a16.4,16.4,0,0,0,6.53,2.49l.46,8a1.31,1.31,0,1,0,0,2.62l1.51.06,1.51.06a1.41,1.41,0,0,0,1.5-1.26,1.35,1.35,0,0,0-1.19-1.34c.42-2.29,1.12-6.06,1.47-8.17a16.26,16.26,0,0,0,6.34-2.35c1.63,1.49,4.71,4.21,6.58,5.85a1.22,1.22,0,0,0-.09,1.72,1.51,1.51,0,0,0,2,.2l1.18-.87,1.17-.88a1.25,1.25,0,0,0,.22-1.85,1.52,1.52,0,0,0-1.93-.25L150,445.86a13.66,13.66,0,0,0,3-8.24l6.05-.86a1.4,1.4,0,0,0,1.49,1.15,1.36,1.36,0,0,0,1.35-1.39Z" transform="translate(-43.63 -44.55)"/><path class="cls-21" d="M885.33,255.86l-.68-1.12a1.32,1.32,0,0,0-1.8-.37,1.28,1.28,0,0,0-.57,1.6c-1.52.67-3.71,1.66-5.58,2.5a13.34,13.34,0,0,0-4.06-2.74l1.39-7.5a1.43,1.43,0,0,0,1.54-1,1.16,1.16,0,0,0-.92-1.49l-1.35-.27-1.34-.27a1.44,1.44,0,0,0-1.64,1,1.15,1.15,0,0,0,.77,1.42c-.83,1.93-2.13,5-3,7a15.51,15.51,0,0,0-6.55.87l-4.13-6.2a1.27,1.27,0,0,0,.54-1.66,1.29,1.29,0,0,0-1.77-.47l-1.26.66-1.26.66a1.31,1.31,0,0,0-.61,1.73,1.28,1.28,0,0,0,1.6.52c.71,2,1.87,5.15,2.59,7.07a15.44,15.44,0,0,0-4.34,5.05c-2.1-.45-5.59-1.14-7.75-1.57a1.15,1.15,0,0,0-.74-1.44,1.43,1.43,0,0,0-1.74.79l-.54,1.26-.54,1.26a1.19,1.19,0,0,0,.71,1.61A1.43,1.43,0,0,0,844,264l7.39,3.28a12.86,12.86,0,0,0,0,4.42c-1.85,1.11-4.17,2.52-5.72,3.47a1.29,1.29,0,0,0-1.64-.43,1.31,1.31,0,0,0-.71,1.69l.53,1.2.54,1.19a1.29,1.29,0,0,0,1.73.57,1.32,1.32,0,0,0,.74-1.61l6-2.13a12.83,12.83,0,0,0,6,5.46l-1.67,7.24a1.42,1.42,0,0,0-1.58.92,1.17,1.17,0,0,0,.85,1.53l1.33.33,1.33.32a1.42,1.42,0,0,0,1.67-.92,1.15,1.15,0,0,0-.7-1.46c.9-1.87,2.31-4.82,3.23-6.79a15.49,15.49,0,0,0,6.53-.78l3.9,6.48a1.23,1.23,0,1,0,1.13,2.19l1.29-.61,1.28-.61a1.32,1.32,0,0,0,.69-1.71,1.25,1.25,0,0,0-1.57-.59c-.65-2.09-1.73-5.53-2.35-7.44a15.76,15.76,0,0,0,4.25-4.73c2,.52,5.75,1.43,8,2a1.15,1.15,0,0,0,.68,1.47,1.43,1.43,0,0,0,1.76-.72l.59-1.24.6-1.25a1.16,1.16,0,0,0-.64-1.63,1.42,1.42,0,0,0-1.7.64L880.2,270a12.93,12.93,0,0,0-1.11-8.18l4.66-3.36a1.32,1.32,0,0,0,1.74.31A1.29,1.29,0,0,0,886,257Z" transform="translate(-43.63 -44.55)"/></svg>