<svg xmlns="http://www.w3.org/2000/svg" viewBox="0 0 1480.7 581.24"><defs><style>.cls-1{fill:#fff;}.cls-2,.cls-20,.cls-4{fill:none;}.cls-2{stroke:#dde9f8;}.cls-2,.cls-4{stroke-miterlimit:10;}.cls-3{fill:#dde9f8;}.cls-4{stroke:#b8d4f4;}.cls-5{fill:#b8d4f4;}.cls-6{fill:#73a4e0;}.cls-7{fill:#95c2ef;}.cls-8{fill:#b7d1ed;}.cls-9{fill:#242e42;}.cls-10{fill:#ffddd3;}.cls-11{fill:#d68583;}.cls-12{fill:#e5a5a1;}.cls-13{fill:#9c9b9b;}.cls-14{fill:#126489;}.cls-15{fill:#ffc9c3;}.cls-16{fill:#293e60;}.cls-17{fill:#8cb2ff;}.cls-18{fill:#7aa5ea;}.cls-19{fill:#abcbff;}.cls-20{stroke:#4570b4;stroke-linecap:round;stroke-linejoin:round;}.cls-21{fill:#d2e9ff;}.cls-22{fill:#141c26;}.cls-23{fill:#6990c9;}</style></defs><title>cover</title><g id="BACKGROUND"><rect class="cls-1" x="0.35" y="1.24" width="1480" height="580"/></g><g id="OBJECT"><path class="cls-2" d="M0,190.41S270.44,461.1,734.33,469.16C1165.52,476.65,1480,176.09,1480,176.09" transform="translate(0.35 1.61)"/><path class="cls-3" d="M0-1.61V118.32a901.38,901.38,0,0,0,69,67.37,933.09,933.09,0,0,0,101.25,77.16q24.24,16,49.63,30.62c147.49,85,323.07,134.3,511.51,134.3,198.1,0,382-54.48,534-147.64,1.6-1,3.2-2,4.8-3q14.33-8.9,28.27-18.25,16-10.76,31.52-22.09,36.25-26.55,69.44-56.15A887.84,887.84,0,0,0,1480,98.94V-1.61Z" transform="translate(0.35 1.61)"/><path class="cls-4" d="M228.13,296.53C315,144.47,511.92,56.16,740.88,56.16c224.37,0,417.95,84.53,507.39,231.29" transform="translate(0.35 1.61)"/><path class="cls-5" d="M1216.39,308.18C1078.52,392.68,911.69,442.1,732,442.1c-170.92,0-330.2-44.71-464-121.82C339.75,187.58,526.54,93,745.65,93,958.05,93,1140.08,181.86,1216.39,308.18Z" transform="translate(0.35 1.61)"/><path class="cls-5" d="M320.62,29.9l0-.45a.47.47,0,0,0-.92,0l-2.11-.13a4.58,4.58,0,0,0-.8-1.49l1.63-2.07a.48.48,0,0,0,.63-.05.41.41,0,0,0,0-.61l-.37-.3-.37-.29a.49.49,0,0,0-.65,0,.4.4,0,0,0,0,.56l-2,1.66a5.16,5.16,0,0,0-2.14-.79l-.26-2.56a.43.43,0,1,0,0-.85h-1a.45.45,0,0,0-.46.43.42.42,0,0,0,.4.41c-.1.72-.26,1.88-.34,2.58a5.38,5.38,0,0,0-2.14.85l-2.12-1.73a.4.4,0,0,0,0-.56.5.5,0,0,0-.66,0l-.37.29-.37.3a.41.41,0,0,0,0,.61.49.49,0,0,0,.63.05l1.73,2.19a4.39,4.39,0,0,0-.7,1.36l-2.31.14a.43.43,0,0,0-.43-.39.44.44,0,0,0-.49.4l0,.45,0,.45a.45.45,0,0,0,.44.45.45.45,0,0,0,.49-.37l2.16.31a4.47,4.47,0,0,0,1,2.64l-1.68,1.94a.5.5,0,0,0-.63,0,.41.41,0,0,0,0,.61l.35.31.35.31a.49.49,0,0,0,.66,0,.39.39,0,0,0,0-.56c.58-.43,1.49-1.1,2.08-1.56a5.44,5.44,0,0,0,2.13.82l.15,2.61a.44.44,0,0,0-.46.4.45.45,0,0,0,.45.45l.49,0,.49,0a.46.46,0,0,0,.49-.41.44.44,0,0,0-.39-.44c.14-.74.36-2,.48-2.65a5.55,5.55,0,0,0,2.06-.76c.53.48,1.53,1.36,2.14,1.89a.4.4,0,0,0,0,.56.48.48,0,0,0,.65.07l.38-.29.38-.28a.4.4,0,0,0,.07-.6.47.47,0,0,0-.62-.08l-1.73-2.39a4.45,4.45,0,0,0,1-2.68l2-.28a.46.46,0,0,0,.92-.08Z" transform="translate(0.35 1.61)"/><path class="cls-5" d="M1457.58,40.37l0-.86a.87.87,0,0,0-.94-.77.84.84,0,0,0-.81.76l-4-.25a8.53,8.53,0,0,0-1.52-2.83l3.1-3.93a1,1,0,0,0,1.2-.1.78.78,0,0,0-.08-1.15l-.7-.57-.7-.57a1,1,0,0,0-1.25.08.75.75,0,0,0,0,1.06c-1.07.86-2.75,2.23-3.85,3.14a10.19,10.19,0,0,0-4.06-1.5l-.51-4.85a.81.81,0,1,0-.06-1.62h-1.86a.85.85,0,0,0-.89.81.84.84,0,0,0,.77.8c-.19,1.36-.49,3.56-.65,4.89a10.21,10.21,0,0,0-4.07,1.61c-1.08-.9-2.89-2.37-4-3.28a.76.76,0,0,0,0-1.06,1,1,0,0,0-1.25-.08l-.7.57-.7.57a.77.77,0,0,0-.08,1.15.94.94,0,0,0,1.19.1l3.29,4.16a8.44,8.44,0,0,0-1.33,2.58l-4.38.27a.85.85,0,0,0-.81-.76.87.87,0,0,0-.94.77l0,.86-.05.85a.83.83,0,0,0,.83.86.86.86,0,0,0,.92-.71l4.1.58a8.43,8.43,0,0,0,1.84,5l-3.18,3.69a.94.94,0,0,0-1.2.05.77.77,0,0,0,0,1.15l.67.6.67.59a.94.94,0,0,0,1.25,0,.76.76,0,0,0,0-1.07c1.1-.81,2.82-2.09,4-3a10.26,10.26,0,0,0,4,1.54l.28,5a.81.81,0,1,0,0,1.62l.93,0,.94,0a.86.86,0,0,0,.92-.78.83.83,0,0,0-.74-.82c.27-1.41.69-3.74.91-5a10.31,10.31,0,0,0,3.92-1.44c1,.91,2.9,2.59,4,3.6a.76.76,0,0,0-.06,1.06.94.94,0,0,0,1.25.12l.72-.54.73-.53a.79.79,0,0,0,.13-1.15.94.94,0,0,0-1.19-.15L1450.3,47a8.44,8.44,0,0,0,1.85-5.08l3.73-.53a.86.86,0,0,0,.92.71.83.83,0,0,0,.83-.86Z" transform="translate(0.35 1.61)"/><path class="cls-5" d="M1210.45,40.22l-.1-1.55a1.54,1.54,0,0,0-1.68-1.38,1.52,1.52,0,0,0-1.48,1.36c-2-.13-4.82-.31-7.24-.45a15.6,15.6,0,0,0-2.76-5.12l5.62-7.11a1.68,1.68,0,0,0,2.15-.19,1.39,1.39,0,0,0-.14-2.08l-1.26-1-1.27-1a1.7,1.7,0,0,0-2.26.13,1.37,1.37,0,0,0,0,1.93c-1.93,1.56-5,4-7,5.67a18.47,18.47,0,0,0-7.35-2.7l-.91-8.79a1.46,1.46,0,1,0-.12-2.92h-3.37a1.53,1.53,0,0,0-1.6,1.47,1.51,1.51,0,0,0,1.39,1.43c-.34,2.47-.88,6.45-1.18,8.86a18.33,18.33,0,0,0-7.36,2.91c-2-1.63-5.23-4.29-7.26-5.93a1.38,1.38,0,0,0,0-1.93,1.7,1.7,0,0,0-2.26-.13l-1.26,1-1.27,1a1.39,1.39,0,0,0-.14,2.08,1.7,1.7,0,0,0,2.16.19l5.94,7.52a15.82,15.82,0,0,0-2.41,4.67l-7.92.49a1.51,1.51,0,0,0-1.47-1.36,1.55,1.55,0,0,0-1.69,1.38l-.1,1.55-.09,1.55a1.53,1.53,0,0,0,1.5,1.56A1.57,1.57,0,0,0,1158,42l7.43,1.05a15.23,15.23,0,0,0,3.33,9.07L1163,58.84a1.69,1.69,0,0,0-2.16.1,1.41,1.41,0,0,0,0,2.09l1.22,1.07,1.22,1.07a1.69,1.69,0,0,0,2.26,0,1.37,1.37,0,0,0,.08-1.92c2-1.47,5.09-3.79,7.14-5.35a18.41,18.41,0,0,0,7.29,2.79l.51,9A1.54,1.54,0,0,0,1179,69a1.52,1.52,0,0,0,1.53,1.53l1.69.07,1.68.06a1.55,1.55,0,0,0,1.67-1.41,1.48,1.48,0,0,0-1.33-1.48c.48-2.57,1.25-6.77,1.65-9.12A18.62,18.62,0,0,0,1193,56c1.81,1.65,5.25,4.69,7.33,6.52a1.37,1.37,0,0,0-.1,1.92,1.69,1.69,0,0,0,2.25.22l1.31-1,1.32-1a1.39,1.39,0,0,0,.23-2.07,1.69,1.69,0,0,0-2.14-.27l-5.93-8.22a15.33,15.33,0,0,0,3.36-9.2l6.75-1a1.57,1.57,0,0,0,1.66,1.29,1.54,1.54,0,0,0,1.51-1.56Z" transform="translate(0.35 1.61)"/><path class="cls-5" d="M125.06,52l-.13-2.13a2.14,2.14,0,0,0-2.32-1.9,2.08,2.08,0,0,0-2,1.87c-2.71-.18-6.62-.42-9.94-.62a21.4,21.4,0,0,0-3.79-7l7.71-9.77a2.32,2.32,0,0,0,3-.25,1.9,1.9,0,0,0-.19-2.85l-1.74-1.41-1.74-1.41a2.33,2.33,0,0,0-3.1.18,1.87,1.87,0,0,0,0,2.64c-2.65,2.14-6.84,5.54-9.56,7.79a25.36,25.36,0,0,0-10.1-3.71L89.86,21.31a2.09,2.09,0,0,0,2-2,2.11,2.11,0,0,0-2.2-2H85.07a2.11,2.11,0,0,0-2.2,2,2.08,2.08,0,0,0,1.92,2c-.47,3.39-1.22,8.85-1.63,12.16a25.15,25.15,0,0,0-10.1,4c-2.69-2.24-7.19-5.88-10-8.14a1.87,1.87,0,0,0,0-2.64,2.33,2.33,0,0,0-3.1-.18l-1.74,1.41L56.52,29.3a1.91,1.91,0,0,0-.19,2.85,2.32,2.32,0,0,0,3,.25l8.16,10.34a21.56,21.56,0,0,0-3.3,6.41c-3.5.2-7.91.48-10.88.67a2.08,2.08,0,0,0-2-1.87,2.13,2.13,0,0,0-2.32,1.9L48.79,52l-.13,2.12a2.1,2.1,0,0,0,2.07,2.14A2.14,2.14,0,0,0,53,54.48l10.2,1.43a21,21,0,0,0,4.57,12.47l-7.9,9.17a2.31,2.31,0,0,0-3,.14A1.89,1.89,0,0,0,57,80.54L58.64,82l1.67,1.47a2.34,2.34,0,0,0,3.11,0,1.89,1.89,0,0,0,.1-2.64c2.71-2,7-5.2,9.81-7.34a25.2,25.2,0,0,0,10,3.82L84,89.59a2,2,0,1,0,0,4l2.31.09,2.32.09a2.14,2.14,0,0,0,2.29-1.94,2.06,2.06,0,0,0-1.83-2c.66-3.52,1.72-9.29,2.26-12.52a25.34,25.34,0,0,0,9.72-3.6c2.49,2.27,7.22,6.44,10.08,9a1.88,1.88,0,0,0-.15,2.64,2.33,2.33,0,0,0,3.1.3l1.8-1.34,1.8-1.34a1.91,1.91,0,0,0,.32-2.84,2.3,2.3,0,0,0-2.94-.37L107,68.41a21,21,0,0,0,4.61-12.63l9.27-1.3a2.14,2.14,0,0,0,2.28,1.76,2.1,2.1,0,0,0,2.07-2.14Z" transform="translate(0.35 1.61)"/><path class="cls-5" d="M1347.29,151.43l-.13-2.14a2.15,2.15,0,0,0-2.34-1.91,2.1,2.1,0,0,0-2,1.88c-2.72-.18-6.66-.42-10-.62a21.6,21.6,0,0,0-3.81-7.08l7.76-9.83a2.33,2.33,0,0,0,3-.25,1.92,1.92,0,0,0-.2-2.87l-1.75-1.42-1.74-1.42a2.37,2.37,0,0,0-3.13.18,1.89,1.89,0,0,0,0,2.66c-2.67,2.16-6.89,5.58-9.62,7.85a25.41,25.41,0,0,0-10.17-3.74l-1.25-12.15a2.09,2.09,0,0,0,2-2,2.13,2.13,0,0,0-2.21-2h-4.67a2.13,2.13,0,0,0-2.21,2,2.08,2.08,0,0,0,1.93,2c-.47,3.41-1.22,8.91-1.64,12.24a25.36,25.36,0,0,0-10.16,4c-2.7-2.24-7.23-5.92-10-8.19a1.89,1.89,0,0,0,0-2.66,2.35,2.35,0,0,0-3.12-.18l-1.75,1.42-1.74,1.42a1.92,1.92,0,0,0-.2,2.87,2.33,2.33,0,0,0,3,.25l8.21,10.41a21.35,21.35,0,0,0-3.32,6.45c-3.53.2-8,.48-10.94.67a2.11,2.11,0,0,0-2-1.88,2.15,2.15,0,0,0-2.33,1.91l-.13,2.14-.14,2.14a2.12,2.12,0,0,0,2.09,2.15,2.15,2.15,0,0,0,2.29-1.77l10.26,1.44a21.12,21.12,0,0,0,4.6,12.54l-8,9.23a2.33,2.33,0,0,0-3,.14,1.91,1.91,0,0,0,.06,2.87l1.68,1.49,1.69,1.48a2.34,2.34,0,0,0,3.12-.06,1.88,1.88,0,0,0,.1-2.65c2.74-2,7-5.23,9.87-7.39a25.55,25.55,0,0,0,10.08,3.85l.7,12.39a2,2,0,1,0,0,4l2.33.09,2.32.09a2.16,2.16,0,0,0,2.31-1.95,2.05,2.05,0,0,0-1.84-2.05c.66-3.54,1.73-9.35,2.28-12.6a25.54,25.54,0,0,0,9.78-3.62c2.5,2.28,7.25,6.48,10.13,9a1.89,1.89,0,0,0-.14,2.65,2.34,2.34,0,0,0,3.11.3l1.81-1.35,1.81-1.34a1.92,1.92,0,0,0,.33-2.86,2.31,2.31,0,0,0-3-.38L1329.08,168a21.15,21.15,0,0,0,4.64-12.71l9.33-1.31a2.15,2.15,0,0,0,2.29,1.77,2.11,2.11,0,0,0,2.08-2.15Z" transform="translate(0.35 1.61)"/><path class="cls-5" d="M255.83,193.87l-.08-1.39a1.4,1.4,0,0,0-1.52-1.24,1.36,1.36,0,0,0-1.32,1.22l-6.49-.4a13.89,13.89,0,0,0-2.47-4.59l5-6.38a1.51,1.51,0,0,0,1.94-.16,1.25,1.25,0,0,0-.13-1.86l-1.13-.92-1.14-.92a1.53,1.53,0,0,0-2,.11,1.24,1.24,0,0,0,0,1.73c-1.73,1.4-4.47,3.62-6.24,5.09a16.55,16.55,0,0,0-6.59-2.43l-.82-7.87a1.31,1.31,0,1,0-.1-2.62h-3a1.38,1.38,0,0,0-1.44,1.32,1.35,1.35,0,0,0,1.25,1.28c-.3,2.21-.79,5.78-1.06,7.94a16.4,16.4,0,0,0-6.59,2.6c-1.75-1.46-4.69-3.84-6.51-5.31a1.24,1.24,0,0,0,0-1.73,1.53,1.53,0,0,0-2-.11l-1.14.92-1.13.92a1.25,1.25,0,0,0-.13,1.86,1.51,1.51,0,0,0,1.94.16l5.32,6.75a13.71,13.71,0,0,0-2.15,4.18c-2.29.13-5.17.32-7.1.44a1.37,1.37,0,0,0-1.33-1.22,1.39,1.39,0,0,0-1.51,1.24l-.09,1.39-.08,1.39a1.36,1.36,0,0,0,1.35,1.39,1.4,1.4,0,0,0,1.49-1.15l6.65.94a13.69,13.69,0,0,0,3,8.13l-5.16,6a1.5,1.5,0,0,0-1.94.09,1.24,1.24,0,0,0,0,1.86l1.09,1,1.09,1a1.54,1.54,0,0,0,2,0,1.23,1.23,0,0,0,.06-1.72c1.78-1.32,4.57-3.4,6.41-4.79a16.4,16.4,0,0,0,6.53,2.49l.46,8a1.31,1.31,0,1,0,0,2.62l1.51.06,1.51.05a1.39,1.39,0,0,0,1.5-1.26,1.34,1.34,0,0,0-1.19-1.33c.42-2.3,1.12-6.07,1.47-8.17a16.58,16.58,0,0,0,6.34-2.35c1.63,1.48,4.71,4.2,6.58,5.85a1.22,1.22,0,0,0-.09,1.72,1.52,1.52,0,0,0,2,.2l1.18-.88,1.17-.87a1.26,1.26,0,0,0,.22-1.86,1.52,1.52,0,0,0-1.93-.24L244,204.6a13.69,13.69,0,0,0,3-8.25l6.05-.85a1.4,1.4,0,0,0,1.49,1.15,1.36,1.36,0,0,0,1.35-1.39Z" transform="translate(0.35 1.61)"/><path class="cls-6" d="M891.73,395.22c-.24.34-.47.7-.72,1-1.93,2.8-4,5.59-6.06,8.4-3.5,4.66-7.25,9.32-11.2,14-3.29,3.91-6.74,7.81-10.3,11.68-.66.74-1.34,1.48-2,2.21-31.55,34-70.62,65.68-96.32,83.83h0c-14.08,9.94-24.14,15.83-26.77,15.83-1.43,0-8-3.84-17.93-10.58-23.73-16.16-66.27-48.92-100.94-84.91-3.85-4-7.59-8-11.18-12q-2.88-3.21-5.62-6.44c-1.17-1.38-2.33-2.75-3.45-4.13q-2.58-3.11-5-6.19c-3.32-4.24-6.44-8.49-9.32-12.71-48.48-71-46.45-212-46.45-212C602.79,158.52,739.24,64.87,739.24,64.87s134.59,93.65,199,118.39C938.19,183.26,940.22,324.2,891.73,395.22Z" transform="translate(0.35 1.61)"/><path class="cls-7" d="M869,379.72c-.2.29-.4.59-.61.88q-2.46,3.57-5.17,7.16c-3,4-6.18,7.94-9.54,11.91-2.81,3.33-5.74,6.66-8.77,9.95-.57.63-1.15,1.26-1.73,1.88-26.88,29-60.17,56-82.07,71.43h0c-12,8.47-20.57,13.49-22.81,13.49-1.22,0-6.86-3.28-15.28-9-20.22-13.77-56.47-41.69-86-72.35-3.27-3.39-6.46-6.81-9.52-10.25q-2.44-2.73-4.79-5.48-1.5-1.77-2.94-3.52c-1.46-1.76-2.87-3.52-4.25-5.28-2.83-3.61-5.48-7.23-7.94-10.82C566.28,319.21,568,199.11,568,199.11,622.84,178,739.1,98.25,739.1,98.25S853.78,178,908.61,199.11C908.61,199.11,910.34,319.21,869,379.72Z" transform="translate(0.35 1.61)"/><path class="cls-8" d="M615.22,335.49l-47.5,57.69L532,373l-10.57,17.91s4.33,30.32,27.3,46.56,46.91,5.08,46.91,5.08Z" transform="translate(0.35 1.61)"/><path class="cls-1" d="M648.65,289.91l-.69,7.18-.27,2.81s-24.25,37.56-36.28,72.28c-4.33,12.48-7,29.44-8.77,46.07-1.17-1.38-2.33-2.75-3.45-4.13q-2.58-3.11-5-6.19c1.7-22.85,4.94-46.21,11-60.95C620.65,309.74,648.65,289.91,648.65,289.91Z" transform="translate(0.35 1.61)"/><path class="cls-9" d="M661.53,296.16,619.44,436.71c-3.85-4-7.59-8-11.18-12q-2.88-3.21-5.62-6.44c-1.17-1.38-2.33-2.75-3.45-4.13,1.15-19.87,3.93-40.9,9.84-57.13,15.67-42.94,38.12-60.16,38.12-60.16.27.1.54.18.81.26A22,22,0,0,0,661.53,296.16Z" transform="translate(0.35 1.61)"/><path class="cls-10" d="M701.94,230.92a19.85,19.85,0,0,1-14.07,5.59l3.36,51.64c-31.05,20.44-43.54,11.75-43.54,11.75l-5.16-29.53c-13.69.61-27.31-4.31-34-19.74-.19-.43-.38-.87-.54-1.31a77.38,77.38,0,0,1-2.94-8.54c-5.24-18.31-5.24-38.27-5.24-38.27s-1.89-29.94,11-40.17,44.34-12.51,62.53-4.93c14.82,6.18,18.57,27.73,17.81,50.47a12.82,12.82,0,0,1,11.74-3.09C713.49,207.24,709.71,223.54,701.94,230.92Z" transform="translate(0.35 1.61)"/><path class="cls-11" d="M622.69,217.43l1.77,17.68s-5.18-.12-7,3.29,9.6,4.8,11.62,2.65-3.41-24.25-5-25.51S622.69,217.43,622.69,217.43Z" transform="translate(0.35 1.61)"/><path class="cls-12" d="M638.46,245.33s-3,5.3-8.71,6.57-9.1-1.27-9.1-1.27Z" transform="translate(0.35 1.61)"/><path class="cls-9" d="M613.2,203.26s-6-.89-9.42,2c0,0-.35-4.63,3.52-5.86S613.2,203.26,613.2,203.26Z" transform="translate(0.35 1.61)"/><path class="cls-9" d="M643.25,198.21s-5.88-1.51-9.57,1c0,0,.12-4.64,4.1-5.47S643.25,198.21,643.25,198.21Z" transform="translate(0.35 1.61)"/><path class="cls-12" d="M642.53,270.36s17.53-2.66,26.44-18.11c0,0-.38,8.86-8.34,18.11S644.21,280,644.21,280Z" transform="translate(0.35 1.61)"/><path class="cls-1" d="M720.38,521.62c-23.73-16.16-66.27-48.92-100.94-84.91-3.85-4-7.59-8-11.18-12,3.91-33,10.61-72.62,21.29-89.93,8.49-13.72,20.72-27.41,32-38.6a369,369,0,0,1,28.55-25.62s32.13,27.08,36.68,63.84S720.38,521.62,720.38,521.62Z" transform="translate(0.35 1.61)"/><path class="cls-9" d="M704.71,178.17c-.19,11.76-4.15,26.29-4.15,26.29-9.63-.43-15.75,16.32-15.75,16.32s-15.53-.75-22.35-13.63c-6.7-12.66-2.26-30-2.1-30.59-18,10.69-42.81,12-58.91,9.36s-23.3-18.75-23.3-18.75c2.64,0,16.29-6.07,16.29-6.07-5.69-3.22-5.11-9.66-5.11-9.66s4,.38,17.61-3.59,34.67-13.27,56.46-9.29c21.43,3.9,25.46,18.45,25.59,18.93v0h.23a13.4,13.4,0,0,1,1.67.19,15.78,15.78,0,0,1,11.94,9,18.68,18.68,0,0,1,.74,1.82A28.92,28.92,0,0,1,704.71,178.17Z" transform="translate(0.35 1.61)"/><path class="cls-13" d="M603.41,236.36a5.56,5.56,0,0,1-5.21-3.61l-3.57-9.48,1.09-.41,3.58,9.47a4.4,4.4,0,0,0,5,2.77l11.84-2.38a4.41,4.41,0,0,0,3.52-4.73l-.86-11.2,1.17-.09.87,11.2a5.59,5.59,0,0,1-4.47,6l-11.84,2.38A5.32,5.32,0,0,1,603.41,236.36Z" transform="translate(0.35 1.61)"/><path class="cls-13" d="M638.22,229.25a5.57,5.57,0,0,1-5.22-3.62l-3.57-9.48,1.1-.41,3.57,9.47a4.39,4.39,0,0,0,5,2.77l11.84-2.38a4.41,4.41,0,0,0,3.53-4.72l-.87-11.21,1.18-.09.86,11.2a5.57,5.57,0,0,1-4.46,6l-11.85,2.38A5.31,5.31,0,0,1,638.22,229.25Z" transform="translate(0.35 1.61)"/><path class="cls-9" d="M650.88,204.42c-2.82.3-14.39,2.71-20.23,4a4,4,0,0,0-3.13,3.67,11.48,11.48,0,0,0-8.22,1.23,3.23,3.23,0,0,0-3.13-1.75c-2.82.3-14.4,2.71-20.23,3.95a4,4,0,0,0-3.14,4.19l.91,3.72,3-.65s-1.14-4.41.31-5.11,17.45-4.37,18.94-3.83,2.39,4.14,2.39,4.14l2.29-.53a12.46,12.46,0,0,0-.81-3.08,10.36,10.36,0,0,1,7.85-1l.74,3,3-.66s-1.14-4.41.32-5.1,17.44-4.37,18.94-3.84,2.38,4.14,2.38,4.14l2.3-.52S654.69,204,650.88,204.42Z" transform="translate(0.35 1.61)"/><path class="cls-14" d="M654,206.14s4.73-.38,16,0a157.8,157.8,0,0,1,22.05,2.47L690.9,210s-14.74-1.31-23.07-1.31a110.94,110.94,0,0,0-12.75.57A31.07,31.07,0,0,0,654,206.14Z" transform="translate(0.35 1.61)"/><path class="cls-15" d="M664.26,235.58c.4,2.48-2.37,5-6.19,5.61s-7.24-.88-7.65-3.36,2.37-5,6.19-5.62S663.86,233.1,664.26,235.58Z" transform="translate(0.35 1.61)"/><path class="cls-15" d="M608.46,249.26l-.47.06a77.38,77.38,0,0,1-2.94-8.54,11.72,11.72,0,0,1,1.94-.49c3.82-.62,7.25.88,7.65,3.36S612.28,248.64,608.46,249.26Z" transform="translate(0.35 1.61)"/><polygon class="cls-1" points="500.31 304.14 450 254.9 449 258.84 494.42 306.81 500.31 304.14"/><polygon class="cls-16" points="523.6 313.42 496.05 294.22 485.86 304.65 505.5 332.25 523.6 313.42"/><path class="cls-17" d="M672.09,436.62l-2,2-18.67,19.18-24.63,25.3-17.32-18.94-1.61-1.76-45.77-50-1.6-1.74-49.12-53.7-1.59-1.72-9.66-10.57a16.1,16.1,0,0,1,.08-21.83c.25-.28.5-.53.77-.78l15.09-14.19a16.11,16.11,0,0,1,22.21.12Z" transform="translate(0.35 1.61)"/><path class="cls-18" d="M651.47,457.79l-24.63,25.3-17.32-18.94-1.61-1.76-45.77-50-1.6-1.74-49.12-53.7-1.59-1.72-9.66-10.57a16.1,16.1,0,0,1,.08-21.83c12.24,15.49,37.08,45.84,72,83.07C606.15,442.13,635.58,453.94,651.47,457.79Z" transform="translate(0.35 1.61)"/><path class="cls-19" d="M672.09,436.62l-2,2c-4.06,1.27-11,1.79-20.15-3.91-14.87-9.32-119.18-116.37-119.18-116.37-4.15-7-4.53-12.35-1.62-14.74a16.05,16.05,0,0,1,9.13,4.37Z" transform="translate(0.35 1.61)"/><polygon class="cls-16" points="651.92 454.88 701.98 510.41 694.2 515 641.33 462.78 651.92 454.88"/><polygon class="cls-17" points="696.56 507.27 710.73 499.5 714.26 504.06 687.7 527.69 682.76 522.8 696.56 507.27"/><path class="cls-16" d="M620.16,449.91l-10.64,14.24-1.61-1.76,10.37-13.89a3.14,3.14,0,0,0-.26-4.09l-42.73-44.53-13.15,12.49-1.6-1.74,13.12-12.44-47.6-49.6a3.19,3.19,0,0,0-4.32-.25l-10.32,8.59-1.59-1.72,10.4-8.66a5.54,5.54,0,0,1,7.52.41l92,95.81A5.51,5.51,0,0,1,620.16,449.91Z" transform="translate(0.35 1.61)"/><line class="cls-20" x1="531.17" y1="360.25" x2="537.56" y2="353.83"/><line class="cls-20" x1="538.17" y1="367.46" x2="544.56" y2="361.04"/><line class="cls-20" x1="545.16" y1="374.67" x2="551.56" y2="368.24"/><line class="cls-20" x1="552.16" y1="381.87" x2="558.56" y2="375.45"/><line class="cls-20" x1="559.16" y1="389.08" x2="565.55" y2="382.66"/><line class="cls-20" x1="566.16" y1="396.29" x2="572.55" y2="389.86"/><line class="cls-20" x1="572.48" y1="403.04" x2="578.88" y2="396.62"/><line class="cls-20" x1="580.16" y1="410.7" x2="586.55" y2="404.28"/><line class="cls-20" x1="587.15" y1="417.9" x2="593.55" y2="411.48"/><line class="cls-20" x1="594.15" y1="425.11" x2="600.54" y2="418.69"/><line class="cls-20" x1="601.15" y1="432.32" x2="607.54" y2="425.9"/><line class="cls-20" x1="608.15" y1="439.52" x2="614.54" y2="433.1"/><line class="cls-20" x1="615.15" y1="446.73" x2="621.54" y2="440.31"/><polygon class="cls-9" points="515.94 308.08 496.8 320.02 500.31 324.95 517.1 308.89 515.94 308.08"/><path class="cls-10" d="M653.28,485.37l-4.17,3.73a67.25,67.25,0,0,1-4.12,10c-2.17,3.88-6.81,9.22-11.58,9.58s-5-2.22-5-2.22-3.65,1-5.87-.42a3.53,3.53,0,0,1-1.67-3.7s-3.67.08-5.38-1.58a4.11,4.11,0,0,1-.85-4.05s-3.34.47-4.59-2.23c-.66-1.42-.21-4.55,1-7.6,1.06-2.74,2.72-5.43,4.71-6.79,4.19-2.84,16.79-7.45,16.79-7.45l7.08-4.19Z" transform="translate(0.35 1.61)"/><path class="cls-21" d="M736.44,425.22c-7.05,44.8-74.91,76.61-74.91,76.61l-5.92-6.94-22.44-26.27,63.89-61-26.58-70.92a36.06,36.06,0,0,1,6.33-28.45c10-13.6,29.59-16.2,42.38-5.17l.08.08a17,17,0,0,1,3.08,3.36,12.65,12.65,0,0,1,.8,1.39C729.83,321,743.22,382.2,736.44,425.22Z" transform="translate(0.35 1.61)"/><path class="cls-10" d="M537.07,386.1c-1.16-3.54-5.26-7.18-5.26-7.18s4.29-7.6,1.42-9c-2.67-1.34-6.44,2.94-6.93,3.49.41-.79,4.73-9.17,1.67-10.11-2.74-.83-6,3.51-6.91,4.82,1.84-3,4.18-9.59,1.1-10.45-2.48-.69-5.82,3.68-7.22,5.7,1.45-2.37,4.6-8.19,1.06-8.82-4.46-.8-9.31,7.14-10.11,11.16a18.84,18.84,0,0,0,3.93,15.55c.34.41.74.83,1.17,1.26,5.07,4.91,15.46,9.92,15.46,9.92C531.54,393.58,538.24,389.64,537.07,386.1ZM526.3,373.4h0Z" transform="translate(0.35 1.61)"/><path class="cls-1" d="M634.26,217.06s2.32-6.8,6.79-7.49,8.54,1.5,11.17,5.29c0,0,.34,5.89-2.54,9.91a40,40,0,0,1-10.83,1.44S634.59,222.21,634.26,217.06Z" transform="translate(0.35 1.61)"/><path class="cls-9" d="M639.17,219c.53,3.73,3.61,6.37,6.88,5.91s5.5-3.86,5-7.58-3.61-6.37-6.88-5.91S638.64,215.24,639.17,219Z" transform="translate(0.35 1.61)"/><path class="cls-1" d="M646.1,216.23a1.56,1.56,0,0,0,1.67,1.44,1.58,1.58,0,0,0,1.22-1.85,1.47,1.47,0,1,0-2.89.41Z" transform="translate(0.35 1.61)"/><path class="cls-1" d="M603,224.08s1.67-6.23,5.64-7.12,7.74.83,10.33,4.07c0,0,.65,5.26-1.68,9a36.4,36.4,0,0,1-9.63,1.94S603.58,228.68,603,224.08Z" transform="translate(0.35 1.61)"/><path class="cls-9" d="M607.49,225.49c.7,3.31,3.62,5.49,6.53,4.88s4.7-3.79,4-7.09-3.62-5.5-6.52-4.88S606.8,222.18,607.49,225.49Z" transform="translate(0.35 1.61)"/><path class="cls-1" d="M613.54,222.62a1.32,1.32,0,1,0,1-1.73A1.41,1.41,0,0,0,613.54,222.62Z" transform="translate(0.35 1.61)"/><path class="cls-12" d="M701.51,209.56c-2.86,1-5.46,3.79-7.75,7.62,0,0,2.33.18,2.21,3.33s-4.85,5.23-4.85,5.23-1.89,3.78,1.7,3.71a7,7,0,0,0,6.8-7,6.26,6.26,0,0,0-2.71-5.79s1.64-3.15,3.78-4,.69,6.23,2.26,6.48S706.56,207.79,701.51,209.56Z" transform="translate(0.35 1.61)"/><path class="cls-16" d="M689,157.5l-19.57,9.64s4-6,9.15-8.31A19.08,19.08,0,0,1,689,157.5Z" transform="translate(0.35 1.61)"/><path class="cls-16" d="M704.71,178.17q-1,.42-2.22.9l-3.26-5.86.66,6.83a72.13,72.13,0,0,1-8.49,2.39l-1.58-4.09-.19,4.45c-1,.17-1.94.34-2.92.47s-1.9.23-2.77.33l-1.48-3.82-.16,4c-7.92.8-10.28.25-10.28.25l-.59-6.21a20.89,20.89,0,0,0,4.21,0l1.58,3.64v-3.77a59.52,59.52,0,0,0,7-1.16l1.9,4.05-.13-4.49c.82-.2,1.64-.42,2.52-.67a32.53,32.53,0,0,0,4.23-1.54l2.08,4.43-.15-5.34a27.31,27.31,0,0,0,8.2-6.33,18.68,18.68,0,0,1,.74,1.82A28.92,28.92,0,0,1,704.71,178.17Z" transform="translate(0.35 1.61)"/><path class="cls-16" d="M589.16,173.26s6.3,9.44,28.16,10.93a70,70,0,0,0,38.34-8.76s-23.52,7.07-39.81,4.55A132.39,132.39,0,0,1,589.16,173.26Z" transform="translate(0.35 1.61)"/><path class="cls-16" d="M689,157.49l-1.59-.17s-13.52-15.52-29.57-16.13-38,7.4-51,10.25-17.46,0-17.46,0,4,.38,17.61-3.59,34.67-13.27,56.46-9.29C684.83,142.46,688.86,157,689,157.49Z" transform="translate(0.35 1.61)"/><path class="cls-15" d="M690.89,157.71l-1.67-.19A13.4,13.4,0,0,1,690.89,157.71Z" transform="translate(0.35 1.61)"/><path class="cls-16" d="M578.15,167.17s2.28,1,9.16-.5a25.42,25.42,0,0,0,11.08-5.33l-3.95-.24Z" transform="translate(0.35 1.61)"/><path class="cls-8" d="M736.44,425.22c-7.05,44.8-74.91,76.61-74.91,76.61l-5.92-6.94C671,485.77,715.9,457.21,726,428.13,738.23,392.86,719.19,303,719.19,303l.08.08a55.46,55.46,0,0,1,3.88,4.75C729.83,321,743.22,382.2,736.44,425.22Z" transform="translate(0.35 1.61)"/><path class="cls-8" d="M698.16,411l22.29,14.66S720.2,407,698.16,411Z" transform="translate(0.35 1.61)"/><path class="cls-12" d="M513.94,365.08l-3,7.64S509,366.76,513.94,365.08Z" transform="translate(0.35 1.61)"/><path class="cls-12" d="M520.84,368.49l-3,7.64S515.89,370.17,520.84,368.49Z" transform="translate(0.35 1.61)"/><path class="cls-12" d="M525.8,373.55l-3,7.63S520.84,375.22,525.8,373.55Z" transform="translate(0.35 1.61)"/><polygon class="cls-12" points="634.31 473.41 648.7 492.96 649.47 490.71 650.35 489.92 635.6 472.65 634.31 473.41"/><path class="cls-12" d="M649.11,489.1a67.25,67.25,0,0,1-4.12,10c-2.17,3.88-6.81,9.22-11.58,9.58s-5-2.22-5-2.22-3.65,1-5.87-.42a3.53,3.53,0,0,1-1.67-3.7s-3.67.08-5.38-1.58a4.11,4.11,0,0,1-.85-4.05s-3.34.47-4.59-2.23c-.66-1.42-.21-4.55,1-7.6a6.13,6.13,0,0,0,2.3,3.92c3.28,2.4,5,1.76,5,1.76s-1.14,3.93,1.39,5.3a6.44,6.44,0,0,0,4.78.63,8.59,8.59,0,0,0,3.9,3.31,10.51,10.51,0,0,0,4.77.84,17.57,17.57,0,0,0,7.81-2.39c3.66-2.27,6.57-11.67,6.57-11.67Z" transform="translate(0.35 1.61)"/><path class="cls-12" d="M526.45,392.42s-10.39-5-15.46-9.92c4.13,2.37,9.92,5.09,14.8,5.09,8.67,0,7.66-4.29,7.66-4.29L530.32,379s3-5.42,2.13-7.69-5.67,1.69-6.15,2.08h0l0,0h0c.49-.55,4.26-4.83,6.93-3.49,2.87,1.42-1.42,9-1.42,9s4.1,3.64,5.26,7.18S531.54,393.58,526.45,392.42Z" transform="translate(0.35 1.61)"/><path class="cls-1" d="M891,396.26c-1.93,2.8-4,5.59-6.06,8.4-3.5,4.66-7.25,9.32-11.2,14-3.29,3.91-6.74,7.81-10.3,11.68-.66.74-1.34,1.48-2,2.21L850,385.42l-21.32-87.85L828.3,296l-1.44-6,8.35-2s37.86,25,49.88,76.66C887.83,376.42,889.72,387,891,396.26Z" transform="translate(0.35 1.61)"/><path class="cls-9" d="M889.66,276c-5.56,8.06-16.92,6.3-16.92,6.3l1-11.62a27.83,27.83,0,0,1-10.11,10.61c-6,3.5-16.36,1.42-22.24-.22-2.7-.77-4.47-1.44-4.47-1.44l.68-1.13c3.75-6.3,22-37.91,26.78-64.15,1.19-6.55.31-13.69-2-20.89-7.87-25-32.47-50.65-45-54.06,0,0,10.51-8.46,30.82-2.87,27.15,7.49,38.28,17.12,49,50.54C911.34,231.25,895.22,268,889.66,276Z" transform="translate(0.35 1.61)"/><path class="cls-9" d="M885,404.66c-3.5,4.66-7.25,9.32-11.2,14-3.29,3.91-6.74,7.81-10.3,11.68L850,385.42l-26.74-89.26a21.67,21.67,0,0,0,5.42,1.41,13.45,13.45,0,0,0,1.34.14,18.93,18.93,0,0,0,7.63-.88s22.45,17.22,38.11,60.16C880.75,370.66,883.51,387.74,885,404.66Z" transform="translate(0.35 1.61)"/><path class="cls-22" d="M872.74,282.33l1-11.62a27.83,27.83,0,0,1-10.11,10.61c-6,3.5-16.36,1.42-22.24-.22a32,32,0,0,1-3.79-2.57c3.75-6.3,22-37.91,26.78-64.15,1.19-6.55.31-13.69-2-20.89l19.49-18.39s9.28,23,10.78,57.56S872.74,282.33,872.74,282.33Z" transform="translate(0.35 1.61)"/><path class="cls-10" d="M885,202.51s0,18.59-4.71,36.35c-.57,2.19-1.23,4.38-2,6.52-.63,1.8-1.3,3.55-2,5.25-6.68,15.43-20.3,20.35-34,19.74l-1.71,29.53s-11,6.34-47-11.75l3.37-51.64a19.85,19.85,0,0,1-14.07-5.59c-7.77-7.38-7.48-21.14-.94-26.13a9.18,9.18,0,0,1,11.67,0c-.77-22.74,3-41.21,17.88-47.39,18.2-7.58,49.65-5.3,62.53,4.93S885,202.51,885,202.51Z" transform="translate(0.35 1.61)"/><path class="cls-1" d="M851.34,218.8s-1.82-6.94-6.23-8-8.63.88-11.52,4.47c0,0-.76,5.86,1.82,10.08a40.25,40.25,0,0,0,10.71,2.2S850.65,223.92,851.34,218.8Z" transform="translate(0.35 1.61)"/><path class="cls-9" d="M871.3,192.08c-13.78,16.93-39.91,13.83-39.91,13.83s-4.14,9.61-10.8,14.66-12,3.8-12,3.8-2.15-11.89-9.07-17.53a8.28,8.28,0,0,0-9.28-1.1c-2.46,1.36-4.76,4.26-4.23,10.45a23,23,0,0,0,10,17,18.81,18.81,0,0,0,7.65,3.18c.33,0,.67.08,1,.11l-2,34s-6.4,3-17.58,0-13.48-8-13.48-8V247.86l-4.59,13.39s-11.49-1-18.38-10.62a20.91,20.91,0,0,1-3.52-7.78c-1.84-8.13.85-17.73,6-29.12,7.39-16.29,21.49-27.7,21.49-27.7a88.51,88.51,0,0,1,6.68-21.39,61.89,61.89,0,0,1,10.6-16.34,38.59,38.59,0,0,1,19.85-11.85C840.58,129.37,877,160,883,168.59,883,168.59,885.09,175.16,871.3,192.08Z" transform="translate(0.35 1.61)"/><path class="cls-11" d="M863.27,215.65l-1.77,17.68s5.18-.13,7,3.28-9.6,4.8-11.62,2.66,3.41-24.26,5-25.52S863.27,215.65,863.27,215.65Z" transform="translate(0.35 1.61)"/><path class="cls-12" d="M846.34,245.33s3,5.3,8.72,6.57,9.09-1.27,9.09-1.27Z" transform="translate(0.35 1.61)"/><path class="cls-9" d="M846.31,220.35c-.79,3.68-4,6.09-7.28,5.4s-5.21-4.24-4.42-7.92,4-6.09,7.29-5.4S847.1,216.67,846.31,220.35Z" transform="translate(0.35 1.61)"/><path class="cls-1" d="M839.6,217.13a1.47,1.47,0,1,1-2.85-.62,1.55,1.55,0,0,1,1.77-1.31A1.57,1.57,0,0,1,839.6,217.13Z" transform="translate(0.35 1.61)"/><path class="cls-1" d="M880.16,223.9s-1.44-5.81-4.93-6.65-6.82.74-9.11,3.74c0,0-.6,4.89,1.44,8.42a30.45,30.45,0,0,0,8.47,1.84S879.62,228.18,880.16,223.9Z" transform="translate(0.35 1.61)"/><path class="cls-9" d="M876.18,225.19c-.62,3.08-3.2,5.1-5.76,4.51s-4.12-3.54-3.49-6.62,3.2-5.09,5.76-4.51S876.81,222.12,876.18,225.19Z" transform="translate(0.35 1.61)"/><path class="cls-9" d="M870.6,204.94s5.88-1.51,9.56,1c0,0-.12-4.64-4.1-5.47S870.6,204.94,870.6,204.94Z" transform="translate(0.35 1.61)"/><path class="cls-12" d="M842.28,270.36s-17.54-2.66-26.44-18.11c0,0,.38,8.86,8.34,18.11s17.53,9.89,17.53,9.89Z" transform="translate(0.35 1.61)"/><path class="cls-1" d="M873.75,418.64c-3.29,3.91-6.74,7.81-10.3,11.68-.66.74-1.34,1.48-2,2.21-31.55,34-70.62,65.68-96.32,83.83h0s-11.57-145.23-7-182,36.66-63.84,36.66-63.84A153.47,153.47,0,0,1,828.3,296l1.73,1.75c9.52,9.79,18.92,22.17,25.22,37.05C862.62,352.19,869.11,387.57,873.75,418.64Z" transform="translate(0.35 1.61)"/><path class="cls-17" d="M988.39,406.53l-.62,5.22-9.31,78-.73,6.07a18.5,18.5,0,0,1-.49,2.59,19.85,19.85,0,0,1-21.57,14.75l-84.11-10a19.84,19.84,0,0,1-17.36-22.05l.66-5.55,1.53-12.73L864,399.29l.89-7.51a45,45,0,0,1,34.44-38.51l1.36-11.48.38-3.11,63,7.52-.41,3.48-1.26,10.52A45,45,0,0,1,988.39,406.53Z" transform="translate(0.35 1.61)"/><path class="cls-16" d="M977.8,336.51a15.21,15.21,0,0,1-1.29,4.55A15,15,0,0,1,963,349.71a15.49,15.49,0,0,1-1.79-.11l-56.42-6.73A15,15,0,0,1,906.5,313a15.46,15.46,0,0,1,1.79.1l56.42,6.74A15,15,0,0,1,977.8,336.51Z" transform="translate(0.35 1.61)"/><path class="cls-16" d="M987.77,411.75l-9.31,78c-11.55,1.85-40.18,1.15-64.77-2.44-14-2.05-25-4-33.75-5.8-12.55-2.55-20.31-4.67-25.08-6l1.53-12.73L864,399.29c11.64,2.75,36,7.67,70,10.3C959.41,411.54,976.86,411.88,987.77,411.75Z" transform="translate(0.35 1.61)"/><path class="cls-9" d="M947.38,438.76l-19.16,12.29,1.72,8.6s-26.82,13.12-50,21.88c-12.55-2.55-20.31-4.67-25.08-6l1.53-12.73,92.22-27.37Z" transform="translate(0.35 1.61)"/><path class="cls-10" d="M954,429.84l-1.13.49c-3.14,1.34-6,2.48-7.37,3l.06.76a1.33,1.33,0,0,1,.19-.24,50,50,0,0,1,7-2.89,6,6,0,0,1,3.5-.35c2.14,1,.61,3.89-3.43,5.65s-7,3.2-7,3.2l-15.25,3.41-11.45,2.54-1.79.4-8.08-18.63,2.31-.67,3-.86,1.92-.55s2-8.21,4.16-12.26,10.85-9.41,14-7.95a1,1,0,0,1,.23.12c2.93,1.83-3.57,7.47-4.66,8.08l-1.71,2.82,15.56-3.07s1.85-.92,4.17-1.9c3.11-1.29,7.07-2.67,8.54-2,2.58,1.2.73,4.69-4.13,6.81l-1.67.72c-2.69,1.14-5.12,2.1-6.49,2.65l.06,1c1.44-.69,4.1-1.91,6.72-2.88,2.87-1.08,5.7-1.88,6.79-1.38,2.58,1.2.74,4.69-4.13,6.81l-1.23.53c-3.52,1.5-6.65,2.75-7.73,3.17l.06,1c.11-.14.2-.27.32-.4a68.27,68.27,0,0,1,7.43-3.15c2.2-.74,4.3-1.21,5.28-.75C960.66,424.23,958.82,427.72,954,429.84Z" transform="translate(0.35 1.61)"/><path class="cls-21" d="M922.31,453.27s-107.54,55.85-131.62,24.52c-19.89-25.87-33.44-80.45-37.12-118.73a186.33,186.33,0,0,1-1-21.6,50.42,50.42,0,0,1,.6-6.78c3.9-24.69,36.23-31.94,50.55-11.45l.4.58c13.44,19.6,19.14,110.34,19.14,110.34l84.48-13.44,11.6,29.13Z" transform="translate(0.35 1.61)"/><ellipse class="cls-15" cx="829.28" cy="234.28" rx="5.48" ry="5.07"/><path class="cls-15" d="M880.28,238.86c-.57,2.19-1.23,4.38-2,6.52a5.69,5.69,0,0,1-2.93.79,5.08,5.08,0,1,1,0-10.13A5.5,5.5,0,0,1,880.28,238.86Z" transform="translate(0.35 1.61)"/><path class="cls-1" d="M870.75,222.76a1.18,1.18,0,1,1-.87-1.55A1.26,1.26,0,0,1,870.75,222.76Z" transform="translate(0.35 1.61)"/><path class="cls-16" d="M810,159.92l-3.72,7.33v-8.73c-2.18-.87-4.09-1.72-5.76-2.53l-6.69,7.31,2.65-9.47c-3.73-2.22-5.61-4.1-6.53-5.53a61.89,61.89,0,0,0-10.6,16.34,48.66,48.66,0,0,0,5.35,3.62l4.4-7.54-.58,9.58a67.34,67.34,0,0,0,10.35,4,103.58,103.58,0,0,0,10.93,2.58l5.83-10.45-.46,11.26a82.58,82.58,0,0,0,11,.62l3.05-9.85,1.64,9.63a42.25,42.25,0,0,0,7.3-1.11l9.37-11.42S831.93,167.84,810,159.92Z" transform="translate(0.35 1.61)"/><path class="cls-18" d="M904,500c-22.21-2.76-35-8.15-42-12.47a187.23,187.23,0,0,0,18-6c-12.55-2.55-20.31-4.67-25.08-6l-.66,5.55a19.94,19.94,0,0,0-.13,2c0,.24,0,.47,0,.71,0,.43,0,.87,0,1.3,0,.13,0,.24,0,.36.06.54.12,1.08.22,1.61,0,0,0,.1,0,.14a17.33,17.33,0,0,0,.42,1.76h0a19.85,19.85,0,0,0,16.7,14.13l84.11,10a19.85,19.85,0,0,0,21.57-14.75A258.88,258.88,0,0,1,904,500Z" transform="translate(0.35 1.61)"/><path class="cls-16" d="M825.61,135.79s9.51,2.05,22.94,10.61,15.28,11.08,15.28,11.08S851.87,134.41,825.61,135.79Z" transform="translate(0.35 1.61)"/><path class="cls-16" d="M833.49,199.33s14.56.38,26.65-5.92S874.58,177,874.58,177,861.86,193.66,833.49,199.33Z" transform="translate(0.35 1.61)"/><path class="cls-16" d="M751.68,242.1s1-34.92,20.31-51.21Z" transform="translate(0.35 1.61)"/><path class="cls-22" d="M804.73,236.51l-2,34s-6.4,3-17.58,0-13.48-8-13.48-8V247.86l-4.59,13.39s-11.49-1-18.38-10.62a20.91,20.91,0,0,1-3.52-7.78c11.4,2.68,33.34,5.07,58.56-6.45C804,236.45,804.38,236.48,804.73,236.51Z" transform="translate(0.35 1.61)"/><path class="cls-12" d="M792.92,211.1c2.86,1,5.46,3.79,7.74,7.62,0,0-2.33.19-2.2,3.34s4.84,5.22,4.84,5.22,1.89,3.78-1.7,3.72a7,7,0,0,1-6.79-7,6.24,6.24,0,0,1,2.7-5.79s-1.63-3.15-3.78-4-.69,6.23-2.26,6.49S787.86,209.34,792.92,211.1Z" transform="translate(0.35 1.61)"/><path class="cls-9" d="M851.34,218.8a9.72,9.72,0,0,0-4-9.14c-5-3.47-12.84,1.51-13.34,1.76a6.85,6.85,0,0,1-2.51-.29,5.79,5.79,0,0,0,2.13,4.19s4.71-5.18,10.14-4.59S851.34,218.8,851.34,218.8Z" transform="translate(0.35 1.61)"/><path class="cls-9" d="M866.12,221s4.48-5.13,9.11-3.74c4.07,1.22,4.93,6.89,4.93,6.89s2.16-.29,2.93-1.45l-2-.85s-.41-4-3.59-5.86S868.24,216.42,866.12,221Z" transform="translate(0.35 1.61)"/><path class="cls-18" d="M900.27,345.19s7.38,4,28.87,7.72,34,.66,34,.66l.88-7.36-63-7.52Z" transform="translate(0.35 1.61)"/><path class="cls-8" d="M922.31,453.27s-107.68,55.64-131.76,24.31c-19.89-25.87-33.45-80.45-37.12-118.73,8.74,34.73,27.37,97.32,50.32,109.36,32.12,16.84,115.45-22.59,115.45-22.59h0Z" transform="translate(0.35 1.61)"/><path class="cls-8" d="M821.8,432.32s-2.56,18-6.57,27.33c0,0,5.56.5,9.34-9.07S821.8,432.32,821.8,432.32Z" transform="translate(0.35 1.61)"/><path class="cls-12" d="M952.82,436.28c-4,1.76-7,3.2-7,3.2l-15.25,3.41-11.45,2.54-.06-.22H919l-7.44-18.69-.09-.22,3-.86.11.22,3.78,8.18a12,12,0,0,0,13.52,6.65c.94-.21,2-.45,3-.71,8.84-2.13,13.81-3.42,16.92-4.61a7.51,7.51,0,0,0,4.4-4.55C958.39,431.62,956.86,434.52,952.82,436.28Z" transform="translate(0.35 1.61)"/><path class="cls-12" d="M930.24,413.11l-1.71,2.82s-3.84,1.95-4.26,1.2,2.43-3.36,6.22-6.89a20.87,20.87,0,0,0,4.18-5.33,1,1,0,0,1,.23.12C937.83,406.86,931.33,412.5,930.24,413.11Z" transform="translate(0.35 1.61)"/><path class="cls-12" d="M943.39,421.07a5.22,5.22,0,0,1-2.9,1.93c-1.76.34-2.83.54-3.27,0S942,421,943.39,421.07Z" transform="translate(0.35 1.61)"/><path class="cls-12" d="M944.08,427.18a5.28,5.28,0,0,1-2.89,1.93c-1.77.34-2.84.53-3.28,0S942.7,427.06,944.08,427.18Z" transform="translate(0.35 1.61)"/><path class="cls-12" d="M944.84,434.32a5.23,5.23,0,0,1-2.9,1.92c-1.76.34-2.83.54-3.27,0S943.45,434.19,944.84,434.32Z" transform="translate(0.35 1.61)"/><path class="cls-21" d="M792,272.54l33.13,48.24,14.59-2.68-2.22,12.7,28.7,43.12s-3.25-41-30.55-70.74-40.07-34.78-40.07-34.78Z" transform="translate(0.35 1.61)"/><path class="cls-9" d="M976.51,341.06A15,15,0,0,1,963,349.71a15.49,15.49,0,0,1-1.79-.11l-56.42-6.73a15,15,0,0,1-11.58-21.67c3.81,3.8,11.71,9.93,26.07,14.25C937.59,341,964.45,342.4,976.51,341.06Z" transform="translate(0.35 1.61)"/><path class="cls-23" d="M930.15,319s33.58,2.35,38.28,4.53,1,5.54-24.68,1.51S926,318.68,930.15,319Z" transform="translate(0.35 1.61)"/><path class="cls-19" d="M901.44,356.44s4.48,3.86,21.13,6.88,38.13.5,39.31,0,6.94,4.57,9.47,7.39c2.11,2.35-33,6.23-54.47.67-18.24-4.72-20.31-8.4-27-3.86S877.44,381,874.92,377.76,888,356.77,901.44,356.44Z" transform="translate(0.35 1.61)"/><polygon class="cls-6" points="515.07 230.29 502.41 230.29 502.41 217.63 485.19 217.63 485.19 230.29 472.53 230.29 472.53 247.51 485.19 247.51 485.19 260.16 502.41 260.16 502.41 247.51 515.07 247.51 515.07 230.29"/><polygon class="cls-6" points="994.82 279.12 984.88 279.12 984.88 269.18 971.35 269.18 971.35 279.12 961.41 279.12 961.41 292.64 971.35 292.64 971.35 302.58 984.88 302.58 984.88 292.64 994.82 292.64 994.82 279.12"/><path class="cls-17" d="M475.84,396.73H497a0,0,0,0,1,0,0V459.1a6.32,6.32,0,0,1-6.32,6.32h-8.51a6.32,6.32,0,0,1-6.32-6.32V396.73A0,0,0,0,1,475.84,396.73Z" transform="translate(-110.5 176.38) rotate(-18.32)"/><path class="cls-6" d="M488.07,391.19l.26.79a6.18,6.18,0,0,1-3.89,7.76l-15.14,5a6.13,6.13,0,0,1-7.74-3.9l-.27-.79a6,6,0,0,1-.31-1.82h0a6.15,6.15,0,0,1,4.21-5.92l15.14-5A6.13,6.13,0,0,1,488.07,391.19Z" transform="translate(0.35 1.61)"/><path class="cls-19" d="M473.72,399.93l17.86,53.94a5.05,5.05,0,0,0,6.37,3.2h0a5,5,0,0,0,3.19-6.36l-17.49-52.84Z" transform="translate(0.35 1.61)"/><path class="cls-16" d="M488.57,393a6.13,6.13,0,0,1-4.13,6.73l-15.14,5a6.13,6.13,0,0,1-7.74-3.9l-.27-.79a6,6,0,0,1-.31-1.82c2.75,1,7.46,1.77,14.64.23A34.63,34.63,0,0,0,488.57,393Z" transform="translate(0.35 1.61)"/><path class="cls-7" d="M1007.89,214.48c-2.74,5.81-12.2,7.11-21.13,2.89S972.83,205,975.58,199.19c1.74-3.68,6.18-5.54,11.46-5.35.7,0,1.42.09,2.15.19a25.62,25.62,0,0,1,7.53,2.28C1005.65,200.53,1010.65,208.66,1007.89,214.48Z" transform="translate(0.35 1.61)"/><path class="cls-6" d="M975.58,199.19l-1.46,3.05a7.37,7.37,0,0,0-.57,4.69c.72,3.33,3,8.89,10.25,13,7.66,4.34,14.27,3.35,18.05,1.81a10.9,10.9,0,0,0,4.48-4.27l1.24-2.37a20.57,20.57,0,0,1-21.34,1.4C974.33,210.49,975.58,199.19,975.58,199.19Z" transform="translate(0.35 1.61)"/><path class="cls-6" d="M997.88,219.56h-2.53L987,193.84c.7,0,1.42.09,2.15.19Z" transform="translate(0.35 1.61)"/></g></svg>